<svg width="56" height="56" viewBox="0 0 56 56" fill="none" xmlns="http://www.w3.org/2000/svg">
<path fill-rule="evenodd" clip-rule="evenodd" d="M45.8879 16.1172C42.5135 10.9793 37.3306 7.46182 31.3907 6.27583C25.4866 5.09567 19.3318 6.37354 14.3338 9.81081C9.31105 13.2684 5.87006 18.5756 4.70659 24.6557C4.19733 27.3 4.14425 30.0028 4.53893 32.6653C4.5802 32.9423 4.40692 33.1933 4.13781 33.2537C3.87671 33.3043 3.61482 33.1378 3.54798 32.8722C2.79936 29.6892 2.77144 26.4504 3.31002 23.215C4.59709 16.5081 8.38958 10.6533 13.9299 6.83222C19.4374 3.0413 26.2264 1.62491 32.7427 2.93108C39.2949 4.24307 45.0127 8.11991 48.733 13.788C54.8718 23.1317 54.3524 35.6364 47.3991 44.374C43.1882 49.678 37.1469 53.0189 30.5011 53.7253C29.7892 53.7803 29.083 53.7985 28.376 53.8078C25.7413 53.8275 23.56 53.5619 21.1069 52.5965C20.8599 52.501 20.7301 52.223 20.8052 51.9627C20.8804 51.7024 21.1419 51.5522 21.4033 51.6101C23.9671 52.2125 26.6091 52.3823 29.2182 52.1657C35.2327 51.5252 40.7079 48.4977 44.5276 43.6906C50.8965 35.6756 51.5402 24.735 45.8799 16.127L45.8879 16.1172Z" fill="#602817"/>
<path fill-rule="evenodd" clip-rule="evenodd" d="M29.3103 37.3334C30.2534 37.2161 31.1171 37.9016 31.2316 38.8667C31.3462 39.8317 30.6764 40.7156 29.7334 40.8329C28.7903 40.9501 27.9266 40.2647 27.8121 39.2996C27.6975 38.3345 28.3673 37.4506 29.3103 37.3334Z" fill="#602817"/>
<path fill-rule="evenodd" clip-rule="evenodd" d="M28.5793 32.1236C29.584 31.9973 30.5006 32.7279 30.624 33.7561C30.7473 34.7843 30.0335 35.7223 29.0288 35.8486C28.024 35.9748 27.1075 35.2443 26.9841 34.2161C26.8607 33.1878 27.5746 32.2498 28.5793 32.1236Z" fill="#602817"/>
<path fill-rule="evenodd" clip-rule="evenodd" d="M27.09 27.4348C28.0507 27.3175 28.9232 28.012 29.0378 28.9951C29.1524 29.9782 28.4737 30.8712 27.5131 30.9884C26.5524 31.1057 25.6799 30.4112 25.5653 29.4281C25.4508 28.4449 26.1294 27.552 27.09 27.4348Z" fill="#602817"/>
<path fill-rule="evenodd" clip-rule="evenodd" d="M25.1156 22.9025C26.0058 22.7943 26.8078 23.4347 26.9223 24.3456C27.0281 25.2566 26.4024 26.0774 25.5122 26.1946C24.6221 26.3028 23.8201 25.6625 23.7055 24.7515C23.5997 23.8406 24.2255 23.0198 25.1156 22.9025Z" fill="#602817"/>
<path fill-rule="evenodd" clip-rule="evenodd" d="M23.7053 18.6987C24.4809 18.5995 25.1859 19.1678 25.2829 19.9615C25.3798 20.7552 24.8246 21.4767 24.049 21.5759C23.2734 21.6751 22.5684 21.1069 22.4714 20.3132C22.3745 19.5195 22.9297 18.798 23.7053 18.6987Z" fill="#602817"/>
<path fill-rule="evenodd" clip-rule="evenodd" d="M22.3926 14.8527C23.0448 14.7716 23.6353 15.2496 23.7146 15.908C23.7939 16.5754 23.3268 17.1797 22.6835 17.2609C22.0313 17.3421 21.4408 16.8731 21.3615 16.2056C21.2821 15.5382 21.7404 14.9339 22.3926 14.8527Z" fill="#602817"/>
<path fill-rule="evenodd" clip-rule="evenodd" d="M28.8351 42.3843C29.4608 42.3031 30.0337 42.7631 30.113 43.4035C30.1923 44.0439 29.7428 44.6301 29.1171 44.7113C28.4913 44.7925 27.9185 44.3325 27.8392 43.6921C27.7598 43.0517 28.2093 42.4655 28.8351 42.3843Z" fill="#602817"/>
<path fill-rule="evenodd" clip-rule="evenodd" d="M22.031 11.3897C22.5598 11.3265 23.0445 11.7054 23.1062 12.2465C23.1679 12.7877 22.7977 13.2837 22.2689 13.3469C21.7401 13.41 21.2554 13.0312 21.1937 12.49C21.132 11.9489 21.5022 11.4528 22.031 11.3897Z" fill="#602817"/>
<path fill-rule="evenodd" clip-rule="evenodd" d="M22.8241 8.40433C23.2736 8.35022 23.679 8.67491 23.7319 9.12588C23.7847 9.58587 23.4675 10.0008 23.0268 10.0549C22.5773 10.109 22.1719 9.78429 22.119 9.33332C22.0662 8.87334 22.3834 8.45845 22.8241 8.40433Z" fill="#602817"/>
<path fill-rule="evenodd" clip-rule="evenodd" d="M27.8123 45.9914C28.3235 45.9283 28.7818 46.2981 28.8523 46.8212C28.914 47.3443 28.5526 47.8133 28.0415 47.8855C27.5303 47.9486 27.072 47.5788 27.0015 47.0557C26.9398 46.5326 27.3011 46.0635 27.8123 45.9914Z" fill="#602817"/>
</svg>
