<svg width="300" height="56" viewBox="0 0 300 56" fill="none" xmlns="http://www.w3.org/2000/svg">
<path d="M65.0838 27V13H71.4438C72.9638 13 74.3038 13.2933 75.4638 13.88C76.6238 14.4533 77.5305 15.26 78.1838 16.3C78.8372 17.34 79.1638 18.5733 79.1638 20C79.1638 21.4133 78.8372 22.6467 78.1838 23.7C77.5305 24.74 76.6238 25.5533 75.4638 26.14C74.3038 26.7133 72.9638 27 71.4438 27H65.0838ZM68.3238 24.34H71.2838C72.2172 24.34 73.0238 24.1667 73.7038 23.82C74.3972 23.46 74.9305 22.9533 75.3038 22.3C75.6905 21.6467 75.8838 20.88 75.8838 20C75.8838 19.1067 75.6905 18.34 75.3038 17.7C74.9305 17.0467 74.3972 16.5467 73.7038 16.2C73.0238 15.84 72.2172 15.66 71.2838 15.66H68.3238V24.34ZM86.7273 27.16C85.5006 27.16 84.4206 26.92 83.4873 26.44C82.5673 25.96 81.8539 25.3067 81.3473 24.48C80.8406 23.64 80.5873 22.6867 80.5873 21.62C80.5873 20.54 80.8339 19.5867 81.3273 18.76C81.8339 17.92 82.5206 17.2667 83.3873 16.8C84.2539 16.32 85.2339 16.08 86.3273 16.08C87.3806 16.08 88.3273 16.3067 89.1673 16.76C90.0206 17.2 90.6939 17.84 91.1873 18.68C91.6806 19.5067 91.9273 20.5 91.9273 21.66C91.9273 21.78 91.9206 21.92 91.9073 22.08C91.8939 22.2267 91.8806 22.3667 91.8673 22.5H83.1273V20.68H90.2273L89.0273 21.22C89.0273 20.66 88.9139 20.1733 88.6873 19.76C88.4606 19.3467 88.1473 19.0267 87.7473 18.8C87.3473 18.56 86.8806 18.44 86.3473 18.44C85.8139 18.44 85.3406 18.56 84.9273 18.8C84.5273 19.0267 84.2139 19.3533 83.9873 19.78C83.7606 20.1933 83.6473 20.6867 83.6473 21.26V21.74C83.6473 22.3267 83.7739 22.8467 84.0273 23.3C84.2939 23.74 84.6606 24.08 85.1273 24.32C85.6073 24.5467 86.1673 24.66 86.8073 24.66C87.3806 24.66 87.8806 24.5733 88.3073 24.4C88.7473 24.2267 89.1473 23.9667 89.5073 23.62L91.1673 25.42C90.6739 25.98 90.0539 26.4133 89.3073 26.72C88.5606 27.0133 87.7006 27.16 86.7273 27.16ZM84.4473 14.86L87.1473 11.98H90.5073L86.8873 14.86H84.4473ZM100.364 27.16C99.4178 27.16 98.6045 26.96 97.9245 26.56C97.2445 26.16 96.7245 25.5533 96.3645 24.74C96.0045 23.9133 95.8245 22.8733 95.8245 21.62C95.8245 20.3533 96.0111 19.3133 96.3845 18.5C96.7711 17.6867 97.3045 17.08 97.9845 16.68C98.6645 16.28 99.4578 16.08 100.364 16.08C101.378 16.08 102.284 16.3067 103.084 16.76C103.898 17.2133 104.538 17.8533 105.004 18.68C105.484 19.5067 105.724 20.4867 105.724 21.62C105.724 22.74 105.484 23.7133 105.004 24.54C104.538 25.3667 103.898 26.0133 103.084 26.48C102.284 26.9333 101.378 27.16 100.364 27.16ZM94.0045 27V12.16H97.1245V18.42L96.9245 21.6L96.9845 24.8V27H94.0045ZM99.8245 24.6C100.344 24.6 100.804 24.48 101.204 24.24C101.618 24 101.944 23.66 102.184 23.22C102.438 22.7667 102.564 22.2333 102.564 21.62C102.564 20.9933 102.438 20.46 102.184 20.02C101.944 19.58 101.618 19.24 101.204 19C100.804 18.76 100.344 18.64 99.8245 18.64C99.3045 18.64 98.8378 18.76 98.4245 19C98.0111 19.24 97.6845 19.58 97.4445 20.02C97.2045 20.46 97.0845 20.9933 97.0845 21.62C97.0845 22.2333 97.2045 22.7667 97.4445 23.22C97.6845 23.66 98.0111 24 98.4245 24.24C98.8378 24.48 99.3045 24.6 99.8245 24.6ZM112.933 27.16C111.786 27.16 110.766 26.92 109.873 26.44C108.993 25.96 108.293 25.3067 107.773 24.48C107.266 23.64 107.013 22.6867 107.013 21.62C107.013 20.54 107.266 19.5867 107.773 18.76C108.293 17.92 108.993 17.2667 109.873 16.8C110.766 16.32 111.786 16.08 112.933 16.08C114.066 16.08 115.08 16.32 115.973 16.8C116.866 17.2667 117.566 17.9133 118.073 18.74C118.58 19.5667 118.833 20.5267 118.833 21.62C118.833 22.6867 118.58 23.64 118.073 24.48C117.566 25.3067 116.866 25.96 115.973 26.44C115.08 26.92 114.066 27.16 112.933 27.16ZM112.933 24.6C113.453 24.6 113.92 24.48 114.333 24.24C114.746 24 115.073 23.66 115.313 23.22C115.553 22.7667 115.673 22.2333 115.673 21.62C115.673 20.9933 115.553 20.46 115.313 20.02C115.073 19.58 114.746 19.24 114.333 19C113.92 18.76 113.453 18.64 112.933 18.64C112.413 18.64 111.946 18.76 111.533 19C111.12 19.24 110.786 19.58 110.533 20.02C110.293 20.46 110.173 20.9933 110.173 21.62C110.173 22.2333 110.293 22.7667 110.533 23.22C110.786 23.66 111.12 24 111.533 24.24C111.946 24.48 112.413 24.6 112.933 24.6ZM120.919 27V16.24H123.899V19.28L123.479 18.4C123.799 17.64 124.312 17.0667 125.019 16.68C125.725 16.28 126.585 16.08 127.599 16.08V18.96C127.465 18.9467 127.345 18.94 127.239 18.94C127.132 18.9267 127.019 18.92 126.899 18.92C126.045 18.92 125.352 19.1667 124.819 19.66C124.299 20.14 124.039 20.8933 124.039 21.92V27H120.919ZM135.351 27V24.9L135.151 24.44V20.68C135.151 20.0133 134.944 19.4933 134.531 19.12C134.131 18.7467 133.511 18.56 132.671 18.56C132.097 18.56 131.531 18.6533 130.971 18.84C130.424 19.0133 129.957 19.2533 129.571 19.56L128.451 17.38C129.037 16.9667 129.744 16.6467 130.571 16.42C131.397 16.1933 132.237 16.08 133.091 16.08C134.731 16.08 136.004 16.4667 136.911 17.24C137.817 18.0133 138.271 19.22 138.271 20.86V27H135.351ZM132.071 27.16C131.231 27.16 130.511 27.02 129.911 26.74C129.311 26.4467 128.851 26.0533 128.531 25.56C128.211 25.0667 128.051 24.5133 128.051 23.9C128.051 23.26 128.204 22.7 128.511 22.22C128.831 21.74 129.331 21.3667 130.011 21.1C130.691 20.82 131.577 20.68 132.671 20.68H135.531V22.5H133.011C132.277 22.5 131.771 22.62 131.491 22.86C131.224 23.1 131.091 23.4 131.091 23.76C131.091 24.16 131.244 24.48 131.551 24.72C131.871 24.9467 132.304 25.06 132.851 25.06C133.371 25.06 133.837 24.94 134.251 24.7C134.664 24.4467 134.964 24.08 135.151 23.6L135.631 25.04C135.404 25.7333 134.991 26.26 134.391 26.62C133.791 26.98 133.017 27.16 132.071 27.16ZM146.978 27V13H149.658L155.618 22.88H154.198L160.058 13H162.718L162.758 27H159.718L159.698 17.66H160.258L155.578 25.52H154.118L149.338 17.66H150.018V27H146.978ZM172.46 27V24.9L172.26 24.44V20.68C172.26 20.0133 172.053 19.4933 171.64 19.12C171.24 18.7467 170.62 18.56 169.78 18.56C169.207 18.56 168.64 18.6533 168.08 18.84C167.533 19.0133 167.067 19.2533 166.68 19.56L165.56 17.38C166.147 16.9667 166.853 16.6467 167.68 16.42C168.507 16.1933 169.347 16.08 170.2 16.08C171.84 16.08 173.113 16.4667 174.02 17.24C174.927 18.0133 175.38 19.22 175.38 20.86V27H172.46ZM169.18 27.16C168.34 27.16 167.62 27.02 167.02 26.74C166.42 26.4467 165.96 26.0533 165.64 25.56C165.32 25.0667 165.16 24.5133 165.16 23.9C165.16 23.26 165.313 22.7 165.62 22.22C165.94 21.74 166.44 21.3667 167.12 21.1C167.8 20.82 168.687 20.68 169.78 20.68H172.64V22.5H170.12C169.387 22.5 168.88 22.62 168.6 22.86C168.333 23.1 168.2 23.4 168.2 23.76C168.2 24.16 168.353 24.48 168.66 24.72C168.98 24.9467 169.413 25.06 169.96 25.06C170.48 25.06 170.947 24.94 171.36 24.7C171.773 24.4467 172.073 24.08 172.26 23.6L172.74 25.04C172.513 25.7333 172.1 26.26 171.5 26.62C170.9 26.98 170.127 27.16 169.18 27.16ZM178.204 27V16.24H181.184V19.28L180.764 18.4C181.084 17.64 181.597 17.0667 182.304 16.68C183.01 16.28 183.87 16.08 184.884 16.08V18.96C184.75 18.9467 184.63 18.94 184.524 18.94C184.417 18.9267 184.304 18.92 184.184 18.92C183.33 18.92 182.637 19.1667 182.104 19.66C181.584 20.14 181.324 20.8933 181.324 21.92V27H178.204ZM191.51 27.16C190.243 27.16 189.257 26.84 188.55 26.2C187.843 25.5467 187.49 24.58 187.49 23.3V13.86H190.61V23.26C190.61 23.7133 190.73 24.0667 190.97 24.32C191.21 24.56 191.537 24.68 191.95 24.68C192.443 24.68 192.863 24.5467 193.21 24.28L194.05 26.48C193.73 26.7067 193.343 26.88 192.89 27C192.45 27.1067 191.99 27.16 191.51 27.16ZM185.83 18.88V16.48H193.29V18.88H185.83ZM195.801 27V16.24H198.921V27H195.801ZM197.361 14.74C196.788 14.74 196.321 14.5733 195.961 14.24C195.601 13.9067 195.421 13.4933 195.421 13C195.421 12.5067 195.601 12.0933 195.961 11.76C196.321 11.4267 196.788 11.26 197.361 11.26C197.935 11.26 198.401 11.42 198.761 11.74C199.121 12.0467 199.301 12.4467 199.301 12.94C199.301 13.46 199.121 13.8933 198.761 14.24C198.415 14.5733 197.948 14.74 197.361 14.74ZM208.357 16.08C209.21 16.08 209.97 16.2533 210.637 16.6C211.317 16.9333 211.85 17.4533 212.237 18.16C212.624 18.8533 212.817 19.7467 212.817 20.84V27H209.697V21.32C209.697 20.4533 209.504 19.8133 209.117 19.4C208.744 18.9867 208.21 18.78 207.517 18.78C207.024 18.78 206.577 18.8867 206.177 19.1C205.79 19.3 205.484 19.6133 205.257 20.04C205.044 20.4667 204.937 21.0133 204.937 21.68V27H201.817V16.24H204.797V19.22L204.237 18.32C204.624 17.6 205.177 17.0467 205.897 16.66C206.617 16.2733 207.437 16.08 208.357 16.08ZM219.265 27.16C218.345 27.16 217.458 27.0533 216.605 26.84C215.765 26.6133 215.098 26.3333 214.605 26L215.645 23.76C216.138 24.0667 216.718 24.32 217.385 24.52C218.065 24.7067 218.732 24.8 219.385 24.8C220.105 24.8 220.612 24.7133 220.905 24.54C221.212 24.3667 221.365 24.1267 221.365 23.82C221.365 23.5667 221.245 23.38 221.005 23.26C220.778 23.1267 220.472 23.0267 220.085 22.96C219.698 22.8933 219.272 22.8267 218.805 22.76C218.352 22.6933 217.892 22.6067 217.425 22.5C216.958 22.38 216.532 22.2067 216.145 21.98C215.758 21.7533 215.445 21.4467 215.205 21.06C214.978 20.6733 214.865 20.1733 214.865 19.56C214.865 18.88 215.058 18.28 215.445 17.76C215.845 17.24 216.418 16.8333 217.165 16.54C217.912 16.2333 218.805 16.08 219.845 16.08C220.578 16.08 221.325 16.16 222.085 16.32C222.845 16.48 223.478 16.7133 223.985 17.02L222.945 19.24C222.425 18.9333 221.898 18.7267 221.365 18.62C220.845 18.5 220.338 18.44 219.845 18.44C219.152 18.44 218.645 18.5333 218.325 18.72C218.005 18.9067 217.845 19.1467 217.845 19.44C217.845 19.7067 217.958 19.9067 218.185 20.04C218.425 20.1733 218.738 20.28 219.125 20.36C219.512 20.44 219.932 20.5133 220.385 20.58C220.852 20.6333 221.318 20.72 221.785 20.84C222.252 20.96 222.672 21.1333 223.045 21.36C223.432 21.5733 223.745 21.8733 223.985 22.26C224.225 22.6333 224.345 23.1267 224.345 23.74C224.345 24.4067 224.145 25 223.745 25.52C223.345 26.0267 222.765 26.4267 222.005 26.72C221.258 27.0133 220.345 27.16 219.265 27.16ZM238.854 27.24C237.774 27.24 236.767 27.0667 235.834 26.72C234.914 26.36 234.114 25.8533 233.434 25.2C232.754 24.5467 232.221 23.78 231.834 22.9C231.461 22.02 231.274 21.0533 231.274 20C231.274 18.9467 231.461 17.98 231.834 17.1C232.221 16.22 232.754 15.4533 233.434 14.8C234.127 14.1467 234.934 13.6467 235.854 13.3C236.774 12.94 237.781 12.76 238.874 12.76C240.087 12.76 241.181 12.9733 242.154 13.4C243.141 13.8133 243.967 14.4267 244.634 15.24L242.554 17.16C242.074 16.6133 241.541 16.2067 240.954 15.94C240.367 15.66 239.727 15.52 239.034 15.52C238.381 15.52 237.781 15.6267 237.234 15.84C236.687 16.0533 236.214 16.36 235.814 16.76C235.414 17.16 235.101 17.6333 234.874 18.18C234.661 18.7267 234.554 19.3333 234.554 20C234.554 20.6667 234.661 21.2733 234.874 21.82C235.101 22.3667 235.414 22.84 235.814 23.24C236.214 23.64 236.687 23.9467 237.234 24.16C237.781 24.3733 238.381 24.48 239.034 24.48C239.727 24.48 240.367 24.3467 240.954 24.08C241.541 23.8 242.074 23.38 242.554 22.82L244.634 24.74C243.967 25.5533 243.141 26.1733 242.154 26.6C241.181 27.0267 240.081 27.24 238.854 27.24ZM251.351 27.16C250.204 27.16 249.184 26.92 248.291 26.44C247.411 25.96 246.711 25.3067 246.191 24.48C245.684 23.64 245.431 22.6867 245.431 21.62C245.431 20.54 245.684 19.5867 246.191 18.76C246.711 17.92 247.411 17.2667 248.291 16.8C249.184 16.32 250.204 16.08 251.351 16.08C252.484 16.08 253.498 16.32 254.391 16.8C255.284 17.2667 255.984 17.9133 256.491 18.74C256.998 19.5667 257.251 20.5267 257.251 21.62C257.251 22.6867 256.998 23.64 256.491 24.48C255.984 25.3067 255.284 25.96 254.391 26.44C253.498 26.92 252.484 27.16 251.351 27.16ZM251.351 24.6C251.871 24.6 252.338 24.48 252.751 24.24C253.164 24 253.491 23.66 253.731 23.22C253.971 22.7667 254.091 22.2333 254.091 21.62C254.091 20.9933 253.971 20.46 253.731 20.02C253.491 19.58 253.164 19.24 252.751 19C252.338 18.76 251.871 18.64 251.351 18.64C250.831 18.64 250.364 18.76 249.951 19C249.538 19.24 249.204 19.58 248.951 20.02C248.711 20.46 248.591 20.9933 248.591 21.62C248.591 22.2333 248.711 22.7667 248.951 23.22C249.204 23.66 249.538 24 249.951 24.24C250.364 24.48 250.831 24.6 251.351 24.6ZM259.336 27V16.24H262.316V19.28L261.896 18.4C262.216 17.64 262.73 17.0667 263.436 16.68C264.143 16.28 265.003 16.08 266.016 16.08V18.96C265.883 18.9467 265.763 18.94 265.656 18.94C265.55 18.9267 265.436 18.92 265.316 18.92C264.463 18.92 263.77 19.1667 263.236 19.66C262.716 20.14 262.456 20.8933 262.456 21.92V27H259.336ZM267.891 27V16.24H270.871V19.28L270.451 18.4C270.771 17.64 271.285 17.0667 271.991 16.68C272.698 16.28 273.558 16.08 274.571 16.08V18.96C274.438 18.9467 274.318 18.94 274.211 18.94C274.105 18.9267 273.991 18.92 273.871 18.92C273.018 18.92 272.325 19.1667 271.791 19.66C271.271 20.14 271.011 20.8933 271.011 21.92V27H267.891ZM281.688 27.16C280.462 27.16 279.382 26.92 278.448 26.44C277.528 25.96 276.815 25.3067 276.308 24.48C275.802 23.64 275.548 22.6867 275.548 21.62C275.548 20.54 275.795 19.5867 276.288 18.76C276.795 17.92 277.482 17.2667 278.348 16.8C279.215 16.32 280.195 16.08 281.288 16.08C282.342 16.08 283.288 16.3067 284.128 16.76C284.982 17.2 285.655 17.84 286.148 18.68C286.642 19.5067 286.888 20.5 286.888 21.66C286.888 21.78 286.882 21.92 286.868 22.08C286.855 22.2267 286.842 22.3667 286.828 22.5H278.088V20.68H285.188L283.988 21.22C283.988 20.66 283.875 20.1733 283.648 19.76C283.422 19.3467 283.108 19.0267 282.708 18.8C282.308 18.56 281.842 18.44 281.308 18.44C280.775 18.44 280.302 18.56 279.888 18.8C279.488 19.0267 279.175 19.3533 278.948 19.78C278.722 20.1933 278.608 20.6867 278.608 21.26V21.74C278.608 22.3267 278.735 22.8467 278.988 23.3C279.255 23.74 279.622 24.08 280.088 24.32C280.568 24.5467 281.128 24.66 281.768 24.66C282.342 24.66 282.842 24.5733 283.268 24.4C283.708 24.2267 284.108 23.9667 284.468 23.62L286.128 25.42C285.635 25.98 285.015 26.4133 284.268 26.72C283.522 27.0133 282.662 27.16 281.688 27.16ZM277.208 14.86L279.848 11.98H282.608L285.248 14.86H282.968L280.208 12.46H282.248L279.488 14.86H277.208ZM295.272 27V24.9L295.072 24.44V20.68C295.072 20.0133 294.866 19.4933 294.452 19.12C294.052 18.7467 293.432 18.56 292.592 18.56C292.019 18.56 291.452 18.6533 290.892 18.84C290.346 19.0133 289.879 19.2533 289.492 19.56L288.372 17.38C288.959 16.9667 289.666 16.6467 290.492 16.42C291.319 16.1933 292.159 16.08 293.012 16.08C294.652 16.08 295.926 16.4667 296.832 17.24C297.739 18.0133 298.192 19.22 298.192 20.86V27H295.272ZM291.992 27.16C291.152 27.16 290.432 27.02 289.832 26.74C289.232 26.4467 288.772 26.0533 288.452 25.56C288.132 25.0667 287.972 24.5133 287.972 23.9C287.972 23.26 288.126 22.7 288.432 22.22C288.752 21.74 289.252 21.3667 289.932 21.1C290.612 20.82 291.499 20.68 292.592 20.68H295.452V22.5H292.932C292.199 22.5 291.692 22.62 291.412 22.86C291.146 23.1 291.012 23.4 291.012 23.76C291.012 24.16 291.166 24.48 291.472 24.72C291.792 24.9467 292.226 25.06 292.772 25.06C293.292 25.06 293.759 24.94 294.172 24.7C294.586 24.4467 294.886 24.08 295.072 23.6L295.552 25.04C295.326 25.7333 294.912 26.26 294.312 26.62C293.712 26.98 292.939 27.16 291.992 27.16Z" fill="#602817"/>
<path d="M105.967 43.946H111.147V44.842H105.967V43.946ZM106.079 49H105.043V39.2H111.763V40.096H106.079V49ZM113.693 49V41.65H114.687V49H113.693ZM114.197 40.026C113.991 40.026 113.819 39.956 113.679 39.816C113.539 39.676 113.469 39.508 113.469 39.312C113.469 39.116 113.539 38.9527 113.679 38.822C113.819 38.682 113.991 38.612 114.197 38.612C114.402 38.612 114.575 38.6773 114.715 38.808C114.855 38.9387 114.925 39.102 114.925 39.298C114.925 39.5033 114.855 39.676 114.715 39.816C114.584 39.956 114.411 40.026 114.197 40.026ZM119.426 49.07C118.82 49.07 118.246 48.986 117.704 48.818C117.163 48.6407 116.738 48.4213 116.43 48.16L116.878 47.376C117.177 47.6 117.56 47.796 118.026 47.964C118.493 48.1227 118.983 48.202 119.496 48.202C120.196 48.202 120.7 48.0947 121.008 47.88C121.316 47.656 121.47 47.362 121.47 46.998C121.47 46.7273 121.382 46.5173 121.204 46.368C121.036 46.2093 120.812 46.0927 120.532 46.018C120.252 45.934 119.94 45.864 119.594 45.808C119.249 45.752 118.904 45.6867 118.558 45.612C118.222 45.5373 117.914 45.43 117.634 45.29C117.354 45.1407 117.126 44.94 116.948 44.688C116.78 44.436 116.696 44.1 116.696 43.68C116.696 43.2787 116.808 42.9193 117.032 42.602C117.256 42.2847 117.583 42.0373 118.012 41.86C118.451 41.6733 118.983 41.58 119.608 41.58C120.084 41.58 120.56 41.6453 121.036 41.776C121.512 41.8973 121.904 42.0607 122.212 42.266L121.778 43.064C121.452 42.84 121.102 42.6813 120.728 42.588C120.355 42.4853 119.982 42.434 119.608 42.434C118.946 42.434 118.456 42.5507 118.138 42.784C117.83 43.008 117.676 43.2973 117.676 43.652C117.676 43.932 117.76 44.1513 117.928 44.31C118.106 44.4687 118.334 44.5947 118.614 44.688C118.904 44.772 119.216 44.842 119.552 44.898C119.898 44.954 120.238 45.024 120.574 45.108C120.92 45.1827 121.232 45.29 121.512 45.43C121.802 45.5607 122.03 45.752 122.198 46.004C122.376 46.2467 122.464 46.5687 122.464 46.97C122.464 47.3993 122.343 47.7727 122.1 48.09C121.867 48.398 121.522 48.6407 121.064 48.818C120.616 48.986 120.07 49.07 119.426 49.07ZM124.288 49V41.65H125.282V49H124.288ZM124.792 40.026C124.587 40.026 124.414 39.956 124.274 39.816C124.134 39.676 124.064 39.508 124.064 39.312C124.064 39.116 124.134 38.9527 124.274 38.822C124.414 38.682 124.587 38.612 124.792 38.612C124.998 38.612 125.17 38.6773 125.31 38.808C125.45 38.9387 125.52 39.102 125.52 39.298C125.52 39.5033 125.45 39.676 125.31 39.816C125.18 39.956 125.007 40.026 124.792 40.026ZM131.044 49.07C130.335 49.07 129.695 48.9113 129.126 48.594C128.566 48.2673 128.123 47.824 127.796 47.264C127.469 46.6947 127.306 46.046 127.306 45.318C127.306 44.5807 127.469 43.932 127.796 43.372C128.123 42.812 128.566 42.3733 129.126 42.056C129.686 41.7387 130.325 41.58 131.044 41.58C131.772 41.58 132.416 41.7387 132.976 42.056C133.545 42.3733 133.989 42.812 134.306 43.372C134.633 43.932 134.796 44.5807 134.796 45.318C134.796 46.046 134.633 46.6947 134.306 47.264C133.989 47.824 133.545 48.2673 132.976 48.594C132.407 48.9113 131.763 49.07 131.044 49.07ZM131.044 48.188C131.576 48.188 132.047 48.0713 132.458 47.838C132.869 47.5953 133.191 47.2593 133.424 46.83C133.667 46.3913 133.788 45.8873 133.788 45.318C133.788 44.7393 133.667 44.2353 133.424 43.806C133.191 43.3767 132.869 43.0453 132.458 42.812C132.047 42.5693 131.581 42.448 131.058 42.448C130.535 42.448 130.069 42.5693 129.658 42.812C129.247 43.0453 128.921 43.3767 128.678 43.806C128.435 44.2353 128.314 44.7393 128.314 45.318C128.314 45.8873 128.435 46.3913 128.678 46.83C128.921 47.2593 129.247 47.5953 129.658 47.838C130.069 48.0713 130.531 48.188 131.044 48.188ZM139.149 49.07C138.459 49.07 137.927 48.8833 137.553 48.51C137.18 48.1367 136.993 47.6093 136.993 46.928V40.026H137.987V46.872C137.987 47.3013 138.095 47.6327 138.309 47.866C138.533 48.0993 138.851 48.216 139.261 48.216C139.7 48.216 140.064 48.09 140.353 47.838L140.703 48.552C140.507 48.7293 140.269 48.86 139.989 48.944C139.719 49.028 139.439 49.07 139.149 49.07ZM135.677 42.476V41.65H140.227V42.476H135.677ZM145.375 49.07C144.61 49.07 143.938 48.9113 143.359 48.594C142.781 48.2673 142.328 47.824 142.001 47.264C141.675 46.6947 141.511 46.046 141.511 45.318C141.511 44.59 141.665 43.946 141.973 43.386C142.291 42.826 142.72 42.3873 143.261 42.07C143.812 41.7433 144.428 41.58 145.109 41.58C145.8 41.58 146.411 41.7387 146.943 42.056C147.485 42.364 147.909 42.8027 148.217 43.372C148.525 43.932 148.679 44.5807 148.679 45.318C148.679 45.3647 148.675 45.416 148.665 45.472C148.665 45.5187 148.665 45.57 148.665 45.626H142.267V44.884H148.133L147.741 45.178C147.741 44.646 147.625 44.1747 147.391 43.764C147.167 43.344 146.859 43.0173 146.467 42.784C146.075 42.5507 145.623 42.434 145.109 42.434C144.605 42.434 144.153 42.5507 143.751 42.784C143.35 43.0173 143.037 43.344 142.813 43.764C142.589 44.184 142.477 44.6647 142.477 45.206V45.36C142.477 45.92 142.599 46.4147 142.841 46.844C143.093 47.264 143.439 47.5953 143.877 47.838C144.325 48.0713 144.834 48.188 145.403 48.188C145.851 48.188 146.267 48.1087 146.649 47.95C147.041 47.7913 147.377 47.5487 147.657 47.222L148.217 47.866C147.891 48.258 147.48 48.5567 146.985 48.762C146.5 48.9673 145.963 49.07 145.375 49.07ZM150.702 49V41.65H151.654V43.652L151.556 43.302C151.762 42.742 152.107 42.3173 152.592 42.028C153.078 41.7293 153.68 41.58 154.398 41.58V42.546C154.361 42.546 154.324 42.546 154.286 42.546C154.249 42.5367 154.212 42.532 154.174 42.532C153.4 42.532 152.793 42.77 152.354 43.246C151.916 43.7127 151.696 44.38 151.696 45.248V49H150.702ZM160.271 49V47.376L160.229 47.11V44.394C160.229 43.7687 160.052 43.288 159.697 42.952C159.352 42.616 158.834 42.448 158.143 42.448C157.667 42.448 157.215 42.5273 156.785 42.686C156.356 42.8447 155.992 43.0547 155.693 43.316L155.245 42.574C155.619 42.2567 156.067 42.014 156.589 41.846C157.112 41.6687 157.663 41.58 158.241 41.58C159.193 41.58 159.926 41.818 160.439 42.294C160.962 42.7607 161.223 43.4747 161.223 44.436V49H160.271ZM157.737 49.07C157.187 49.07 156.706 48.9813 156.295 48.804C155.894 48.6173 155.586 48.3653 155.371 48.048C155.157 47.7213 155.049 47.348 155.049 46.928C155.049 46.5453 155.138 46.2 155.315 45.892C155.502 45.5747 155.801 45.3227 156.211 45.136C156.631 44.94 157.191 44.842 157.891 44.842H160.425V45.584H157.919C157.21 45.584 156.715 45.71 156.435 45.962C156.165 46.214 156.029 46.5267 156.029 46.9C156.029 47.32 156.193 47.656 156.519 47.908C156.846 48.16 157.303 48.286 157.891 48.286C158.451 48.286 158.932 48.16 159.333 47.908C159.744 47.6467 160.043 47.2733 160.229 46.788L160.453 47.474C160.267 47.9593 159.94 48.3467 159.473 48.636C159.016 48.9253 158.437 49.07 157.737 49.07ZM167.717 49.07C167.082 49.07 166.508 48.9253 165.995 48.636C165.482 48.3373 165.071 47.9127 164.763 47.362C164.464 46.802 164.315 46.1207 164.315 45.318C164.315 44.5153 164.464 43.8387 164.763 43.288C165.062 42.728 165.468 42.3033 165.981 42.014C166.494 41.7247 167.073 41.58 167.717 41.58C168.417 41.58 169.042 41.7387 169.593 42.056C170.153 42.364 170.592 42.8027 170.909 43.372C171.226 43.932 171.385 44.5807 171.385 45.318C171.385 46.0647 171.226 46.718 170.909 47.278C170.592 47.838 170.153 48.2767 169.593 48.594C169.042 48.9113 168.417 49.07 167.717 49.07ZM163.923 51.716V41.65H164.875V43.862L164.777 45.332L164.917 46.816V51.716H163.923ZM167.647 48.188C168.17 48.188 168.636 48.0713 169.047 47.838C169.458 47.5953 169.784 47.2593 170.027 46.83C170.27 46.3913 170.391 45.8873 170.391 45.318C170.391 44.7487 170.27 44.2493 170.027 43.82C169.784 43.3907 169.458 43.0547 169.047 42.812C168.636 42.5693 168.17 42.448 167.647 42.448C167.124 42.448 166.653 42.5693 166.233 42.812C165.822 43.0547 165.496 43.3907 165.253 43.82C165.02 44.2493 164.903 44.7487 164.903 45.318C164.903 45.8873 165.02 46.3913 165.253 46.83C165.496 47.2593 165.822 47.5953 166.233 47.838C166.653 48.0713 167.124 48.188 167.647 48.188ZM173.411 49V41.65H174.405V49H173.411ZM173.915 40.026C173.71 40.026 173.537 39.956 173.397 39.816C173.257 39.676 173.187 39.508 173.187 39.312C173.187 39.116 173.257 38.9527 173.397 38.822C173.537 38.682 173.71 38.612 173.915 38.612C174.121 38.612 174.293 38.6773 174.433 38.808C174.573 38.9387 174.643 39.102 174.643 39.298C174.643 39.5033 174.573 39.676 174.433 39.816C174.303 39.956 174.13 40.026 173.915 40.026ZM181.777 49V47.376L181.735 47.11V44.394C181.735 43.7687 181.558 43.288 181.203 42.952C180.858 42.616 180.34 42.448 179.649 42.448C179.173 42.448 178.72 42.5273 178.291 42.686C177.862 42.8447 177.498 43.0547 177.199 43.316L176.751 42.574C177.124 42.2567 177.572 42.014 178.095 41.846C178.618 41.6687 179.168 41.58 179.747 41.58C180.699 41.58 181.432 41.818 181.945 42.294C182.468 42.7607 182.729 43.4747 182.729 44.436V49H181.777ZM179.243 49.07C178.692 49.07 178.212 48.9813 177.801 48.804C177.4 48.6173 177.092 48.3653 176.877 48.048C176.662 47.7213 176.555 47.348 176.555 46.928C176.555 46.5453 176.644 46.2 176.821 45.892C177.008 45.5747 177.306 45.3227 177.717 45.136C178.137 44.94 178.697 44.842 179.397 44.842H181.931V45.584H179.425C178.716 45.584 178.221 45.71 177.941 45.962C177.67 46.214 177.535 46.5267 177.535 46.9C177.535 47.32 177.698 47.656 178.025 47.908C178.352 48.16 178.809 48.286 179.397 48.286C179.957 48.286 180.438 48.16 180.839 47.908C181.25 47.6467 181.548 47.2733 181.735 46.788L181.959 47.474C181.772 47.9593 181.446 48.3467 180.979 48.636C180.522 48.9253 179.943 49.07 179.243 49.07ZM188.547 45.64V44.772H192.215V45.64H188.547ZM200.371 49.084C199.661 49.084 198.989 48.972 198.355 48.748C197.729 48.5147 197.225 48.2067 196.843 47.824L197.333 47.026C197.65 47.3527 198.075 47.6233 198.607 47.838C199.148 48.0527 199.736 48.16 200.371 48.16C201.183 48.16 201.803 47.9827 202.233 47.628C202.671 47.2733 202.891 46.7973 202.891 46.2C202.891 45.6027 202.676 45.1267 202.247 44.772C201.827 44.4173 201.159 44.24 200.245 44.24H199.545V43.498L202.569 39.704L202.709 40.096H197.249V39.2H203.549V39.914L200.525 43.708L200.035 43.386H200.413C201.589 43.386 202.466 43.6473 203.045 44.17C203.633 44.6927 203.927 45.3647 203.927 46.186C203.927 46.7367 203.796 47.2313 203.535 47.67C203.273 48.1087 202.877 48.454 202.345 48.706C201.822 48.958 201.164 49.084 200.371 49.084ZM205.097 49V48.286L209.171 44.296C209.544 43.932 209.824 43.6147 210.011 43.344C210.197 43.064 210.323 42.8027 210.389 42.56C210.454 42.3173 210.487 42.0887 210.487 41.874C210.487 41.3047 210.291 40.8567 209.899 40.53C209.516 40.2033 208.947 40.04 208.191 40.04C207.612 40.04 207.099 40.1287 206.651 40.306C206.212 40.4833 205.834 40.7587 205.517 41.132L204.803 40.516C205.185 40.068 205.675 39.7227 206.273 39.48C206.87 39.2373 207.537 39.116 208.275 39.116C208.937 39.116 209.511 39.2233 209.997 39.438C210.482 39.6433 210.855 39.9467 211.117 40.348C211.387 40.7493 211.523 41.2207 211.523 41.762C211.523 42.0793 211.476 42.392 211.383 42.7C211.299 43.008 211.14 43.3347 210.907 43.68C210.683 44.016 210.351 44.3987 209.913 44.828L206.175 48.496L205.895 48.104H211.971V49H205.097ZM217.226 49.084C216.358 49.084 215.626 48.8927 215.028 48.51C214.431 48.118 213.978 47.558 213.67 46.83C213.362 46.0927 213.208 45.2107 213.208 44.184C213.208 43.0733 213.395 42.1447 213.768 41.398C214.151 40.642 214.678 40.0727 215.35 39.69C216.022 39.3073 216.802 39.116 217.688 39.116C218.127 39.116 218.547 39.158 218.948 39.242C219.35 39.326 219.704 39.4613 220.012 39.648L219.606 40.46C219.354 40.292 219.065 40.1753 218.738 40.11C218.412 40.0353 218.066 39.998 217.702 39.998C216.648 39.998 215.803 40.334 215.168 41.006C214.543 41.678 214.23 42.6813 214.23 44.016C214.23 44.2213 214.24 44.478 214.258 44.786C214.286 45.0847 214.342 45.3833 214.426 45.682L214.076 45.416C214.179 44.9307 214.38 44.52 214.678 44.184C214.977 43.8387 215.35 43.5773 215.798 43.4C216.246 43.2227 216.736 43.134 217.268 43.134C217.922 43.134 218.496 43.2553 218.99 43.498C219.485 43.7407 219.872 44.0813 220.152 44.52C220.432 44.9587 220.572 45.4767 220.572 46.074C220.572 46.6807 220.428 47.2127 220.138 47.67C219.849 48.118 219.448 48.468 218.934 48.72C218.43 48.9627 217.861 49.084 217.226 49.084ZM217.184 48.23C217.651 48.23 218.062 48.146 218.416 47.978C218.78 47.8007 219.065 47.5533 219.27 47.236C219.476 46.9093 219.578 46.5313 219.578 46.102C219.578 45.458 219.354 44.9447 218.906 44.562C218.468 44.1793 217.87 43.988 217.114 43.988C216.61 43.988 216.172 44.0813 215.798 44.268C215.425 44.4547 215.131 44.7113 214.916 45.038C214.702 45.3553 214.594 45.7193 214.594 46.13C214.594 46.4847 214.692 46.8253 214.888 47.152C215.084 47.4693 215.374 47.7307 215.756 47.936C216.148 48.132 216.624 48.23 217.184 48.23ZM224.792 39.116C225.66 39.116 226.392 39.312 226.99 39.704C227.587 40.0867 228.04 40.642 228.348 41.37C228.656 42.098 228.81 42.98 228.81 44.016C228.81 45.1173 228.618 46.046 228.236 46.802C227.862 47.558 227.34 48.1273 226.668 48.51C225.996 48.8927 225.216 49.084 224.33 49.084C223.891 49.084 223.471 49.042 223.07 48.958C222.678 48.874 222.323 48.7387 222.006 48.552L222.412 47.74C222.664 47.908 222.953 48.0293 223.28 48.104C223.616 48.1693 223.961 48.202 224.316 48.202C225.37 48.202 226.21 47.866 226.836 47.194C227.47 46.522 227.788 45.5187 227.788 44.184C227.788 43.9693 227.774 43.7127 227.746 43.414C227.727 43.1153 227.676 42.8167 227.592 42.518L227.942 42.784C227.848 43.2693 227.648 43.6847 227.34 44.03C227.041 44.366 226.668 44.6227 226.22 44.8C225.781 44.9773 225.291 45.066 224.75 45.066C224.106 45.066 223.532 44.9447 223.028 44.702C222.533 44.4593 222.146 44.1187 221.866 43.68C221.586 43.2413 221.446 42.7233 221.446 42.126C221.446 41.51 221.59 40.978 221.88 40.53C222.169 40.082 222.566 39.7367 223.07 39.494C223.583 39.242 224.157 39.116 224.792 39.116ZM224.834 39.97C224.367 39.97 223.952 40.0587 223.588 40.236C223.233 40.404 222.953 40.6467 222.748 40.964C222.542 41.2813 222.44 41.6593 222.44 42.098C222.44 42.742 222.659 43.2553 223.098 43.638C223.546 44.0207 224.148 44.212 224.904 44.212C225.408 44.212 225.846 44.1187 226.22 43.932C226.602 43.7453 226.896 43.4887 227.102 43.162C227.316 42.8353 227.424 42.4713 227.424 42.07C227.424 41.706 227.326 41.3653 227.13 41.048C226.934 40.7307 226.644 40.474 226.262 40.278C225.879 40.0727 225.403 39.97 224.834 39.97ZM231.884 49L236.112 39.648L236.42 40.096H230.358L230.876 39.606V41.93H229.882V39.2H237.078V39.914L232.976 49H231.884ZM241.24 49.084C240.54 49.084 239.873 48.972 239.238 48.748C238.603 48.5147 238.099 48.2067 237.726 47.824L238.216 47.026C238.524 47.3527 238.944 47.6233 239.476 47.838C240.017 48.0527 240.601 48.16 241.226 48.16C242.057 48.16 242.687 47.978 243.116 47.614C243.555 47.2407 243.774 46.7553 243.774 46.158C243.774 45.738 243.671 45.3787 243.466 45.08C243.27 44.772 242.934 44.534 242.458 44.366C241.982 44.198 241.329 44.114 240.498 44.114H238.412L238.916 39.2H244.278V40.096H239.322L239.84 39.606L239.406 43.722L238.888 43.218H240.722C241.711 43.218 242.505 43.3393 243.102 43.582C243.699 43.8247 244.129 44.1653 244.39 44.604C244.661 45.0333 244.796 45.5373 244.796 46.116C244.796 46.6667 244.665 47.1707 244.404 47.628C244.143 48.076 243.751 48.4307 243.228 48.692C242.705 48.9533 242.043 49.084 241.24 49.084ZM246.188 45.64V44.772H249.856V45.64H246.188ZM253.213 43.946H258.393V44.842H253.213V43.946ZM253.325 49H252.289V39.2H259.009V40.096H253.325V49Z" fill="#602817"/>
<path fill-rule="evenodd" clip-rule="evenodd" d="M45.8879 16.1172C42.5135 10.9793 37.3306 7.46182 31.3907 6.27583C25.4866 5.09567 19.3318 6.37354 14.3338 9.81081C9.31105 13.2684 5.87006 18.5756 4.70659 24.6557C4.19733 27.3 4.14425 30.0028 4.53893 32.6653C4.5802 32.9423 4.40692 33.1933 4.13781 33.2537C3.87671 33.3043 3.61482 33.1378 3.54798 32.8722C2.79936 29.6892 2.77144 26.4504 3.31002 23.215C4.59709 16.5081 8.38958 10.6533 13.9299 6.83222C19.4374 3.0413 26.2264 1.62491 32.7427 2.93108C39.2949 4.24307 45.0127 8.11991 48.733 13.788C54.8718 23.1317 54.3524 35.6364 47.3991 44.374C43.1882 49.678 37.1469 53.0189 30.5011 53.7253C29.7892 53.7803 29.083 53.7985 28.376 53.8078C25.7413 53.8275 23.56 53.5619 21.1069 52.5965C20.8599 52.501 20.7301 52.223 20.8052 51.9627C20.8804 51.7024 21.1419 51.5522 21.4033 51.6101C23.9671 52.2125 26.6091 52.3823 29.2183 52.1657C35.2327 51.5252 40.7079 48.4977 44.5276 43.6906C50.8965 35.6756 51.5402 24.735 45.8799 16.127L45.8879 16.1172Z" fill="#602817"/>
<path fill-rule="evenodd" clip-rule="evenodd" d="M29.3103 37.3334C30.2534 37.2161 31.1171 37.9016 31.2316 38.8667C31.3462 39.8317 30.6764 40.7156 29.7334 40.8329C28.7903 40.9501 27.9266 40.2647 27.8121 39.2996C27.6975 38.3345 28.3673 37.4506 29.3103 37.3334Z" fill="#602817"/>
<path fill-rule="evenodd" clip-rule="evenodd" d="M28.5793 32.1236C29.584 31.9973 30.5006 32.7279 30.624 33.7561C30.7473 34.7843 30.0335 35.7223 29.0288 35.8486C28.024 35.9748 27.1075 35.2443 26.9841 34.2161C26.8607 33.1878 27.5746 32.2498 28.5793 32.1236Z" fill="#602817"/>
<path fill-rule="evenodd" clip-rule="evenodd" d="M27.09 27.4348C28.0507 27.3175 28.9232 28.012 29.0378 28.9951C29.1524 29.9782 28.4737 30.8712 27.5131 30.9884C26.5524 31.1057 25.6799 30.4112 25.5653 29.4281C25.4508 28.4449 26.1294 27.552 27.09 27.4348Z" fill="#602817"/>
<path fill-rule="evenodd" clip-rule="evenodd" d="M25.1156 22.9025C26.0058 22.7943 26.8078 23.4347 26.9223 24.3456C27.0281 25.2566 26.4024 26.0774 25.5122 26.1946C24.6221 26.3028 23.8201 25.6625 23.7055 24.7515C23.5997 23.8406 24.2255 23.0198 25.1156 22.9025Z" fill="#602817"/>
<path fill-rule="evenodd" clip-rule="evenodd" d="M23.7053 18.6987C24.4809 18.5995 25.1859 19.1678 25.2829 19.9615C25.3798 20.7552 24.8246 21.4767 24.049 21.5759C23.2734 21.6751 22.5684 21.1069 22.4714 20.3132C22.3745 19.5195 22.9297 18.798 23.7053 18.6987Z" fill="#602817"/>
<path fill-rule="evenodd" clip-rule="evenodd" d="M22.3926 14.8527C23.0448 14.7716 23.6353 15.2496 23.7146 15.908C23.7939 16.5754 23.3268 17.1797 22.6835 17.2609C22.0313 17.3421 21.4408 16.8731 21.3615 16.2056C21.2821 15.5382 21.7404 14.9339 22.3926 14.8527Z" fill="#602817"/>
<path fill-rule="evenodd" clip-rule="evenodd" d="M28.8351 42.3843C29.4608 42.3031 30.0337 42.7631 30.113 43.4035C30.1923 44.0439 29.7428 44.6301 29.1171 44.7113C28.4913 44.7925 27.9185 44.3325 27.8392 43.6921C27.7598 43.0517 28.2093 42.4655 28.8351 42.3843Z" fill="#602817"/>
<path fill-rule="evenodd" clip-rule="evenodd" d="M22.031 11.3897C22.5598 11.3265 23.0445 11.7054 23.1062 12.2465C23.1679 12.7877 22.7977 13.2837 22.2689 13.3469C21.7401 13.41 21.2554 13.0312 21.1937 12.49C21.132 11.9489 21.5022 11.4528 22.031 11.3897Z" fill="#602817"/>
<path fill-rule="evenodd" clip-rule="evenodd" d="M22.8241 8.40433C23.2736 8.35022 23.679 8.67491 23.7319 9.12588C23.7847 9.58587 23.4675 10.0008 23.0268 10.0549C22.5773 10.109 22.1719 9.78429 22.119 9.33332C22.0662 8.87334 22.3834 8.45845 22.8241 8.40433Z" fill="#602817"/>
<path fill-rule="evenodd" clip-rule="evenodd" d="M27.8123 45.9914C28.3235 45.9283 28.7818 46.2981 28.8523 46.8212C28.914 47.3443 28.5526 47.8133 28.0415 47.8855C27.5303 47.9486 27.072 47.5788 27.0015 47.0557C26.9398 46.5326 27.3011 46.0635 27.8123 45.9914Z" fill="#602817"/>
</svg>
