<svg width="652" height="734" viewBox="0 0 652 734" fill="none" xmlns="http://www.w3.org/2000/svg">
<path d="M422.977 34.1797V321.427H609.681V34.1797H422.977ZM602.79 314.537H429.868V41.069H602.79V314.537Z" fill="#EBEBEB"/>
<path d="M602.79 41.0625H429.868V314.529H602.79V41.0625Z" fill="white"/>
<path d="M429.861 181.242L602.785 181.242V174.354L429.861 174.354V181.242Z" fill="#EBEBEB"/>
<path d="M395 341H622V321H395V341Z" fill="#DBDBDB"/>
<path d="M429.862 41.0625H602.787V217.993H429.862V41.0625ZM596.407 47.4409H436.24V211.613H596.407V47.4409Z" fill="#DBDBDB"/>
<path d="M547.596 41.0625H544.152V211.613H547.596V41.0625Z" fill="#DBDBDB"/>
<path d="M488.495 41.0625H485.051V211.613H488.495V41.0625Z" fill="#DBDBDB"/>
<path d="M41.6987 34.1797V321.427H228.401V34.1797H41.6987ZM221.51 314.537H48.5881V41.069H221.51V314.537Z" fill="#EBEBEB"/>
<path d="M221.511 41.0625H48.5884V314.529H221.511V41.0625Z" fill="white"/>
<path d="M48.5825 181.242L221.506 181.242V174.354L48.5825 174.354V181.242Z" fill="#EBEBEB"/>
<path d="M29.0073 341.188H241.08V321.418H29.0073V341.188Z" fill="#DBDBDB"/>
<path d="M48.5825 41.0625H221.508V217.993H48.5825V41.0625ZM215.128 47.4409H54.9609V211.613H215.126L215.128 47.4409Z" fill="#DBDBDB"/>
<path d="M166.317 41.0625H162.873V211.613H166.317V41.0625Z" fill="#DBDBDB"/>
<path d="M107.215 41.0625H103.771V211.613H107.215V41.0625Z" fill="#DBDBDB"/>
<path d="M98.8987 451.117H86.7109V733.25H98.8987V451.117Z" fill="#C7C7C7"/>
<path d="M58.4575 444.375L56.936 444.922L87.8717 530.946L89.3932 530.399L58.4575 444.375Z" fill="#C7C7C7"/>
<path d="M162.843 451.117H150.655V733.25H162.843V451.117Z" fill="#C7C7C7"/>
<path d="M122.396 444.375L120.875 444.922L151.81 530.946L153.332 530.399L122.396 444.375Z" fill="#C7C7C7"/>
<path d="M529.748 451.117H517.561V733.25H529.748V451.117Z" fill="#C7C7C7"/>
<path d="M489.298 444.367L487.776 444.914L518.712 530.938L520.233 530.391L489.298 444.367Z" fill="#C7C7C7"/>
<path d="M593.691 451.117H581.503V733.25H593.691V451.117Z" fill="#C7C7C7"/>
<path d="M553.239 444.359L551.718 444.906L582.653 530.93L584.175 530.383L553.239 444.359Z" fill="#C7C7C7"/>
<path d="M38.6982 433.516V451.117L612.672 451.117V433.516L38.6982 433.516Z" fill="#C7C7C7"/>
<path d="M165.163 391.805H24.5877C15.5124 391.805 8.15576 399.161 8.15576 408.237V417.09C8.15576 426.166 15.5124 433.522 24.5877 433.522H165.163C174.239 433.522 181.595 426.166 181.595 417.09V408.237C181.595 399.161 174.239 391.805 165.163 391.805Z" fill="#EBEBEB"/>
<path d="M626.782 391.805H198.028C188.952 391.805 181.596 399.161 181.596 408.237V417.09C181.596 426.166 188.952 433.522 198.028 433.522H626.782C635.857 433.522 643.214 426.166 643.214 417.09V408.237C643.214 399.161 635.857 391.805 626.782 391.805Z" fill="#EBEBEB"/>
<path d="M214.719 593.056L275.975 642.073C275.975 642.073 392.846 502.104 396.56 484.141C400.781 463.717 412.531 303.749 412.259 295.776C411.93 286.108 401.281 243.617 401.281 243.617H325.34C325.34 243.617 314.717 452.813 312.505 459.292C310.126 466.262 214.719 593.056 214.719 593.056Z" fill="#FFC727"/>
<path d="M281.959 626.224C272.169 616.775 233.984 586.448 229.237 583.963C229.132 583.908 228.987 584.089 229.063 584.18C232.515 588.28 265.005 614.96 281.71 626.535C281.886 626.657 282.114 626.375 281.959 626.224Z" fill="#263238"/>
<path d="M405.037 275.068C404.023 274.63 402.97 274.643 401.949 274.345C400.875 274.033 399.806 273.656 398.746 273.123C396.747 272.117 394.733 270.752 392.894 268.979C390.996 267.149 389.638 264.608 388.396 261.747C387.733 260.222 384.634 252.072 384.606 252.012C384.517 251.823 384.288 251.933 384.327 252.135C384.54 253.262 386.666 260.296 387.295 262.056C388.479 265.365 389.926 268.348 391.987 270.458C394.002 272.52 396.228 273.938 398.469 274.825C399.622 275.283 400.794 275.621 401.95 275.758C402.996 275.881 404.165 276.065 405.124 275.577C405.292 275.488 405.181 275.129 405.037 275.068Z" fill="#263238"/>
<path d="M337.865 247.328L336.267 289.343L334.453 331.347L330.413 415.337C329.651 429.332 328.904 443.323 328.02 457.321C327.923 459.054 327.781 460.839 327.609 462.645C327.595 462.856 327.588 463.084 327.444 463.447C327.333 463.691 327.224 463.926 327.108 464.122C326.88 464.534 326.641 464.911 326.4 465.291C325.915 466.042 325.414 466.768 324.906 467.491C322.872 470.371 320.762 473.173 318.639 475.965C314.398 481.554 310.034 487.04 305.677 492.531C296.943 503.496 288.139 514.402 279.277 525.259L237.003 578.028L278.616 524.727C287.318 513.742 296.021 502.761 304.618 491.697C308.919 486.169 313.182 480.608 317.412 475.034C319.519 472.241 321.614 469.436 323.611 466.584C324.107 465.871 324.599 465.153 325.06 464.43C325.473 463.698 326.073 462.983 326.033 462.371C326.177 460.686 326.311 458.98 326.403 457.214C327.231 443.237 327.923 429.237 328.628 415.241L333.06 331.276L335.378 289.296L337.865 247.328Z" fill="#263238"/>
<path opacity="0.1" d="M398.08 472.99C397.522 478.14 397.017 481.975 396.566 484.136C394.477 494.219 361.913 536.569 333.481 571.591L313.648 448.754C317.123 405.233 325.335 243.609 325.335 243.609H363.183L398.08 472.99Z" fill="black"/>
<path d="M504.609 711.126C500.622 713.32 379.123 735.162 373.972 733.052C372.001 732.284 350.23 614.1 350.23 614.1L425.683 601.461L441.604 679.153C441.604 679.153 491.851 691.595 497.274 694.51C502.656 697.417 508.601 708.951 504.609 711.126Z" fill="#D3766A"/>
<path d="M504.603 711.121C500.622 713.309 379.13 735.162 373.966 733.047C373.05 732.706 367.906 707.213 362.635 679.928L439.131 667.109L441.604 679.156C441.604 679.156 491.854 691.598 497.269 694.502C502.65 697.407 508.601 708.951 504.603 711.121Z" fill="#EBEBEB"/>
<path d="M461.572 683.9C461.239 683.867 461.055 683.808 461.018 683.719C461.018 683.719 461.221 683.775 461.572 683.9Z" fill="#FFC727"/>
<path d="M506.721 711.528C502.658 713.722 379.173 735.212 373.945 733.055C371.958 732.248 366.792 713.53 364.821 692.181L444.448 678.422C444.448 678.422 493.873 691.625 499.353 694.605C504.806 697.593 510.782 709.334 506.721 711.528Z" fill="#A6A6A6"/>
<path d="M504.089 706.9C483.302 709.994 399.747 724.434 379.433 729.073C379.268 729.11 379.287 729.223 379.456 729.202C400.127 726.586 483.562 711.469 504.149 707.238C504.582 707.149 504.528 706.833 504.089 706.9Z" fill="#263238"/>
<path d="M490.638 691.556C485.693 692.211 481.302 695.377 479.134 698.766C477.051 702.022 475.538 706.355 476.43 710.624C476.456 710.746 476.684 710.709 476.681 710.58C476.453 702.274 482.584 693.876 490.683 691.817C490.846 691.774 490.806 691.534 490.638 691.556Z" fill="#263238"/>
<path d="M451.301 679.375C442.995 680.702 433.899 685.297 429.93 692.969C429.776 693.267 430.2 693.482 430.425 693.312C437.243 688.148 443.862 684.031 451.621 680.371C452.169 680.112 451.896 679.279 451.301 679.375Z" fill="#263238"/>
<path d="M458.133 680.75C449.827 682.076 440.731 686.672 436.761 694.344C436.608 694.642 437.033 694.855 437.256 694.685C444.074 689.521 450.693 685.405 458.453 681.744C458.999 681.485 458.726 680.654 458.133 680.75Z" fill="#263238"/>
<path d="M464.962 682.133C456.656 683.46 447.56 688.055 443.59 695.727C443.437 696.024 443.862 696.238 444.085 696.068C450.903 690.904 457.521 686.787 465.282 683.127C465.828 682.87 465.557 682.037 464.962 682.133Z" fill="#263238"/>
<path d="M471.791 683.523C463.486 684.849 454.389 689.446 450.42 697.118C450.266 697.415 450.69 697.628 450.915 697.46C457.733 692.296 464.352 688.18 472.111 684.519C472.658 684.26 472.386 683.428 471.791 683.523Z" fill="#263238"/>
<path d="M381.283 708.498C371.992 710.142 374.532 724.584 383.839 722.938C393.129 721.292 390.589 706.85 381.283 708.498Z" fill="white"/>
<path d="M456.41 655.709C451.611 652.962 446.919 657.279 444.961 661.34C441.79 667.918 440.34 676.615 441.119 683.837C441.139 684.015 441.284 684.062 441.42 684.03C441.7 684.592 442.489 684.969 443.025 684.439C448.214 679.331 454.395 674.516 457.862 667.97C459.886 664.146 460.948 658.309 456.41 655.709ZM449.308 675.088C446.817 677.662 444.215 680.097 441.821 682.762C442.582 678.375 443.15 673.979 444.353 669.672C444.927 667.617 445.556 665.517 446.406 663.557C447.73 660.506 454.657 652.167 457.05 661.038C458.369 665.929 452.277 672.02 449.308 675.088Z" fill="#263238"/>
<path d="M421.068 690.489C428.475 690.342 435.558 686.994 442.455 684.661C443.172 684.418 443.19 683.547 442.813 683.042C442.903 682.937 442.926 682.785 442.777 682.688C436.68 678.738 428.261 676.117 420.961 675.986C416.454 675.906 410.486 678.15 410.777 683.673C411.053 688.895 416.745 690.575 421.068 690.489ZM415.246 686.645C408.403 680.514 418.969 678.085 422.289 678.276C424.423 678.399 426.58 678.784 428.674 679.196C433.06 680.061 437.243 681.534 441.502 682.829C438.043 683.767 434.698 684.992 431.277 686.058C427.201 687.329 419.018 690.025 415.246 686.645Z" fill="#263238"/>
<path d="M386.168 243.594C386.168 243.594 384.173 276.06 375.207 299.19C375.207 299.19 362.279 307.245 360.931 308.519L441.52 674.574L362.635 689.905C362.635 689.905 327.978 502.538 325.338 491.038C321.105 472.551 287.611 315.412 286.125 306.479C283.017 287.803 300.261 243.594 300.261 243.594H386.168Z" fill="#FFC727"/>
<path d="M433.607 657.916C411.852 660.75 370.207 668.749 365.061 670.762C364.948 670.805 364.99 671.035 365.111 671.035C370.637 671.056 421.356 661.997 433.678 658.309C433.894 658.244 433.828 657.887 433.607 657.916Z" fill="#263238"/>
<path d="M309.967 275.055C311.547 274.704 313.232 274.816 314.837 274.609C316.525 274.392 318.2 274.109 319.844 273.666C322.947 272.832 326.04 271.634 328.815 270.006C331.68 268.326 333.615 265.876 335.335 263.087C336.252 261.601 340.451 253.622 340.49 253.564C340.616 253.38 340.991 253.514 340.949 253.714C340.713 254.837 337.966 261.776 337.124 263.503C335.541 266.749 333.504 269.642 330.402 271.59C327.374 273.495 323.943 274.725 320.444 275.417C318.643 275.773 316.802 276.007 314.965 276.04C313.304 276.067 311.451 276.145 309.873 275.559C309.597 275.458 309.744 275.104 309.967 275.055Z" fill="#263238"/>
<path d="M377.084 298.325C369.891 300.728 362.937 304.17 356.285 307.784C356.025 307.926 356.191 308.33 356.474 308.212C363.478 305.279 370.618 302.476 377.453 299.161C377.991 298.901 377.637 298.141 377.084 298.325Z" fill="#263238"/>
<path d="M379.735 250.467C379.719 250.226 379.296 250.168 379.296 250.428C379.278 258.711 378.683 265.993 377.915 273.728C377.559 277.319 374.487 297.155 368.269 295.649C367.228 295.397 366.705 294.366 366.555 292.791C366.376 290.898 367.108 288.585 367.438 286.708C368.167 282.556 368.76 278.391 369.155 274.194C369.892 266.36 369.997 258.52 369.114 250.697C369.085 250.439 368.714 250.456 368.712 250.716C368.623 261.568 368.241 272.398 366.521 283.132C365.695 288.291 363.022 296.044 368.418 296.888C373.915 297.748 377.592 284.752 378.295 281.195C380.258 271.269 380.431 260.535 379.735 250.467Z" fill="#263238"/>
<path d="M368.429 296.188C367.854 297.515 367.388 298.901 366.99 300.291C366.681 301.373 366.264 302.539 366.377 303.671C366.4 303.891 366.689 303.913 366.807 303.766C367.546 302.846 367.866 301.582 368.285 300.487C368.772 299.218 369.284 297.958 369.732 296.676C370.031 295.826 368.783 295.368 368.429 296.188Z" fill="#263238"/>
<path d="M306.729 243.594C304.575 251.825 302.544 260.087 300.686 268.388C298.848 276.687 297.086 285.025 296.046 293.438L295.752 296.592C295.663 297.643 295.692 298.687 295.655 299.734L296.588 305.976L298.966 318.505L304.045 343.514L324.897 443.454L345.769 543.394L356.134 593.378L370.016 662.843L355.272 593.563L344.414 543.68L323.136 443.821C316.239 410.493 309.278 377.178 302.693 343.784L297.855 318.717L295.593 306.146L294.709 299.758C294.722 297.588 294.909 295.452 295.178 293.329C296.371 284.867 298.279 276.564 300.261 268.286C302.26 260.016 304.434 251.786 306.729 243.594Z" fill="#263238"/>
<path opacity="0.1" d="M408.8 276.057L289.051 279.099C293.335 261.347 300.255 243.594 300.255 243.594H401.275C401.275 243.594 405.55 260.406 408.8 276.057Z" fill="black"/>
<path d="M391.148 143.163C392.965 185.792 407.602 236.158 418.364 243.583C431.874 252.904 455.661 243.583 456.987 229.028C458.308 214.531 427.017 164.131 411.819 140.907C395.22 115.539 390.698 132.621 391.148 143.163Z" fill="#FFBD98"/>
<path d="M395.247 203.285L432.475 167.077C432.475 167.077 419.277 144.558 410.214 133.127C398.222 118 389.794 118.907 388.654 142.543C387.892 158.359 395.247 203.285 395.247 203.285Z" fill="#FFC727"/>
<path d="M395.593 196.087C400.647 190.443 405.77 184.885 411.146 179.547C413.828 176.884 416.547 174.261 419.309 171.681C422.067 169.105 425.099 166.803 427.813 164.192C427.962 164.048 428.185 164.298 428.027 164.434C425.181 166.895 422.64 169.773 419.931 172.389C417.214 175.015 414.505 177.655 411.817 180.308C406.444 185.61 401.055 190.905 395.807 196.328C395.659 196.481 395.457 196.239 395.593 196.087Z" fill="#263238"/>
<path opacity="0.1" d="M427.237 172.168L395.25 203.297C395.25 203.297 387.89 158.372 388.661 142.545C389.24 130.422 391.749 124.287 395.654 123.219L427.237 172.168Z" fill="black"/>
<path d="M412.574 273.446L285.66 267.379C285.188 266.17 318.763 154.086 371.168 120.142C380.402 114.16 397.888 119.613 402.127 126.026C418.858 151.342 412.574 273.446 412.574 273.446Z" fill="#FFC727"/>
<path opacity="0.1" d="M410.539 168.584L398.143 166.728V163.016L410.539 164.872V168.584Z" fill="black"/>
<path d="M369.972 148.102C363.349 167.368 342.927 213.656 327.151 225.855C313.648 236.298 285.655 249.157 270.135 255.453C263.081 258.315 246.476 205.759 255.361 203.287C267.801 199.827 302.755 184.773 304.099 184.12C307.374 182.529 325.339 160.59 348.599 137.644C367.319 119.178 375.298 132.606 369.972 148.102Z" fill="#FFBD98"/>
<path d="M270.134 255.446C264.789 258.198 235.909 271.917 228.133 273.233C220.358 274.547 197.706 276.712 196.094 270.858C194.482 265.005 201.063 263.842 201.063 263.842C201.063 263.842 191.354 263.241 190.267 257.202C189.182 251.161 199.48 249.688 199.48 249.688C199.48 249.688 189.553 248.343 188.901 242.243C188.249 236.143 198.851 236.395 198.851 236.395C198.851 236.395 189.717 235.59 191.295 230.337C193.194 224.018 209.863 227.405 218.339 225.31C220.263 224.834 256.663 212.883 256.663 212.883L270.134 255.446Z" fill="#FFBD98"/>
<path d="M197.94 236.39C210.206 238.852 215.997 237.808 227.501 233.413C227.726 233.327 227.903 233.641 227.677 233.753C216.804 239.082 209.729 241.439 197.792 236.977C197.206 236.76 197.357 236.273 197.94 236.39Z" fill="#263238"/>
<path d="M198.508 249.473C211.47 250.919 217.761 249.84 230.148 246.123C230.324 246.072 230.431 246.363 230.258 246.429C218.411 251.092 211.299 253.283 198.537 250.138C197.96 249.996 197.916 249.407 198.508 249.473Z" fill="#263238"/>
<path d="M201.686 263.628C214.336 264.121 221.285 263.239 232.847 258.086C233.121 257.964 233.323 258.351 233.061 258.5C221.783 264.899 213.119 266.066 201.712 264.015C200.934 263.874 200.891 263.597 201.686 263.628Z" fill="#263238"/>
<path d="M208.221 219.009C215.34 224.171 225.301 220.252 232.999 218.402C233.584 218.262 233.903 218.684 233.922 219.153C236.769 226.199 242.839 235.31 250.659 237.091C250.889 237.143 250.845 237.476 250.609 237.455C241.961 236.681 235.269 228.217 232.643 220.301C224.779 222.322 214.617 225.814 208.169 219.077C208.13 219.038 208.175 218.976 208.221 219.009Z" fill="#263238"/>
<path d="M302 140H357V122H302V140Z" fill="#EBEBEB"/>
<path d="M263.956 161.902C273.396 161.742 297.604 161.34 306.716 161.235L320.8 161.165L320.063 161.902L319.992 143.81L320.799 144.617C311.36 144.588 287.287 144.5 278.166 144.369L263.956 144.193L264.339 143.81L263.956 161.902ZM263.956 161.902L263.573 143.81L263.564 143.432L263.957 143.427C271.049 143.333 285.29 143.17 292.38 143.113L320.802 143.003L321.614 143L321.61 143.81L321.539 161.902L321.536 162.643L320.802 162.64L306.464 162.57C297.406 162.472 273.308 162.062 263.956 161.902Z" fill="#EBEBEB"/>
<path d="M311.712 171.87L363.257 178.195C363.257 178.195 372.538 153.799 375.768 139.574C380.043 120.749 374.056 114.749 354.919 128.671C342.117 137.988 311.712 171.87 311.712 171.87Z" fill="#FFC727"/>
<path d="M359.72 177.765C360.929 177.668 362.129 177.645 363.322 177.666L362.758 178.001C366.179 167.926 369.686 157.911 373.929 148.133C372.753 153.344 371.224 158.45 369.513 163.491C367.749 168.678 365.804 173.802 363.568 178.817C362.274 178.526 360.994 178.193 359.72 177.765Z" fill="#263238"/>
<path d="M370.815 157.393C371.483 156.438 373.192 153.98 373.834 153.055C374.177 152.577 374.487 152.077 374.875 151.594C374.715 152.816 374.187 153.948 373.501 154.952C372.791 155.941 371.918 156.847 370.815 157.393Z" fill="#263238"/>
<path d="M317.544 167.633C325.109 168.034 332.65 168.545 340.18 169.389C343.936 169.811 347.684 170.288 351.425 170.823C355.162 171.358 358.854 172.28 362.591 172.758C362.796 172.784 362.741 173.114 362.536 173.077C358.833 172.401 355 172.225 351.263 171.753C347.514 171.279 343.76 170.823 340.007 170.391C332.51 169.526 325.006 168.645 317.491 167.952C317.279 167.932 317.341 167.622 317.544 167.633Z" fill="#263238"/>
<path d="M379.117 113.682C372.84 124.721 356.811 126.882 346.574 121.447C346.326 121.316 351.205 115.133 353.628 104.031C354.893 98.2344 354.282 92.1617 354.262 86.2257C354.252 83.558 354.234 80.8932 354.285 78.227C354.323 75.6838 354.302 72.8735 355.083 70.4054C357.302 63.39 367.585 63.2654 368.931 64.7787C378.214 75.214 386.264 101.117 379.117 113.682Z" fill="#602817"/>
<path d="M397.707 142.648C390.827 144.627 378.374 134.568 373.242 126.178C372.893 125.601 374.211 101.853 373.983 97.119C373.931 96.1473 404.016 102.904 404.016 102.904C404.016 102.904 401.574 112.966 402.022 121.215C402.067 121.905 404.355 140.73 397.707 142.648Z" fill="#FFBD98"/>
<path d="M404.017 102.914C404.017 102.914 403.72 104.139 403.351 106.084C396.538 122.916 379.918 124.334 373.21 124.177C373.279 118.258 374.174 101.077 373.981 97.1175C373.928 96.1538 404.017 102.914 404.017 102.914Z" fill="#263238"/>
<path d="M373.242 126.187C373.242 126.187 383.423 141.989 398.078 147.187C398.078 147.187 403.243 141.429 402.36 125.68L373.242 126.187Z" fill="#FFBD98"/>
<path d="M377.218 105.665C376.176 111.953 372.812 117.536 367.614 120.917C362.138 124.478 354.804 125.216 348.689 123.19C348.58 123.153 348.509 123.323 348.62 123.365C354.97 125.715 361.712 125.589 367.651 121.961C373.143 118.608 377.144 112.457 377.647 105.731C377.668 105.439 377.267 105.374 377.218 105.665Z" fill="#602817"/>
<path d="M381.153 103.205C380.132 109.483 377.546 114.821 372.801 118.905C368.093 122.955 360.74 126.827 354.498 126.021C354.328 125.998 354.291 126.27 354.461 126.297C361.079 127.321 368.547 123.713 373.552 119.343C377.991 115.467 381.7 109.483 381.618 103.212C381.614 102.922 381.196 102.939 381.153 103.205Z" fill="#602817"/>
<path d="M400.893 57.8834C406.56 67.3322 408.516 98.217 402.882 106.615C394.715 118.788 377.68 124.001 366.412 113.346C355.489 103.019 353.652 62.7226 360.286 54.7144C370.057 42.9196 392.523 43.9253 400.893 57.8834Z" fill="#FFBD98"/>
<path d="M376.247 85.7396C376.258 85.6603 376.417 85.8269 376.42 85.9126C376.496 87.9967 376.934 90.3702 378.863 90.9328C378.923 90.9506 378.924 91.0557 378.853 91.0509C376.535 90.8843 375.985 87.7266 376.247 85.7396Z" fill="#263238"/>
<path d="M377.956 83.4467C381.283 82.9649 382.003 89.6553 378.919 90.1016C375.886 90.5414 375.167 83.8509 377.956 83.4467Z" fill="#263238"/>
<path d="M364.833 87.2837C364.809 87.2061 364.681 87.3985 364.694 87.4842C364.982 89.5489 364.966 91.9628 363.165 92.8537C363.108 92.8812 363.126 92.9846 363.194 92.9669C365.448 92.3977 365.438 89.1932 364.833 87.2837Z" fill="#263238"/>
<path d="M362.749 85.3212C359.389 85.4263 359.847 92.1394 362.961 92.0424C366.025 91.947 365.567 85.2323 362.749 85.3212Z" fill="#263238"/>
<path d="M380.266 80.1039C379.33 79.9729 378.489 79.6948 377.577 79.4701C376.547 79.2163 375.702 79.1193 374.958 78.3011C374.558 77.8614 374.612 76.9915 375.001 76.5646C375.91 75.5671 377.247 75.5671 378.499 75.8225C379.857 76.1006 380.832 76.6617 381.708 77.732C382.557 78.77 381.501 80.2769 380.266 80.1039Z" fill="#602817"/>
<path d="M359.8 82.2229C360.712 81.9723 361.509 81.5891 362.385 81.248C363.373 80.8632 364.2 80.6578 364.832 79.7492C365.171 79.2625 365.006 78.4072 364.565 78.0321C363.537 77.1606 362.209 77.332 361.001 77.7475C359.69 78.1986 358.796 78.8809 358.065 80.0564C357.357 81.1962 358.599 82.5544 359.8 82.2229Z" fill="#602817"/>
<path d="M382.865 103.721C382.488 104.308 382.152 105.075 381.429 105.306C380.735 105.527 379.833 105.398 379.128 105.295C379.059 105.285 379.008 105.367 379.063 105.419C379.77 106.079 380.991 106.312 381.895 105.93C382.777 105.558 383.051 104.659 383.08 103.767C383.084 103.642 382.92 103.636 382.865 103.721Z" fill="#263238"/>
<path d="M379.333 98.1207C378.601 100.145 377.149 101.492 375.422 102.258C374.652 102.606 373.808 102.827 372.96 102.942C372.795 102.976 372.628 102.995 372.471 102.997C372.319 103.013 372.18 103.026 372.011 103.031C371.765 103.05 371.59 102.885 371.498 102.67L371.495 102.656C371.479 102.582 371.466 102.522 371.466 102.444C371.466 102.444 371.466 102.444 371.462 102.43L371.425 102.25C371.024 100.696 370.63 98.2824 370.63 98.2824C370.124 98.6995 367.511 100.679 367.369 99.8507C366.221 92.9921 364.945 85.3655 365.251 78.2999C365.249 78.0654 365.601 78.0396 365.634 78.2659C366.997 84.8141 367.2 91.5563 368.466 98.1546C369.315 97.5887 370.681 96.5863 371.504 96.4149C371.741 96.4278 372.182 101.094 372.418 101.776C372.418 101.776 372.424 101.807 372.449 101.847C375.154 101.581 376.953 100.332 379.1 97.9816C379.226 97.8313 379.417 97.9315 379.333 98.1207Z" fill="#263238"/>
<path d="M374.33 101.719C374.33 101.719 376.003 103.061 377.853 103.219C378.535 103.279 379.229 103.192 379.883 102.82C381.229 102.06 380.917 100.724 380.354 99.6605C379.893 98.7841 379.25 98.0938 379.25 98.0938C379.25 98.0938 377.657 100.621 374.33 101.719Z" fill="#263238"/>
<path d="M377.853 103.223C378.535 103.283 379.229 103.195 379.884 102.823C381.229 102.063 380.917 100.728 380.354 99.6641C378.846 100.228 377.588 101.682 377.853 103.223Z" fill="#FF9ABB"/>
<path d="M398.46 83.988C398.46 83.988 402.986 72.861 407.887 74.2628C412.787 75.6646 410.91 90.727 406.229 93.7958C401.55 96.8629 398.625 92.588 398.625 92.588L398.46 83.988Z" fill="#D3766A"/>
<path d="M407.24 78.5585C407.321 78.5327 407.363 78.6442 407.298 78.6895C404.044 80.9579 402.913 84.7122 402.377 88.4616C403.141 86.8917 404.427 85.8343 406.493 86.6993C406.601 86.7446 406.545 86.9111 406.44 86.9127C404.899 86.9321 403.898 87.4285 403.174 88.8303C402.661 89.823 402.42 90.9855 402.137 92.0623C402.042 92.4213 401.424 92.3809 401.463 91.9847C401.466 91.9556 401.47 91.9249 401.473 91.8958C400.341 87.3428 402.438 80.1366 407.24 78.5585Z" fill="#263238"/>
<path d="M455.627 231.755C454.21 243.5 435.879 250.176 387.748 269.898C381.088 272.627 352.541 231.597 359.505 228.316C368.275 224.185 406.673 207.426 409.358 206.717C432.001 200.72 456.695 222.919 455.627 231.755Z" fill="#FFBD98"/>
<path d="M409.356 206.719C419.546 202.951 431.229 205.862 439.667 212.342C430.149 207.918 419.89 205.238 409.356 206.719Z" fill="#263238"/>
<path d="M376.92 220.695C376.92 220.695 373.568 221.533 355.154 223.074C342.422 224.139 312.088 234.873 301.834 269.288C297.905 282.475 305.44 290.989 311.956 278.015C316.544 268.879 318.939 262.151 321.27 259.59C321.27 259.59 324.486 274.908 332.801 278.528C336.517 280.145 346.764 284.323 355.206 286.437C355.206 286.437 356.16 284.722 357.062 282.378C357.062 282.378 370.199 285.996 387.746 269.899L376.92 220.695Z" fill="#FFBD98"/>
<path d="M343.167 226.023C338.507 230.834 328.801 241.191 323.808 252.426C318.263 264.905 310.943 290.44 320.198 294.438C326.984 297.37 330.635 287.867 330.635 287.867C330.635 287.867 329.834 299.059 336.543 300.367C342.656 301.559 345.041 294.039 345.041 294.039C345.041 294.039 345.721 300.912 351.833 300.925C359.183 300.941 356.548 286.535 364.006 280.121C365.68 278.679 343.167 226.023 343.167 226.023Z" fill="#FFBD98"/>
<path d="M337.971 256.09C334.33 261.332 329.114 275.358 330.462 287.645C330.493 287.923 330.719 288.05 330.745 287.79C332.134 273.945 336.09 261.376 338.087 256.142C338.115 256.073 338.011 256.032 337.971 256.09Z" fill="#263238"/>
<path d="M350.406 262.055C347.728 266.901 342.999 281.598 344.794 294.002C344.834 294.28 345.07 294.39 345.085 294.13C345.94 279.606 348.844 267.444 350.527 262.1C350.548 262.029 350.44 261.994 350.406 262.055Z" fill="#263238"/>
<path d="M468.145 374.508H524.989V356.415H468.145V374.508Z" fill="#EBEBEB"/>
<path d="M7.42692 616.562H64.27V598.47H7.42692V616.562Z" fill="#EBEBEB"/>
<path d="M39.1343 41.7031L95.979 41.7031V23.6107L39.1343 23.6107V41.7031Z" fill="#EBEBEB"/>
<path d="M7.42448 64.5134C16.8652 64.355 41.0725 63.9508 50.1849 63.8457L64.2692 63.7761L63.5319 64.5134L63.4608 46.421L64.2676 47.2278C54.8285 47.1987 30.7554 47.1114 21.6349 46.9805L7.42448 46.8042L7.80767 46.421L7.42448 64.5134ZM7.42448 64.5134L7.04129 46.421L7.0332 46.0411L7.42448 46.0362C14.5159 45.9424 28.7586 45.7791 35.8468 45.7226L64.2692 45.6126L65.0808 45.6094L65.0776 46.421L65.0065 64.5134L65.0032 65.2539L64.2692 65.2507L49.9311 65.1812C40.8752 65.0809 16.7763 64.6735 7.42448 64.5134Z" fill="#EBEBEB"/>
<path d="M587.099 41.6931C596.54 41.5347 620.747 41.1304 629.859 41.0254L643.944 40.9558L643.206 41.6931L643.135 23.6007L643.942 24.4075C634.503 24.3784 610.43 24.2911 601.309 24.1601L587.099 23.9839L587.482 23.6007L587.099 41.6931ZM587.099 41.6931L586.716 23.6007L586.708 23.2208L587.099 23.2159C594.19 23.1221 608.433 22.9588 615.521 22.9022L643.944 22.7923L644.755 22.7891L644.752 23.5991L644.681 41.6915L644.678 42.432L643.944 42.4288L629.605 42.3592C620.549 42.2622 596.451 41.8532 587.099 41.6931Z" fill="#EBEBEB"/>
<path opacity="0.1" d="M209.066 733.194C298.714 733.194 371.388 667.186 371.388 585.761C371.388 504.336 298.714 438.328 209.066 438.328C119.418 438.328 46.7437 504.336 46.7437 585.761C46.7437 667.186 119.418 733.194 209.066 733.194Z" fill="black"/>
<path d="M46.7402 585.751C46.7402 667.173 119.414 733.199 209.067 733.199C268.607 733.199 320.648 704.076 348.875 660.69C363.189 638.737 371.394 613.105 371.394 585.751C371.394 504.329 298.721 438.328 209.067 438.328C183.529 438.328 159.384 443.681 137.878 453.231C83.9032 477.165 46.7402 527.508 46.7402 585.751Z" fill="#FFC727"/>
<path opacity="0.7" d="M46.7402 585.751C46.7402 667.173 119.414 733.199 209.067 733.199C268.607 733.199 320.648 704.076 348.875 660.69C363.189 638.737 371.394 613.105 371.394 585.751C371.394 504.329 298.721 438.328 209.067 438.328C183.529 438.328 159.384 443.681 137.878 453.231C83.9032 477.165 46.7402 527.508 46.7402 585.751Z" fill="white"/>
<g opacity="0.5">
<path d="M148.207 449.07C171.693 454.847 193.339 456.946 212.416 456.946C229.016 456.946 243.66 455.366 255.898 453.221C261.581 452.207 266.957 451.051 271.956 449.825C270.541 449.284 269.126 448.74 267.687 448.246C267.687 448.246 267.687 448.246 267.663 448.246C238.777 454.847 198.833 458.409 152.237 447.633C150.871 448.079 149.527 448.574 148.207 449.07Z" fill="#FFC727"/>
<path d="M117.623 463.948C153.017 476.894 185.298 481.138 212.416 481.138C229.016 481.138 243.66 479.558 255.898 477.388C275.209 473.993 290.773 468.876 301.502 464.56C300.653 464.019 299.804 463.5 298.931 462.981C268.49 474.7 202.157 491.796 120.193 462.391C119.32 462.887 118.471 463.406 117.623 463.948Z" fill="#FFC727"/>
<path d="M91.708 483.893C136.11 500.965 176.998 506.86 212.298 506.86C265.731 506.86 306.383 493.373 327.158 484.601C326.545 484.011 325.933 483.423 325.296 482.857C290.632 497.289 202.961 523.745 93.6434 482.102C92.9821 482.69 92.345 483.303 91.708 483.893Z" fill="#FFC727"/>
<path d="M109.322 702.078C111.586 703.705 113.921 705.262 116.302 706.748C151.248 717.359 183.624 721.249 212.297 721.249C246.63 721.249 275.68 715.684 297.562 709.388C297.587 709.365 297.587 709.365 297.609 709.365C300.156 707.857 302.631 706.275 305.061 704.649C264.883 717.546 194.4 730.045 109.322 702.078Z" fill="#FFC727"/>
<path d="M71.6416 507.239C124.861 527.872 173.391 534.497 213.831 534.497C237.411 534.497 258.233 532.258 275.612 529.193C307.422 523.603 332.039 514.714 347.131 508.182C346.683 507.522 346.235 506.885 345.787 506.224C330.79 512.638 306.455 521.387 275.093 526.881C228.334 535.086 156.508 537.468 73.0337 505.281C72.5616 505.943 72.1137 506.58 71.6416 507.239Z" fill="#FFC727"/>
<path d="M73.4805 666.852C74.3293 668.03 75.2024 669.209 76.1224 670.365C127.575 689.654 174.546 695.903 213.832 695.903C237.411 695.903 258.233 693.664 275.612 690.598C303.084 685.764 325.202 678.478 340.435 672.394C341.424 671.169 342.368 669.941 343.288 668.692C328.126 675.012 304.758 683.099 275.093 688.31C228.427 696.491 156.767 698.873 73.4805 666.852Z" fill="#FFC727"/>
<path d="M56.7856 534.621C115.784 558.744 169.617 566.384 214.067 566.384C238.874 566.384 260.756 564.027 279.029 560.796C318.362 553.888 347.224 542.167 361.655 535.401C361.396 534.67 361.089 533.939 360.781 533.208C346.563 539.905 317.795 551.601 278.51 558.51C227.789 567.424 149.008 569.781 57.6814 532.453C57.3742 533.184 57.0686 533.89 56.7856 534.621Z" fill="#FFC727"/>
<path d="M48.8145 562.185C110.948 588.949 167.611 597.272 214.065 597.272C238.872 597.272 260.754 594.915 279.028 591.685C327.58 583.148 360.215 567.279 369.364 562.446C369.221 561.62 369.081 560.819 368.94 560.017C361.064 564.239 328.192 580.674 278.509 589.398C226.231 598.548 144.148 600.812 49.2381 559.781C49.0974 560.582 48.9567 561.384 48.8145 562.185Z" fill="#FFC727"/>
<path d="M47.1172 595.875C47.1883 596.771 47.2578 597.644 47.3532 598.515C110.053 625.067 167.188 633.368 214.207 633.368C239.65 633.368 262.122 630.915 280.892 627.638C326.497 619.62 358.424 605.283 370.709 599.105C370.827 598.21 370.898 597.29 370.968 596.37C359.933 602.006 327.533 617.049 280.372 625.327C227.082 634.665 143.655 636.999 47.1172 595.875Z" fill="#FFC727"/>
<path d="M54.4746 630.875C54.8287 631.889 55.2054 632.856 55.5821 633.869V633.894C115.051 658.394 169.31 666.128 214.066 666.128C238.873 666.128 260.755 663.771 279.029 660.541C318.809 653.561 347.908 641.629 362.149 634.909V634.885C362.572 633.824 362.973 632.786 363.352 631.725C350.218 638.115 320.318 650.919 278.51 658.253C227.2 667.236 147.168 669.571 54.4746 630.875Z" fill="#FFC727"/>
</g>
<path opacity="0.3" d="M46.7402 585.755C46.7402 667.177 119.414 733.202 209.067 733.202C268.607 733.202 320.648 704.08 348.875 660.694C318.362 685.265 267.854 712.877 200.532 705.472C118.497 696.418 24.8919 578.517 137.88 453.234C83.9032 477.168 46.7402 527.512 46.7402 585.755Z" fill="#FFC727"/>
<rect x="280.564" y="661" width="84" height="48" fill="#EBEBEB"/>
<rect x="280.564" y="624" width="84" height="48" fill="#FFD6D0"/>
<path d="M355.989 75.0159C355.961 82.5702 355.818 89.8649 354.144 97.2631C352.471 104.651 349.727 111.973 346.021 118.5C345.947 118.631 346.12 118.779 346.202 118.647C350.148 112.25 353.091 105.441 354.856 98.0167C356.6 90.6861 357.6 82.4846 356.436 74.9603C356.389 74.651 355.99 74.7171 355.989 75.0159Z" fill="#602817"/>
<path d="M0 733.245C208.653 732.256 442.714 732.248 651.367 733.245C442.714 734.243 208.653 734.235 0 733.245Z" fill="#263238"/>
<path d="M30.4672 672.852L9.9043 672.883L9.99483 733.236L30.5577 733.205L30.4672 672.852Z" fill="#455A64"/>
<path d="M9.91594 677.93L0.0322266 677.945L0.10763 728.214L9.99135 728.2L9.91594 677.93Z" fill="#455A64"/>
<path d="M9.91582 677.93L4.97314 677.938L5.04855 728.21L9.99122 728.202L9.91582 677.93Z" fill="#263238"/>
<path d="M112.848 733.07L133.41 733.039L133.319 672.686L112.758 672.717L112.848 733.07Z" fill="#455A64"/>
<path d="M133.403 728.007L143.287 727.992L143.211 677.723L133.328 677.738L133.403 728.007Z" fill="#455A64"/>
<path d="M138.331 677.719L133.389 677.727L133.464 727.999L138.407 727.991L138.331 677.719Z" fill="#263238"/>
<path d="M112.803 693.977L30.4507 694.125L30.4828 711.962L112.835 711.814L112.803 693.977Z" fill="#37474F"/>
<path d="M91.1059 672.852L70.543 672.883L70.6335 733.236L91.1964 733.205L91.1059 672.852Z" fill="#455A64"/>
<path d="M70.5551 677.93L60.6714 677.945L60.7468 728.214L70.6305 728.2L70.5551 677.93Z" fill="#455A64"/>
<path d="M70.555 677.93L65.6123 677.938L65.6877 728.21L70.6304 728.202L70.555 677.93Z" fill="#263238"/>
<path d="M173.488 733.07L194.049 733.039L193.959 672.686L173.397 672.717L173.488 733.07Z" fill="#455A64"/>
<path d="M194.043 728.015L203.927 728L203.851 677.731L193.968 677.746L194.043 728.015Z" fill="#455A64"/>
<path d="M198.971 677.719L194.029 677.727L194.104 727.999L199.047 727.991L198.971 677.719Z" fill="#263238"/>
<path d="M173.442 693.977L91.0903 694.125L91.1224 711.962L173.474 711.814L173.442 693.977Z" fill="#37474F"/>
<path d="M644.251 600.661C641.126 604.048 528.256 665.271 522.622 664.882C521.964 664.867 505.807 642.33 505.807 642.33C504.065 639.182 499.655 634.522 492.148 622.155L434.076 580.978L498.536 534.125L573.093 589.232C573.093 589.232 593.463 588.54 610.162 587.595C610.186 587.603 610.202 587.594 610.212 587.61C620.502 587 629.527 586.65 631.871 587.052C637.972 588.132 647.393 597.306 644.251 600.661Z" fill="#FFD6D0"/>
<path d="M644.252 600.671C641.134 604.05 528.258 665.278 522.62 664.893C521.972 664.876 505.807 642.335 505.807 642.335C504.073 639.183 499.659 634.524 492.146 622.16L481.498 614.611L549.595 571.867L573.095 589.234C573.095 589.234 593.463 588.55 610.17 587.605C610.188 587.605 610.206 587.605 610.206 587.623C620.503 587.01 629.524 586.66 631.87 587.062C637.964 588.131 647.387 597.308 644.252 600.671Z" fill="#EBEBEB"/>
<path d="M644.599 600.405C641.333 603.909 527.088 665.973 521.235 665.588C518.531 665.412 504.635 648.467 490.177 623.105L561.394 578.867L573.672 588.77C573.672 588.77 625.375 585.103 631.749 586.216C638.098 587.343 647.865 596.903 644.599 600.405Z" fill="#FFC727"/>
<path d="M640.477 596.736C621.072 606.669 543.736 648.567 525.307 659.862C525.157 659.954 525.215 660.059 525.373 659.981C544.824 650.555 621.818 608.032 640.649 597.049C641.045 596.818 640.886 596.527 640.477 596.736Z" fill="#263238"/>
<path d="M570.918 585.804C562.646 588.58 554.126 594.837 551.375 603.365C551.269 603.696 551.739 603.842 551.94 603.63C558.034 597.182 564.102 591.84 571.416 586.768C571.932 586.41 571.511 585.607 570.918 585.804Z" fill="#263238"/>
<path d="M578.142 586.055C569.872 588.831 561.349 595.086 558.599 603.615C558.492 603.945 558.963 604.092 559.163 603.88C565.257 597.432 571.325 592.09 578.64 587.018C579.155 586.661 578.734 585.856 578.142 586.055Z" fill="#263238"/>
<path d="M585.366 586.297C577.095 589.073 568.572 595.328 565.824 603.856C565.717 604.185 566.187 604.333 566.388 604.121C572.482 597.673 578.55 592.331 585.864 587.259C586.379 586.903 585.958 586.098 585.366 586.297Z" fill="#263238"/>
<path d="M592.59 586.555C584.318 589.331 575.798 595.586 573.047 604.115C572.941 604.445 573.411 604.592 573.612 604.38C579.705 597.932 585.773 592.59 593.088 587.518C593.602 587.161 593.182 586.356 592.59 586.555Z" fill="#263238"/>
<path d="M575.102 560.765C569.899 558.352 565.433 563.23 563.771 567.601C561.077 574.68 560.348 583.797 561.795 591.193C561.831 591.375 561.986 591.411 562.122 591.364C562.461 591.922 563.308 592.24 563.818 591.645C568.726 585.907 574.688 580.381 577.69 573.307C579.443 569.176 580.023 563.048 575.102 560.765ZM569.483 581.422C567.137 584.303 564.663 587.05 562.424 590.017C562.822 585.416 563.019 580.822 563.881 576.264C564.291 574.09 564.755 571.863 565.46 569.762C566.558 566.492 572.979 557.259 576.238 566.214C578.035 571.154 572.279 577.988 569.483 581.422Z" fill="#263238"/>
<path d="M541.662 599.842C549.303 599.033 556.328 594.944 563.248 591.921C563.966 591.607 563.908 590.703 563.474 590.217C563.559 590.1 563.57 589.942 563.407 589.853C556.755 586.312 547.822 584.349 540.265 584.862C535.599 585.179 529.629 588.028 530.421 593.708C531.17 599.082 537.201 600.314 541.662 599.842ZM535.303 596.385C527.687 590.655 538.392 587.208 541.84 587.111C544.055 587.049 546.32 587.255 548.52 587.496C553.132 588.002 557.583 589.153 562.1 590.113C558.609 591.389 555.259 592.954 551.819 594.358C547.718 596.031 539.502 599.544 535.303 596.385Z" fill="#263238"/>
<path d="M237.961 359.047L246.302 393.87C246.302 393.87 365.248 438.346 396.495 459.771C446.517 494.067 542.174 566.37 542.174 566.37L467.277 614.615C467.277 614.615 355.23 528.832 340.661 521.5C319.849 511.025 184.4 474.623 158.3 454.387C132.201 434.151 150.314 359.787 150.314 359.787L237.961 359.047Z" fill="#263238"/>
<path d="M423.394 581.302C390.259 556.326 349.102 525.749 340.659 521.493C319.854 511.019 184.403 474.626 158.308 454.382C132.194 434.154 150.322 359.79 150.322 359.79L237.959 359.055L246.296 393.872C246.296 393.872 311.5 418.25 358.032 439.601L423.394 581.302Z" fill="#37474F"/>
<path d="M475.725 609.168L474.148 610.183C447.37 590.096 350.59 517.519 341.5 511.547C338.329 509.48 320.728 503.964 298.451 496.992C246.208 480.634 167.274 455.923 158.64 440.003C147.589 419.634 157.344 370.719 159.743 359.703H161.547C159.412 369.598 149.428 419.355 160.181 439.163C168.482 454.469 250.166 480.039 298.959 495.31C322.253 502.614 339.082 507.885 342.463 510.091C351.658 516.117 449.716 589.658 475.725 609.168Z" fill="white"/>
<path d="M483.009 604.485L481.451 605.483C455.25 585.744 355.685 510.768 346.526 504.744C343.339 502.66 325.754 497.266 303.478 490.453C251.935 474.673 174.035 450.819 165.418 434.934C155.592 416.825 163.298 376.193 167.046 359.643L168.85 359.625C165.243 375.721 157.448 416.597 166.958 434.111C175.225 449.366 255.841 474.042 304.003 488.789C327.279 495.9 344.091 501.048 347.472 503.273C356.754 509.368 457.598 585.324 483.009 604.485Z" fill="white"/>
<path d="M366.064 666H280.564C280.564 666 274.001 490.457 269.647 489.181C251.726 483.934 182.939 483.437 144.828 455.899C113.879 433.534 139.456 359.787 139.456 359.787L237.961 359.047L246.303 393.87C246.303 393.87 243.46 396.357 234.571 398.469C234.571 398.469 327.002 425.578 348.391 446.4C367.497 464.998 366.064 666 366.064 666Z" fill="#263238"/>
<path d="M297.351 666H295.564C292.798 648.399 280.998 482.929 278.966 481.931C272.363 479.286 258.581 477.186 242.626 474.751C208.772 469.567 162.413 462.474 146.704 444.225C138.349 434.522 136.353 416.448 140.731 390.51C142.902 377.742 146.178 366.114 148.139 359.721L149.962 359.703C145.268 374.94 131.853 424.259 148.034 443.085C163.323 460.844 209.314 467.884 242.888 473.016C258.948 475.467 272.836 477.587 279.632 480.319C283.241 481.774 295.513 654.284 297.351 666Z" fill="white"/>
<path d="M303.833 666H302.064C298.457 646.262 285.886 478.073 283.766 476.935C276.988 474.22 262.223 471.89 245.114 469.176C208.895 463.431 163.816 456.302 151.643 440.103C143.955 429.875 142.712 411.503 147.965 385.478C149.979 375.514 152.605 366.266 154.673 359.664H156.529C150.54 378.649 139.471 420.997 153.043 439.054C164.778 454.676 211.382 462.066 245.392 467.444C262.59 470.176 277.459 472.522 284.43 475.308C288.214 476.83 301.696 654.179 303.833 666Z" fill="white"/>
<path d="M241.733 395.977C233.963 397.791 226.343 400.716 219.022 403.851C218.734 403.973 218.871 404.413 219.179 404.318C226.802 401.93 234.555 399.692 242.037 396.888C242.624 396.669 242.328 395.837 241.733 395.977Z" fill="#37474F"/>
<path d="M234.339 357.209C234.292 357.034 233.927 357.065 233.964 357.256C235.101 363.358 235.615 368.821 236.045 374.648C236.245 377.353 236.924 390.512 231.557 391.411C228.973 391.843 229.018 387.431 229.034 385.992C229.07 382.811 228.989 379.642 228.738 376.485C228.268 370.591 227.266 364.802 225.434 359.191C225.374 359.007 225.063 359.081 225.097 359.274C226.533 367.28 227.718 375.319 227.765 383.516C227.788 387.455 226.63 393.767 231.277 393.322C237.164 392.758 237.308 382.823 237.405 380.084C237.675 372.436 236.325 364.502 234.339 357.209Z" fill="#37474F"/>
<path d="M230.963 392.185C230.629 393.574 229.971 398.711 230.307 399.774C230.372 399.981 230.676 399.947 230.769 399.783C231.351 398.754 232.189 393.718 232.402 392.398C232.543 391.522 231.169 391.328 230.963 392.185Z" fill="#37474F"/>
<path d="M423.707 733.109C419.152 734.59 289.14 733.476 284.209 730.301C281.931 728.836 280.493 709.706 280.147 680.516L322.436 680.756L364.724 680.996L364.724 687.715C364.724 687.715 414.311 710.406 419.346 714.469C424.353 718.533 428.261 731.63 423.707 733.109Z" fill="#FFC727"/>
<path d="M421.885 727.886C400.097 727.165 312.144 726.31 290.551 727.251C290.375 727.259 290.375 727.379 290.551 727.388C312.133 728.575 400.089 728.719 421.883 728.244C422.343 728.234 422.346 727.902 421.885 727.886Z" fill="#263238"/>
<path d="M367.838 682.895C359.275 681.221 348.776 682.447 342.169 688.502C341.912 688.736 342.25 689.097 342.528 689.011C351.012 686.418 358.928 684.773 367.793 683.978C368.418 683.921 368.451 683.016 367.838 682.895Z" fill="#263238"/>
<path d="M373.995 686.684C365.432 685.01 354.932 686.236 348.328 692.291C348.072 692.525 348.408 692.886 348.688 692.8C357.172 690.205 365.088 688.561 373.953 687.767C374.577 687.712 374.609 686.805 373.995 686.684Z" fill="#263238"/>
<path d="M380.154 690.457C371.591 688.784 361.091 690.009 354.486 696.063C354.231 696.297 354.567 696.658 354.847 696.572C363.33 693.977 371.246 692.334 380.112 691.539C380.736 691.484 380.768 690.577 380.154 690.457Z" fill="#263238"/>
<path d="M386.312 694.254C377.75 692.581 367.25 693.806 360.643 699.861C360.388 700.096 360.724 700.456 361.004 700.37C369.488 697.775 377.404 696.131 386.269 695.337C386.893 695.281 386.925 694.374 386.312 694.254Z" fill="#263238"/>
<path d="M383.846 663.201C380.516 658.531 374.223 660.565 370.617 663.542C364.777 668.365 359.638 675.93 357.241 683.073C357.183 683.25 357.3 683.358 357.44 683.384C357.46 684.035 358.04 684.732 358.776 684.466C365.88 681.903 373.793 680.045 379.898 675.379C383.465 672.659 386.998 667.62 383.846 663.201ZM368.753 678.381C365.29 679.727 361.781 680.892 358.368 682.365C360.988 678.562 363.431 674.666 366.431 671.13C367.864 669.442 369.366 667.736 371.018 666.258C373.589 663.958 383.733 659.104 382.141 668.501C381.263 673.681 372.881 676.779 368.753 678.381Z" fill="#263238"/>
<path d="M335.462 680.648C342.505 683.722 350.633 683.638 358.143 684.432C358.923 684.514 359.319 683.699 359.183 683.062C359.314 683.002 359.401 682.87 359.302 682.713C355.27 676.348 348.473 670.226 341.653 666.936C337.44 664.905 330.843 664.432 328.723 669.761C326.717 674.802 331.351 678.854 335.462 680.648ZM331.643 674.5C327.855 665.754 338.864 668.047 341.91 669.668C343.867 670.71 345.734 672.008 347.527 673.305C351.285 676.023 354.586 679.224 358.038 682.293C354.373 681.677 350.688 681.381 347.003 680.901C342.612 680.328 333.732 679.321 331.643 674.5Z" fill="#263238"/>
<path d="M234.538 271.77C278.228 283.015 331.176 316.197 331.849 331.764C332.597 349.103 283.982 338.311 282.776 335.968C281.864 334.198 250.8 310.438 225.603 286.579C202.327 264.539 223.734 268.989 234.538 271.77Z" fill="#FFD6D0"/>
<path d="M247.498 313.291L283.257 285.547C283.257 285.547 237.981 264.87 222.951 262.546C206.034 259.93 208.396 269.154 217.897 282.362C227.397 295.57 247.498 313.291 247.498 313.291Z" fill="#455A64"/>
<path d="M250.614 271.617C250.437 272.263 250.291 272.942 250.194 273.638C250.679 273.104 251.099 272.538 251.488 271.956C251.197 271.843 250.905 271.73 250.614 271.617ZM238.892 290.792C237.114 290.016 235.287 289.321 233.266 289.046C234.786 290.404 236.516 291.358 238.262 292.183C240.04 292.959 241.867 293.654 243.888 293.929C242.369 292.571 240.655 291.633 238.892 290.792ZM271.197 290.647C269.37 291.358 267.607 292.15 265.974 293.395C268.012 293.282 269.887 292.732 271.73 292.086C273.541 291.374 275.32 290.566 276.937 289.321C274.899 289.45 273.024 290 271.197 290.647ZM219.28 266.216C218.827 266.362 218.375 266.507 217.922 266.669C216.127 267.364 214.333 268.189 212.716 269.401C214.737 269.288 216.629 268.755 218.456 268.092C219.086 267.849 219.701 267.591 220.315 267.316C221.479 266.782 222.595 266.168 223.662 265.359C222.126 265.44 220.687 265.78 219.28 266.216Z" fill="white"/>
<path d="M243.681 306.518C244.777 305.375 255.852 296.637 258.3 294.789C260.75 292.941 270.682 285.295 273.369 283.599C273.489 283.523 273.618 283.672 273.513 283.77C271.204 285.93 261.207 293.672 258.751 295.604C256.297 297.536 245.147 305.939 243.794 306.694C243.681 306.76 243.606 306.597 243.681 306.518Z" fill="#263238"/>
<path opacity="0.1" d="M256.467 306.317L247.494 313.286C247.494 313.286 227.397 295.565 217.89 282.372C210.113 271.555 207.122 263.39 215.61 262.242L219.28 266.22L220.315 267.319L256.467 306.317Z" fill="black"/>
<path d="M244.066 382.5L241.23 352.079C241.23 352.079 255.311 340.724 250.923 325.631C248.712 317.988 231.57 273.068 220.737 262.384C210.575 252.361 191.91 257.871 185.495 264.272C167.048 282.682 151.215 308.354 132.398 374.733L244.066 382.5Z" fill="#455A64"/>
<path d="M223.306 265.391C221.414 265.536 219.652 266.054 217.922 266.668C216.127 267.363 214.332 268.188 212.716 269.4C214.737 269.287 216.628 268.754 218.455 268.091C220.185 267.412 221.867 266.668 223.419 265.536C223.37 265.488 223.338 265.439 223.306 265.391ZM190.743 334.624C188.916 335.335 187.137 336.143 185.52 337.372C187.558 337.259 189.433 336.709 191.276 336.063C193.087 335.367 194.866 334.543 196.482 333.314C194.445 333.427 192.57 333.977 190.743 334.624ZM194.251 379.038L196.677 379.2H196.693C197.097 378.957 197.485 378.682 197.873 378.391C196.612 378.472 195.415 378.715 194.251 379.038ZM145.568 336.483C145.374 335.998 145.18 335.513 144.97 335.028C144.695 335.739 144.453 336.451 144.194 337.178C144.873 338.94 145.682 340.671 146.878 342.239C146.765 340.202 146.215 338.326 145.568 336.483ZM209.433 306.782C208.722 304.955 207.93 303.176 206.701 301.559C206.814 303.596 207.364 305.472 208.027 307.299C208.722 309.126 209.53 310.888 210.759 312.521C210.63 310.484 210.096 308.609 209.433 306.782ZM239.781 372.36C239.086 370.55 238.262 368.771 237.033 367.138C237.146 369.175 237.696 371.051 238.342 372.894C239.054 374.705 239.862 376.483 241.091 378.1C240.978 376.063 240.428 374.204 239.781 372.36ZM169.708 311.826C167.945 311.034 166.102 310.355 164.081 310.064C165.617 311.438 167.315 312.376 169.077 313.217C170.856 313.993 172.699 314.672 174.72 314.963C173.184 313.589 171.486 312.667 169.708 311.826ZM134.978 365.812C134.881 366.136 134.784 366.475 134.687 366.815C135.415 367.025 136.158 367.187 136.934 367.284C136.304 366.734 135.657 366.249 134.978 365.812ZM216.176 355.529C214.397 354.753 212.57 354.058 210.549 353.783C212.069 355.141 213.783 356.079 215.545 356.92C217.324 357.696 219.151 358.391 221.155 358.666C219.652 357.308 217.938 356.37 216.176 355.529ZM236.709 289.918C235.61 289.514 234.462 289.207 233.266 289.045C234.591 290.225 236.063 291.098 237.582 291.842C237.291 291.195 237 290.565 236.709 289.918ZM230.808 329.579C230.016 331.358 229.337 333.185 229.046 335.206C230.42 333.686 231.341 331.972 232.198 330.21C232.974 328.431 233.67 326.62 233.928 324.583C232.586 326.119 231.649 327.817 230.808 329.579ZM168.996 359.232C168.22 361.01 167.525 362.837 167.25 364.858C168.624 363.322 169.546 361.609 170.387 359.846C171.179 358.068 171.858 356.241 172.133 354.22C170.791 355.756 169.837 357.453 168.996 359.232ZM190.678 282.885C189.886 284.663 189.207 286.49 188.932 288.511C190.274 286.992 191.228 285.278 192.052 283.515C192.845 281.737 193.524 279.91 193.799 277.905C192.44 279.425 191.519 281.122 190.678 282.885Z" fill="white"/>
<path d="M222.141 343.772C216.844 343.561 211.502 343.531 206.224 344.106C203.599 344.394 201.004 344.8 198.405 345.262C197.11 345.494 195.814 345.681 194.512 345.861C193.175 346.045 191.746 346.192 190.397 346.043C190.276 346.03 190.253 346.211 190.373 346.231C191.673 346.454 192.92 346.662 194.242 346.711C195.498 346.756 196.768 346.667 198.019 346.543C200.685 346.278 203.337 345.888 206 345.595C211.372 345.004 216.742 344.415 222.144 344.211C222.393 344.203 222.391 343.781 222.141 343.772Z" fill="#263238"/>
<path d="M234.424 350.256C230.193 349.205 225.847 348.34 221.523 347.774C219.347 347.49 217.174 347.335 214.982 347.234C213.935 347.187 212.888 347.158 211.842 347.142C210.689 347.124 209.534 347.262 208.383 347.228C208.264 347.225 208.238 347.409 208.359 347.415C209.444 347.48 210.522 347.726 211.601 347.854C212.686 347.983 213.771 348.103 214.854 348.23C217.025 348.487 219.192 348.767 221.366 349.003C225.719 349.475 230.046 349.989 234.379 350.612C234.613 350.646 234.642 350.31 234.424 350.256Z" fill="#263238"/>
<path d="M184.989 261.909C141.723 274.687 89.9773 309.712 89.8528 325.294C89.7154 342.649 137.92 330.151 139.043 327.767C139.892 325.966 170.101 301.127 194.441 276.396C216.925 253.548 195.688 258.748 184.989 261.909Z" fill="#FFD6D0"/>
<path d="M168.369 308.612L132.398 281.143C132.398 281.143 177.514 260.118 192.526 257.68C209.422 254.934 207.131 264.174 197.733 277.457C188.332 290.739 168.369 308.612 168.369 308.612Z" fill="#455A64"/>
<path d="M149.368 286.297C147.557 287.009 145.779 287.817 144.162 289.046C146.199 288.949 148.075 288.399 149.902 287.736C151.713 287.041 153.507 286.216 155.124 284.988C153.087 285.117 151.212 285.651 149.368 286.297ZM167.978 266.297C167.913 266.135 167.865 265.99 167.784 265.828C167.331 266.022 166.862 266.2 166.394 266.394C166.442 266.54 166.491 266.685 166.539 266.831C167.251 268.641 168.059 270.42 169.288 272.053C169.175 270.016 168.625 268.14 167.978 266.297ZM190.678 282.902C189.935 284.567 189.304 286.265 188.997 288.14C188.965 288.27 188.948 288.399 188.932 288.529C189.482 287.914 189.951 287.267 190.371 286.604C190.387 286.588 190.404 286.588 190.404 286.572C190.404 286.572 190.404 286.556 190.42 286.556C191.034 285.586 191.568 284.567 192.053 283.532C192.845 281.754 193.524 279.927 193.799 277.922C192.441 279.442 191.519 281.14 190.678 282.902Z" fill="white"/>
<path d="M172.134 301.811C171.029 300.676 159.888 292.024 157.425 290.195C154.961 288.367 144.971 280.797 142.271 279.122C142.151 279.047 142.022 279.196 142.129 279.295C144.454 281.437 154.51 289.101 156.981 291.015C159.45 292.929 170.664 301.246 172.022 301.99C172.137 302.052 172.21 301.888 172.134 301.811Z" fill="#263238"/>
<path d="M163.982 305.238C165.534 306.237 167.056 307.278 168.571 308.328L168.155 308.341L179.612 297.312C182.994 294.087 187.736 289.454 191.116 286.305C184.467 294.62 176.824 302.103 168.587 308.837L168.367 309.015C166.889 307.775 165.418 306.53 163.982 305.238Z" fill="#263238"/>
<path d="M182.74 295.061C184.868 293.769 187.091 292.728 189.318 291.656C187.725 293.64 185.248 294.809 182.74 295.061Z" fill="#263238"/>
<path d="M200.957 261.328C201.018 263.357 209.609 274.662 219.022 274.662C222.433 274.662 222.194 265.758 222.194 265.758L229.646 249.066L210.529 230.695C210.529 230.695 200.944 260.468 200.957 261.328Z" fill="#FFD6D0"/>
<path d="M206.996 241.827C209.432 254.943 218.239 262.052 222.609 264.827L229.651 249.069L210.532 230.695C210.532 230.695 208.933 235.722 206.996 241.827Z" fill="#263238"/>
<path d="M226.866 248.866C233.989 260.755 252.182 263.082 263.801 257.229C264.082 257.088 258.544 250.428 255.794 238.472C254.358 232.229 255.052 225.689 255.075 219.296C255.086 216.423 255.107 213.553 255.049 210.682C255.005 207.943 255.029 204.916 254.143 202.258C251.624 194.702 239.954 194.568 238.426 196.198C227.891 207.437 218.754 235.333 226.866 248.866Z" fill="#A6A6A6"/>
<path d="M229.914 240.859C231.097 247.631 234.915 253.644 240.815 257.285C247.03 261.12 255.353 261.916 262.293 259.733C262.417 259.694 262.498 259.877 262.372 259.922C255.164 262.452 247.513 262.316 240.773 258.41C234.54 254.798 229.998 248.174 229.427 240.931C229.403 240.615 229.859 240.546 229.914 240.859Z" fill="#A6A6A6"/>
<path d="M225.448 238.212C226.607 244.974 229.542 250.724 234.928 255.121C240.271 259.484 248.616 263.653 255.701 262.785C255.893 262.761 255.935 263.054 255.743 263.083C248.231 264.185 239.755 260.3 234.076 255.593C229.037 251.419 224.827 244.974 224.921 238.221C224.926 237.909 225.4 237.926 225.448 238.212Z" fill="#A6A6A6"/>
<path d="M253.691 208.247C253.721 216.383 253.885 224.239 255.785 232.207C257.683 240.163 260.797 248.048 265.004 255.078C265.088 255.219 264.891 255.379 264.798 255.237C260.32 248.347 256.979 241.013 254.976 233.018C252.997 225.123 251.862 216.29 253.183 208.187C253.236 207.854 253.689 207.925 253.691 208.247Z" fill="#A6A6A6"/>
<path d="M257.3 226.031C256.081 255.949 238.024 258.597 231.573 258.327C225.717 258.081 205.809 256.503 203.93 226.619C202.051 196.737 216.346 187.844 229.77 187.697C243.193 187.548 258.521 196.113 257.3 226.031Z" fill="#FFD6D0"/>
<path d="M251.569 219.951C250.876 219.815 250.256 219.574 249.585 219.369C248.825 219.138 248.197 219.031 247.674 218.389C247.393 218.045 247.467 217.397 247.776 217.093C248.496 216.384 249.495 216.436 250.42 216.679C251.424 216.941 252.13 217.4 252.743 218.236C253.335 219.046 252.484 220.131 251.569 219.951Z" fill="#A6A6A6"/>
<path d="M231.721 219.133C232.427 219.105 233.075 218.963 233.771 218.863C234.556 218.751 235.194 218.742 235.811 218.19C236.141 217.893 236.168 217.241 235.91 216.894C235.308 216.082 234.312 215.98 233.362 216.077C232.328 216.181 231.559 216.527 230.826 217.257C230.115 217.966 230.788 219.169 231.721 219.133Z" fill="#A6A6A6"/>
<path d="M235.405 226.427C235.393 226.348 235.24 226.514 235.238 226.598C235.193 228.637 234.797 230.966 232.918 231.543C232.86 231.561 232.86 231.662 232.929 231.658C235.194 231.464 235.687 228.367 235.405 226.427Z" fill="#263238"/>
<path d="M233.702 224.2C230.439 223.774 229.828 230.329 232.85 230.723C235.823 231.11 236.434 224.555 233.702 224.2Z" fill="#263238"/>
<path d="M232.381 224.418C231.775 224.735 231.152 225.338 230.455 225.341C229.65 225.346 229.11 224.602 228.649 223.894C228.602 223.821 228.539 223.873 228.53 223.959C228.394 225.213 228.756 226.546 230.085 226.859C231.298 227.145 232.282 226.116 232.714 224.882C232.796 224.654 232.627 224.289 232.381 224.418Z" fill="#263238"/>
<path d="M247.056 227.088C247.078 227.012 247.204 227.2 247.193 227.284C246.923 229.306 246.955 231.667 248.723 232.527C248.778 232.553 248.761 232.655 248.695 232.639C246.487 232.095 246.475 228.96 247.056 227.088Z" fill="#263238"/>
<path d="M249.082 225.149C252.371 225.231 251.965 231.802 248.917 231.726C245.92 231.65 246.325 225.079 249.082 225.149Z" fill="#263238"/>
<path d="M250.425 225.66C250.923 226.04 251.397 226.705 252.015 226.784C252.731 226.876 253.307 226.199 253.808 225.545C253.86 225.477 253.908 225.536 253.906 225.623C253.863 226.881 253.366 228.163 252.146 228.33C251.032 228.481 250.291 227.353 250.068 226.084C250.024 225.851 250.225 225.508 250.425 225.66Z" fill="#263238"/>
<path d="M233.088 242.642C233.454 243.219 233.775 243.971 234.48 244.204C235.158 244.426 236.041 244.306 236.733 244.212C236.801 244.203 236.849 244.285 236.794 244.333C236.099 244.972 234.901 245.192 234.02 244.812C233.158 244.442 232.899 243.559 232.877 242.686C232.873 242.565 233.037 242.558 233.088 242.642Z" fill="#263238"/>
<path d="M242.773 236.888C242.773 236.888 242.654 239.96 242.403 241.375C242.379 241.507 242.025 241.509 241.54 241.451C241.515 241.454 241.501 241.46 241.483 241.443C238.916 241.388 236.555 240.078 235.399 237.769C235.326 237.614 235.532 237.499 235.645 237.611C237.266 239.312 239.263 240.031 241.472 240.463C241.642 240.089 241.501 235.194 241.727 235.218C242.513 235.289 243.942 236.086 244.811 236.518C245.246 230.125 244.651 223.716 245.178 217.357C245.2 217.13 245.533 217.121 245.564 217.331C246.662 224.005 246.324 231.373 246.046 237.986C246.018 238.81 243.297 237.231 242.773 236.888Z" fill="#263238"/>
<g opacity="0.1">
<path d="M241.499 213.519C242.681 213.648 243.856 213.836 245.048 213.795C246.254 213.755 247.434 213.469 248.642 213.456C250.932 213.431 253.055 214.148 255.278 214.956C255.465 215.024 255.433 215.152 255.244 215.09C252.954 214.338 250.611 213.781 248.198 214.072C246.175 214.317 244.348 214.479 242.319 214.162C237.851 213.464 233.382 213.37 229.253 215.532C229.227 215.546 229.203 215.504 229.229 215.491C232.965 213.423 237.341 213.063 241.499 213.519Z" fill="black"/>
<path d="M241.429 210.221C242.55 210.344 243.664 210.522 244.794 210.483C245.937 210.444 247.058 210.173 248.202 210.161C250.374 210.139 252.387 210.818 254.493 211.584C254.673 211.649 254.642 211.77 254.461 211.71C252.291 210.997 250.068 210.467 247.78 210.745C245.861 210.978 244.13 211.131 242.207 210.831C237.971 210.169 233.735 210.08 229.819 212.129C229.795 212.142 229.77 212.103 229.796 212.09C233.339 210.131 237.486 209.788 241.429 210.221Z" fill="black"/>
</g>
<path d="M205.232 229.11C210.762 230.716 214.254 218.019 214.254 218.019C214.254 218.019 238.942 217.747 244.079 198.494C244.079 198.494 246.224 211.624 257.924 219.264C257.924 219.264 260.48 197.669 244.124 190.807C244.124 190.807 224.224 179.781 209.703 194.657C195.182 209.534 201.52 228.032 205.232 229.11Z" fill="#A6A6A6"/>
<path d="M244.39 197.055C244.24 200.091 243.318 203.089 241.904 205.821C240.489 208.554 238.537 211.061 236.115 213.008C235.55 213.543 234.858 213.915 234.235 214.376L233.276 215.034C232.94 215.225 232.596 215.401 232.25 215.576C231.556 215.918 230.877 216.29 230.174 216.604C229.451 216.872 228.722 217.124 227.992 217.369C227.627 217.488 227.268 217.624 226.899 217.729L225.774 217.972L223.533 218.449C222.017 218.623 220.494 218.72 218.988 218.795C220.464 218.41 221.95 218.182 223.396 217.789L225.54 217.136L226.608 216.812C226.956 216.68 227.292 216.518 227.634 216.374C228.313 216.074 228.992 215.781 229.677 215.506C230.337 215.176 230.967 214.791 231.614 214.439L232.579 213.904L233.478 213.265C234.06 212.82 234.712 212.462 235.239 211.949C237.554 210.132 239.412 207.803 240.984 205.307C241.765 204.051 242.426 202.715 242.992 201.334C243.587 199.96 244.038 198.529 244.39 197.055Z" fill="#A6A6A6"/>
<path d="M191.011 210.423C190.331 215.817 188.725 220.828 186.017 225.512C183.795 229.36 181.113 233.114 180.539 237.651C179.521 245.759 186.533 252.138 193.107 256.459C197.503 259.35 207.809 261.119 216.056 259.549C216.46 259.472 201.065 220.399 236.186 187.87C236.338 187.729 217.673 180.808 204.271 188.211C195.542 193.034 192.163 201.285 191.011 210.423Z" fill="#A6A6A6"/>
<path d="M190.974 206.318C192.651 200.093 195.814 194.957 200.698 190.753C200.742 190.714 200.81 190.79 200.766 190.831C195.979 195.257 192.894 200.978 191.299 207.259C189.948 212.587 189.183 218.105 186.116 222.799C184.368 225.473 182.347 227.822 181.427 230.946C180.559 233.892 180.504 237.022 181.133 240.016C182.499 246.521 186.96 251.286 192.365 254.812C192.533 254.922 192.41 255.203 192.224 255.101C182.182 249.601 176.446 236.469 183.091 226.207C185.188 222.968 187.295 220.145 188.47 216.402C189.51 213.094 190.074 209.663 190.974 206.318Z" fill="#A6A6A6"/>
<path d="M200.094 192.374C200.143 192.329 200.222 192.396 200.173 192.444C194.956 197.463 191.924 203.945 191.04 211.089C190.623 214.457 190.435 217.859 189.441 221.125C188.537 224.092 187.046 226.76 185.295 229.305C181.298 235.111 176.571 241.939 182.032 248.521C186.805 254.273 194.581 257.548 201.695 259.119C201.902 259.164 201.843 259.48 201.635 259.442C194.556 258.17 187.088 254.767 182.183 249.37C178.1 244.88 178.449 239.466 181.336 234.412C183.387 230.823 186.204 227.736 187.906 223.937C189.704 219.924 190.032 215.744 190.545 211.445C191.434 203.979 194.506 197.466 200.094 192.374Z" fill="#A6A6A6"/>
<path d="M190.471 208.751C191.996 202.261 194.449 195.537 200.366 191.894C200.442 191.847 200.518 191.96 200.442 192.01C193.365 196.744 191.679 205.538 189.954 213.299C189.1 217.141 188.146 221.031 186.29 224.538C184.431 228.051 181.336 230.845 180 234.633C177.199 242.579 181.92 250.579 188.35 254.737C195.396 259.293 203.498 259.612 211.534 260.889C211.728 260.92 211.718 261.258 211.511 261.25C200.064 260.779 184.895 257.816 180.012 245.835C177.981 240.85 178.384 235.397 181.412 230.835C183.743 227.324 186.193 224.265 187.595 220.213C188.885 216.478 189.571 212.585 190.471 208.751Z" fill="#A6A6A6"/>
<path d="M213.857 227.911C213.857 227.911 208.043 218.101 203.639 220.106C199.235 222.111 203.118 235.99 207.944 238.211C212.769 240.433 214.915 236.006 214.915 236.006L213.857 227.911Z" fill="#FFD6D0"/>
<path d="M204.85 224.056C204.771 224.043 204.747 224.153 204.815 224.187C208.189 225.86 209.778 229.225 210.811 232.669C209.874 231.302 208.517 230.491 206.698 231.593C206.603 231.652 206.679 231.8 206.777 231.787C208.226 231.589 209.237 231.914 210.115 233.128C210.735 233.988 211.125 235.045 211.544 236.015C211.683 236.339 212.258 236.214 212.166 235.847C212.16 235.82 212.15 235.792 212.144 235.765C212.566 231.331 209.583 224.861 204.85 224.056Z" fill="#263238"/>
<path d="M210.225 235.58C210.093 236.309 209.396 236.793 208.667 236.661C207.938 236.529 207.454 235.832 207.586 235.103C207.718 234.374 208.415 233.89 209.144 234.022C209.872 234.153 210.356 234.851 210.225 235.58Z" fill="#FFC727"/>
<path d="M203.52 328.84L180.069 364.059L577.505 637.963L572.268 640.729L172.835 365.461L200.436 323.989L251.839 316.266L584.086 588.077L576.398 588.584L250.316 321.818L203.52 328.84Z" fill="#FFC727"/>
<path opacity="0.2" d="M203.52 328.84L180.069 364.059L577.505 637.963L572.268 640.729L172.835 365.461L200.436 323.989L251.839 316.266L584.086 588.077L576.398 588.584L250.316 321.818L203.52 328.84Z" fill="black"/>
<path d="M91.1109 329.473C94.9363 337.011 101.056 345.46 149.927 352.256C156.688 353.197 181.605 308.613 174.633 306.443C162.708 302.731 133.81 300.433 131.178 300.551C111.58 301.436 87.2903 321.944 91.1109 329.473Z" fill="#FFD6D0"/>
<path d="M220.075 337.557C219.32 342.668 214.038 343.512 214.038 343.512C214.038 343.512 215.797 347.244 214.509 350.991C213.032 355.284 205.656 354.851 205.656 354.851C205.656 354.851 206.656 358.996 204.895 362.819C203.068 366.785 195.562 367.409 195.562 367.409C195.562 367.409 194.372 371.781 190.481 373.993C183.829 377.774 173.546 372.222 166.975 368.759C160.403 365.296 145.006 349.316 141.762 346.568L163.628 304.195C163.628 304.195 197.519 311.342 204.668 316.511C210.69 320.865 220.923 331.821 220.075 337.557Z" fill="#FFD6D0"/>
<path d="M214.097 342.673C208.805 336.507 201.977 332.242 195.405 327.596C195.259 327.493 195.099 327.724 195.246 327.826C201.837 332.369 207.441 338.162 213.837 342.96C214.013 343.091 214.239 342.838 214.097 342.673Z" fill="#263238"/>
<path d="M205.805 354.216C204.567 352.858 202.882 351.91 201.343 350.934C199.685 349.883 198.009 348.859 196.318 347.863C192.93 345.868 189.499 343.951 186.012 342.135C185.857 342.054 185.697 342.271 185.853 342.364C189.225 344.358 192.567 346.403 195.852 348.538C197.495 349.606 199.131 350.688 200.757 351.781C202.271 352.798 203.784 353.996 205.496 354.657C205.75 354.754 205.993 354.421 205.805 354.216Z" fill="#263238"/>
<path d="M195.422 367.314C194.392 366.09 192.623 365.346 191.248 364.574C189.686 363.697 188.129 362.811 186.576 361.917C183.474 360.129 180.371 358.339 177.331 356.444C177.179 356.35 177.021 356.577 177.173 356.674C180.251 358.616 183.302 360.598 186.399 362.512C187.918 363.452 189.443 364.383 190.974 365.306C192.276 366.09 193.812 367.219 195.34 367.473C195.424 367.487 195.474 367.376 195.422 367.314Z" fill="#263238"/>
<path d="M162.707 303.576C158.623 303.287 154.559 302.899 150.494 302.538C146.429 302.183 142.374 301.751 138.309 301.51C134.23 301.171 130.235 300.968 126.198 301.606C122.164 302.141 118.151 302.996 114.159 304.002C118 302.459 121.992 301.337 126.06 300.577C130.128 299.714 134.366 299.924 138.423 300.163C142.507 300.521 146.576 300.933 150.623 301.51C154.669 302.087 158.704 302.736 162.707 303.576Z" fill="#263238"/>
<path d="M331.421 335.876C327.597 343.414 318.313 349.55 285.32 356.231C278.63 357.586 263.202 309.967 270.373 308.592C279.404 306.861 288.724 306.836 291.356 306.956C310.954 307.839 335.242 328.347 331.421 335.876Z" fill="#FFD6D0"/>
<path d="M223.679 334.251C224.154 339.395 229.383 340.526 229.383 340.526C229.383 340.526 227.422 344.155 228.505 347.968C229.745 352.335 237.134 352.304 237.134 352.304C237.134 352.304 235.91 356.39 237.459 360.301C239.066 364.361 246.528 365.394 246.528 365.394C246.528 365.394 247.478 369.824 251.242 372.246C257.677 376.385 268.248 371.402 274.999 368.301C281.75 365.202 297.996 350.086 301.384 347.518L283.256 307.125C283.256 307.125 247.632 309.303 240.211 314.076C233.962 318.095 223.147 328.475 223.679 334.251Z" fill="#FFD6D0"/>
<path d="M229.37 339.691C234.992 333.822 242.041 329.935 248.858 325.655C249.01 325.559 249.157 325.799 249.003 325.893C242.175 330.07 236.264 335.55 229.614 339.99C229.43 340.113 229.218 339.849 229.37 339.691Z" fill="#263238"/>
<path d="M237.019 351.677C238.331 350.389 240.064 349.535 241.655 348.644C243.367 347.685 245.095 346.755 246.84 345.852C250.331 344.044 253.862 342.316 257.442 340.694C257.6 340.621 257.749 340.846 257.587 340.932C254.112 342.739 250.664 344.599 247.267 346.55C245.567 347.527 243.876 348.519 242.192 349.522C240.625 350.455 239.05 351.569 237.302 352.135C237.044 352.219 236.82 351.871 237.019 351.677Z" fill="#263238"/>
<path d="M246.673 365.322C247.767 364.154 249.575 363.509 250.991 362.814C252.598 362.024 254.202 361.225 255.8 360.416C258.996 358.8 262.191 357.183 265.329 355.456C265.486 355.37 265.633 355.606 265.475 355.694C262.296 357.464 259.14 359.278 255.945 361.019C254.377 361.875 252.802 362.722 251.224 363.561C249.882 364.274 248.286 365.317 246.747 365.487C246.66 365.495 246.618 365.38 246.673 365.322Z" fill="#263238"/>
<path d="M253.243 310.376C265.426 307.886 277.864 305.816 290.352 306.523C299.833 308.088 309.716 310.638 317.277 316.829C315.019 315.231 312.576 313.952 310.039 312.906C303.728 310.261 296.968 308.667 290.213 307.684C277.856 307.047 265.506 308.903 253.243 310.376Z" fill="#263238"/>
<path d="M501.282 41.6609C501.282 64.4842 482.771 82.9953 459.947 82.9953C450.725 82.9953 442.209 79.9702 435.323 74.8448L415.074 80.0139L423.504 61.16C420.372 55.3474 418.613 48.6974 418.613 41.6625C418.613 18.8393 437.124 0.328125 459.947 0.328125C482.771 0.326508 501.282 18.8377 501.282 41.6609Z" fill="white"/>
<path d="M501.282 41.6659C501.076 76.6122 461.218 94.9907 435.465 75.4076L415.25 80.706L413.827 81.0795L414.425 79.7294L422.792 60.848L422.818 61.5352C413.305 44.6134 417.923 21.7497 432.949 9.60402C460.132 -12.7892 501.183 6.46898 501.282 41.6659ZM501.282 41.6659C501.414 15.2484 475.558 -4.93619 450.01 2.04369C431.802 6.47221 418.45 24.4951 419.421 43.1792C419.672 49.3119 421.311 55.375 424.189 60.7947L424.371 61.1358L424.215 61.4818L415.724 80.3082L414.901 79.3317L435.182 74.292C462.817 94.268 500.609 76.1595 501.282 41.6659Z" fill="#263238"/>
<path d="M454.071 62.1605L438.634 46.5322L443.821 41.4085L452.839 50.5371L471.575 21.1641L477.722 25.0833L454.071 62.1605Z" fill="#FFC727"/>
<path d="M404.64 87.1506C399.349 88.8046 396.008 75.7243 396.008 75.7243C396.008 75.7243 372.388 75.4445 367.473 55.6101C367.473 55.6101 365.42 69.1367 354.226 77.0069C354.226 77.0069 351.781 54.7606 367.43 47.6916C367.43 47.6916 386.47 36.332 400.363 51.6575C414.256 66.9831 408.192 86.0396 404.64 87.1506Z" fill="#602817"/>
<path d="M405.826 80.8281C405.97 83.9896 406.85 87.1108 408.2 89.9558C409.551 92.8008 411.414 95.4119 413.727 97.4387C414.267 97.996 414.928 98.3832 415.522 98.863L416.437 99.5481C416.758 99.7468 417.087 99.9302 417.417 100.112C418.08 100.469 418.728 100.856 419.4 101.183C420.09 101.462 420.786 101.725 421.482 101.979C421.831 102.104 422.174 102.245 422.525 102.354L423.6 102.607L425.739 103.104C427.187 103.285 428.641 103.386 430.079 103.464C428.669 103.063 427.251 102.826 425.871 102.417L423.824 101.737L422.803 101.4C422.471 101.262 422.15 101.094 421.825 100.944C421.176 100.631 420.528 100.326 419.873 100.04C419.244 99.6962 418.642 99.2956 418.024 98.9286L417.103 98.3714L416.244 97.7064C415.689 97.2435 415.066 96.8697 414.563 96.3361C412.353 94.4439 410.579 92.0197 409.079 89.4205C408.333 88.1124 407.702 86.7219 407.161 85.2842C406.593 83.8533 406.163 82.3634 405.826 80.8281Z" fill="#602817"/>
<path d="M415.11 70.5889C415.762 76.2609 417.298 81.5299 419.89 86.4555C422.016 90.502 424.584 94.45 425.133 99.2208C426.108 107.748 419.397 114.455 413.105 119C408.897 122.04 399.033 123.9 391.14 122.249C390.753 122.167 405.488 81.0793 371.873 46.8722C371.728 46.7243 389.592 39.4456 402.419 47.231C410.774 52.3028 414.008 60.9791 415.11 70.5889Z" fill="#602817"/>
<path d="M414.241 67.3286C412.526 60.4502 409.29 54.7742 404.293 50.129C404.248 50.0862 404.179 50.1701 404.224 50.2148C409.121 55.1065 412.277 61.4275 413.908 68.3684C415.291 74.2552 416.074 80.3529 419.211 85.5394C421 88.4944 423.067 91.0903 424.008 94.542C424.897 97.7972 424.953 101.256 424.309 104.565C422.912 111.752 418.348 117.017 412.818 120.914C412.646 121.036 412.772 121.346 412.962 121.234C423.236 115.156 429.105 100.645 422.306 89.3055C420.161 85.727 418.006 82.6076 416.803 78.4716C415.739 74.8162 415.162 71.0251 414.241 67.3286Z" fill="#602817"/>
<path d="M405.936 50.1336C405.887 50.0845 405.808 50.1564 405.857 50.209C411.064 55.6519 414.089 62.6818 414.972 70.4306C415.388 74.0832 415.575 77.7726 416.568 81.3148C417.47 84.5325 418.957 87.4258 420.705 90.1858C424.694 96.4827 429.412 103.888 423.961 111.026C419.198 117.266 411.438 120.816 404.338 122.521C404.132 122.57 404.19 122.912 404.398 122.872C411.462 121.491 418.915 117.8 423.811 111.947C427.885 107.078 427.537 101.207 424.657 95.7252C422.609 91.8324 419.798 88.4849 418.099 84.3641C416.305 80.0119 415.977 75.479 415.466 70.8164C414.578 62.7186 411.512 55.6554 405.936 50.1336Z" fill="#602817"/>
<path d="M416.952 69.8125C415.455 62.854 413.045 55.6442 407.232 51.7385C407.157 51.6882 407.083 51.8096 407.157 51.8633C414.109 56.9392 415.766 66.3679 417.461 74.689C418.299 78.8079 419.236 82.9788 421.06 86.7389C422.886 90.5059 425.926 93.5015 427.238 97.5632C429.99 106.082 425.353 114.659 419.036 119.118C412.114 124.003 404.156 124.345 396.262 125.714C396.071 125.747 396.081 126.11 396.284 126.101C407.529 125.596 422.43 122.419 427.227 109.573C429.222 104.229 428.826 98.3814 425.851 93.4911C423.561 89.7258 421.155 86.4459 419.778 82.1016C418.51 78.0971 417.837 73.9227 416.952 69.8125Z" fill="#602817"/>
</svg>
