<svg width="357" height="814" viewBox="0 0 357 814" fill="none" xmlns="http://www.w3.org/2000/svg">
<path d="M328.41 64.5969C327.172 62.5353 325.884 60.5116 324.54 58.5339C306.626 32.2131 276.805 14.1926 247.822 6.03181C235.125 2.45107 222.089 0.578101 209.075 0.0993805C123.72 -3.00183 92.3626 67.3757 64.8612 85.5212C37.3605 103.667 -4.841 134.661 0.454741 199.77C4.47309 249.274 32.6346 296.609 84.068 318.149C89.7329 320.529 95.6854 322.594 101.918 324.308C113.511 327.497 126.077 329.499 139.615 330.101C178.501 331.834 210.075 322.46 240.96 298.856C248.139 293.369 255.28 287.18 264.596 286.501C271.369 286.008 277.789 288.441 270.71 294.986C262.391 302.678 271.99 317.807 293.109 307.296C328.381 289.741 342.891 251.864 349.727 213.351C358.118 166.078 354.05 107.288 328.41 64.5969Z" fill="#FFE391"/>
<path d="M198.133 108.863C199.529 117.311 204.033 124.814 210.993 129.357C218.324 134.142 228.143 135.134 236.33 132.411C236.477 132.363 236.572 132.591 236.423 132.647C227.92 135.804 218.895 135.635 210.943 130.761C203.59 126.254 198.232 117.989 197.559 108.952C197.531 108.558 198.068 108.472 198.133 108.863Z" fill="#602817"/>
<path d="M192.864 105.556C194.231 113.993 197.693 121.166 204.047 126.653C210.35 132.096 220.194 137.299 228.552 136.215C228.779 136.185 228.829 136.55 228.602 136.587C219.74 137.962 209.742 133.115 203.041 127.242C197.098 122.034 192.131 113.993 192.242 105.566C192.248 105.177 192.807 105.199 192.864 105.556Z" fill="#602817"/>
<path d="M226.182 68.1749C226.218 78.326 226.411 88.1282 228.652 98.0695C230.891 107.997 234.564 117.835 239.527 126.607C239.626 126.782 239.394 126.982 239.285 126.804C234.002 118.208 230.061 109.058 227.698 99.0822C225.363 89.2317 224.024 78.211 225.583 68.1002C225.646 67.6847 226.18 67.7734 226.182 68.1749Z" fill="#602817"/>
<path d="M194.537 118.854C202.941 133.688 224.402 136.591 238.108 129.288C238.44 129.112 231.907 120.803 228.663 105.885C226.969 98.096 227.788 89.936 227.814 81.9595C227.828 78.3747 227.852 74.794 227.784 71.2112C227.732 67.7939 227.761 64.0175 226.716 60.701C223.744 51.2741 209.977 51.1066 208.174 53.1401C195.746 67.1625 184.968 101.969 194.537 118.854Z" fill="#602817"/>
<path d="M251.41 360.122C253.101 368.072 248.777 379.94 254.778 380.472C260.123 380.947 262.326 372.433 262.326 372.433C262.326 372.433 262.935 382.83 268.831 381.697C274.728 380.564 275.237 370.742 275.237 370.742C275.237 370.742 275.356 379.42 281.159 377.868C286.96 376.316 288.911 368.046 288.911 368.046C288.911 368.046 290.643 370.503 294.25 367.558C299.409 363.344 299.164 348.917 297.254 341.412C295.345 333.908 282.825 307.854 280.833 303.898L232.742 315.788C232.742 315.788 230.003 330.705 229.534 338.438C229.066 346.172 234.57 372.08 241.068 371.144C247.565 370.208 243.368 351.976 243.313 347.29C243.257 342.601 244.329 341.789 245.993 343.884C247.083 345.259 250.662 356.605 251.41 360.122Z" fill="#FFBD98"/>
<path d="M262.227 371.986C264.454 359.907 263.346 354.237 258.874 343.005C258.787 342.787 259.092 342.606 259.205 342.828C264.579 353.424 266.993 360.336 262.803 372.125C262.6 372.701 262.121 372.562 262.227 371.986Z" fill="#263238"/>
<path d="M275.02 371.246C276.241 358.497 275.092 352.335 271.273 340.227C271.22 340.056 271.501 339.947 271.571 340.114C276.309 351.677 278.558 358.63 275.67 371.206C275.54 371.776 274.965 371.83 275.02 371.246Z" fill="#263238"/>
<path d="M288.824 367.903C289.118 355.475 288.151 348.663 282.938 337.387C282.814 337.122 283.189 336.916 283.338 337.171C289.768 348.15 291.037 356.64 289.201 367.871C289.075 368.638 288.805 368.685 288.824 367.903Z" fill="#263238"/>
<path d="M221.181 150.349C247.573 192.614 278.198 292.065 281.617 306.125C283.937 315.667 233.973 329.089 233.364 322.376C232.584 313.779 213.923 205.748 211.282 165.904C209.824 143.931 215.727 141.618 221.181 150.349Z" fill="#FFBD98"/>
<path d="M209.675 175.741C210.506 211.938 229.125 314.328 229.125 314.328L266.916 304.899L285.982 300.132C285.982 300.132 246.21 195.325 228.379 160.026C226.995 157.311 225.716 154.959 224.502 152.97C212.892 133.814 209.036 147.839 209.675 175.741Z" fill="#EBEBEB"/>
<path d="M228.407 303.454C251.06 295.909 276 291.434 280.29 290.341C280.492 290.29 280.552 290.626 280.343 290.666C276.078 291.515 248.123 299.74 228.465 303.811C228.239 303.858 228.188 303.527 228.407 303.454Z" fill="#263238"/>
<path d="M209.677 175.741C210.508 211.938 229.126 314.328 229.126 314.328L266.917 304.899L224.504 152.97C212.894 133.814 209.038 147.839 209.677 175.741Z" fill="#263238"/>
<path d="M171.513 294.016L184.209 485.455L191.218 591.096L202.38 759.594H292.662L292.576 758.547L285.44 671.914L278.474 587.098L254.359 294.016H171.513Z" fill="#FFBD98"/>
<path d="M354.735 809.977C349.938 811.536 209.451 809.409 204.289 806.015C203.671 805.633 203.58 792.894 203.761 775.418L196.92 671.648L285.821 671.914L292.84 761.803C292.84 761.803 312.78 771.039 329.23 779.108C329.251 779.13 329.272 779.128 329.272 779.149C339.397 784.109 348.213 788.623 350.226 790.271C355.475 794.59 359.533 808.44 354.735 809.977Z" fill="#FFBD98"/>
<path d="M354.735 809.973C349.938 811.532 209.451 809.405 204.289 806.012C203.671 805.629 203.58 792.89 203.761 775.414C238.469 783.179 330.998 795.751 333.712 788.445C334.785 785.536 332.581 782.211 329.272 779.147C339.397 784.107 348.213 788.621 350.226 790.269C355.475 794.586 359.533 808.436 354.735 809.973Z" fill="#263238"/>
<path d="M63.4878 762.737H63.5091L154.365 758.91H154.472L172.622 591.951L184.211 485.455L205.023 294.016H121.176L84.0024 596.035L74.544 672.983H74.5227L70.8372 702.979L63.4878 762.737Z" fill="#FFBD98"/>
<path d="M2.213 813.691C7.03595 815.168 147.468 810.667 152.572 807.189C153.184 806.795 153.06 794.057 152.587 776.587L163.13 672.625L74.5338 672.973L63.2923 764.479C63.2923 764.479 43.5106 774.051 27.1969 782.398C27.1756 782.42 27.1543 782.42 27.1543 782.439C17.1143 787.57 8.37589 792.231 6.39047 793.914C1.21603 798.316 -2.60994 812.232 2.213 813.691Z" fill="#FFBD98"/>
<path d="M2.21249 813.689C7.03545 815.167 147.468 810.666 152.572 807.188C153.183 806.794 153.06 794.056 152.587 776.586C118.012 784.935 25.7094 799.067 22.8719 791.809C21.7493 788.918 23.8987 785.557 27.1538 782.436C17.1138 787.567 8.37538 792.228 6.38997 793.91C1.21553 798.315 -2.61044 812.231 2.21249 813.689Z" fill="#263238"/>
<path d="M84.0011 596.019L172.621 591.935L184.209 485.44L191.218 591.08L278.474 587.082L254.359 294H121.174L84.0011 596.019Z" fill="#263238"/>
<path d="M255.891 294H116.807L81.5641 581.331H285.408L255.891 294Z" fill="#455A64"/>
<path d="M246.822 235.571L256.947 305.446C256.947 305.446 143.487 307.127 115.322 305.134C115.322 305.134 138.295 174.508 168.579 141.506C183.727 125 201.511 126.234 212.846 137.773C215.714 140.693 249.934 186.086 253.541 203.428C256.687 218.73 246.822 235.571 246.822 235.571Z" fill="#610B0B"/>
<path d="M173.002 135.72C172.561 134.739 192.665 169.101 203.233 167.78C211.371 166.762 214.074 138.983 212.191 137.176C200.061 125.533 186.824 126.732 173.002 135.72Z" fill="#FFBD98"/>
<path d="M183.727 135.705C184.56 137.847 197.156 150.708 207.179 148.779C210.443 148.144 207.789 130.116 207.789 130.116L207.897 128.739L209.384 109.478L185.529 98.5631L182.106 97.1562C182.106 97.1562 182.046 102.452 182.036 109.048C182.034 109.354 182.032 109.659 182.034 109.987C182.023 110.359 182.008 110.711 182.017 111.06C182.002 112.046 181.993 113.053 182.004 114.053C182.008 114.816 182.01 115.558 182.044 116.358C182.059 117.162 182.089 117.942 182.102 118.748C182.409 126.678 183.386 134.794 183.727 135.705Z" fill="#FFBD98"/>
<path d="M182.034 109.05C189.488 123.133 202.176 127.484 207.895 128.739L209.382 109.478L185.527 98.5631L182.104 97.1562C182.104 97.1562 182.042 102.454 182.034 109.05Z" fill="#263238"/>
<path d="M233.371 80.8065C236.509 114.564 216.717 120.264 209.463 120.933C202.878 121.542 180.381 122.776 173.783 89.5254C167.188 56.2725 181.833 44.137 196.82 41.9434C211.808 39.7498 230.233 47.0469 233.371 80.8065Z" fill="#FFBD98"/>
<path d="M223.704 74.1146C222.909 74.0397 222.189 73.8388 221.411 73.6848C220.534 73.5095 219.816 73.4625 219.155 72.7976C218.802 72.4426 218.812 71.7029 219.123 71.3266C219.85 70.4478 220.979 70.3923 222.044 70.559C223.201 70.7408 224.047 71.1769 224.826 72.0492C225.582 72.8959 224.752 74.2129 223.704 74.1146Z" fill="#41190D"/>
<path d="M201.204 74.7015C201.994 74.5903 202.706 74.3551 203.475 74.1649C204.344 73.9489 205.058 73.8677 205.688 73.1749C206.025 72.8029 205.98 72.0653 205.652 71.704C204.885 70.8594 203.756 70.8573 202.7 71.0733C201.551 71.3084 200.729 71.7831 199.988 72.6896C199.27 73.5683 200.16 74.8469 201.204 74.7015Z" fill="#41190D"/>
<path d="M205.901 83.1463C205.879 83.0586 205.726 83.2639 205.732 83.358C205.911 85.6606 205.732 88.3289 203.687 89.1905C203.623 89.2183 203.636 89.3316 203.713 89.3188C206.235 88.842 206.438 85.2993 205.901 83.1463Z" fill="#263238"/>
<path d="M203.738 80.8371C200.029 80.7281 200.085 88.1813 203.521 88.2818C206.9 88.3823 206.846 80.9291 203.738 80.8371Z" fill="#263238"/>
<path d="M202.281 81.2299C201.636 81.6554 201.005 82.4058 200.225 82.4892C199.322 82.5854 198.632 81.8114 198.036 81.0653C197.974 80.9883 197.91 81.0524 197.91 81.1529C197.899 82.5811 198.457 84.0414 199.985 84.2424C201.378 84.4263 202.366 83.1541 202.712 81.7152C202.775 81.448 202.541 81.0567 202.281 81.2299Z" fill="#263238"/>
<path d="M219.445 82.6626C219.462 82.5749 219.624 82.7716 219.622 82.8657C219.547 85.1748 219.852 87.8302 221.931 88.5978C221.995 88.6213 221.989 88.7368 221.912 88.7261C219.373 88.369 219.006 84.837 219.445 82.6626Z" fill="#263238"/>
<path d="M221.499 80.2655C225.199 79.9854 225.487 87.4322 222.059 87.6909C218.685 87.9475 218.397 80.5007 221.499 80.2655Z" fill="#263238"/>
<path d="M223.064 80.684C223.665 81.056 224.274 81.7508 224.975 81.7701C225.788 81.7915 226.357 80.964 226.847 80.1708C226.898 80.0896 226.958 80.1495 226.964 80.2478C227.058 81.6696 226.647 83.1705 225.294 83.4976C224.061 83.7948 223.102 82.6082 222.708 81.2035C222.638 80.9427 222.823 80.5343 223.064 80.684Z" fill="#263238"/>
<path d="M207.164 101.527C207.695 102.087 208.214 102.852 209.047 102.955C209.844 103.053 210.796 102.726 211.54 102.47C211.614 102.444 211.685 102.525 211.636 102.592C211.005 103.455 209.729 103.96 208.67 103.733C207.637 103.511 207.156 102.589 206.94 101.625C206.909 101.486 207.087 101.443 207.164 101.527Z" fill="#263238"/>
<path d="M216.62 93.0084C216.62 93.0084 217.161 96.4464 217.193 98.0735C217.195 98.2253 216.805 98.3065 216.255 98.3493C216.23 98.3578 216.215 98.3685 216.192 98.3535C213.339 98.856 210.44 97.9216 208.657 95.6104C208.542 95.4544 208.744 95.2833 208.893 95.3817C211.06 96.9146 213.426 97.276 215.966 97.2695C216.072 96.8163 214.845 91.4113 215.101 91.3878C215.985 91.2959 217.742 91.8667 218.797 92.1532C217.879 84.9587 215.817 77.9716 215.009 70.7921C214.986 70.5355 215.35 70.4522 215.431 70.6788C218.107 77.8498 219.347 86.1047 220.484 93.5109C220.631 94.4302 217.274 93.2736 216.62 93.0084Z" fill="#263238"/>
<path d="M179.372 91.627C179.372 91.627 171.931 81.0929 167.163 83.7612C162.395 86.4316 168.038 101.736 173.669 103.797C179.299 105.858 181.304 100.664 181.304 100.664L179.372 91.627Z" fill="#FFBD98"/>
<path d="M168.889 88.1098C168.797 88.1012 168.782 88.2295 168.859 88.2616C172.808 89.8373 174.904 93.4891 176.381 97.2798C175.201 95.8238 173.601 95.0327 171.656 96.446C171.554 96.5208 171.654 96.6812 171.764 96.6577C173.375 96.3006 174.542 96.5743 175.639 97.8635C176.417 98.7765 176.952 99.9353 177.512 100.991C177.699 101.344 178.334 101.15 178.196 100.743C178.185 100.714 178.172 100.684 178.164 100.652C178.232 95.6079 174.285 88.5823 168.889 88.1098Z" fill="#263238"/>
<path d="M180.13 131.766C180.13 131.766 193.337 495.997 186.32 513.29C179.303 530.584 81.5639 543.861 81.5639 543.861C81.5639 543.861 104.79 287.04 132.865 207.92C158.893 134.573 180.13 131.766 180.13 131.766Z" fill="#EBEBEB"/>
<path d="M110.366 361.547C110.414 361.545 126.172 363.805 139.235 363.805C152.737 363.805 166.149 362.485 170.013 362.434C170.369 362.43 170.544 363.574 170.307 363.606C165.263 364.258 149.769 365.804 139.476 365.804C129.182 365.804 115.442 364.16 111.36 363.131C111.409 366.005 111.416 368.241 111.407 371.115C120.932 372.96 139.305 376.16 168.989 372.331C169.08 371.119 168.912 364.739 169.172 362.979C169.21 362.712 170.309 362.665 170.363 363.071C170.593 364.792 171.296 380.161 171.315 383.284C171.366 390.981 170.859 412.714 168.952 416.924C164.628 426.462 146.137 426.481 141.014 426.522C135.854 426.562 119.394 427.078 113.209 421.012C109.91 417.775 109.196 400.156 109.68 384.588C109.916 377.122 109.922 361.684 110.366 361.547ZM139.542 424.561C152.023 424.279 163.011 421.143 165.531 417.717C168.469 413.724 168.718 406.771 168.94 399.084C169.112 393.064 168.912 374.168 168.94 373.785C159.404 375.724 134.252 378.348 111.401 373.015C111.371 381.972 111.341 389.125 111.337 398.084C111.333 404.575 111.735 415.451 115.012 419.229C117.755 422.389 127.721 424.828 139.542 424.561Z" fill="#263238"/>
<path d="M251.918 516.683C257.762 530.548 292.656 539.947 292.656 539.947L248.68 236.002C248.68 236.002 257.772 222.494 254.82 205.43C251.867 188.366 215.633 138.221 211.181 136.188C211.181 136.188 218.68 168.303 222.891 213.899C232.761 320.732 245.547 501.569 251.918 516.683Z" fill="#EBEBEB"/>
<path d="M210.715 135.758C213.198 140.246 215.731 144.703 218.332 149.118C220.953 153.521 223.511 157.963 226.18 162.336L226.325 161.156C223.833 163.46 221.37 165.795 218.923 168.143L218.168 168.867L218.888 169.629L227.384 178.604L227.107 177.76C226.31 184.383 225.58 191.013 224.949 197.658C224.276 204.297 223.679 210.944 223.23 217.61C224.417 211.036 225.456 204.442 226.419 197.84C227.424 191.242 228.33 184.633 229.169 178.016L229.231 177.529L228.892 177.169L220.412 168.179L220.378 169.663C222.812 167.3 225.235 164.923 227.627 162.515L228.174 161.966L227.774 161.335C225.024 157.014 222.161 152.764 219.359 148.475C216.539 144.197 213.652 139.961 210.715 135.758Z" fill="#A6A6A6"/>
<path d="M252.788 194.757L256.332 306.914L170.489 309.647L166.944 197.49L252.788 194.757Z" fill="#263238"/>
<path d="M188.933 191.043L229.618 189.703L230.023 202.076L189.338 203.416L188.933 191.043Z" fill="#C7C7C7"/>
<path d="M198.212 190.759L203.22 190.595L203.033 184.888L215.207 184.486L215.395 190.193L220.405 190.028L220.064 179.633L197.799 180.366L198.212 190.759Z" fill="#C7C7C7"/>
<path d="M151.795 153.498C108.727 199.041 73.3456 293.738 94.0646 302.626C112.999 310.747 172.996 303.251 197.666 297.341C204.914 295.605 190.317 239.259 182.567 241.106C173.198 243.339 149.252 246.796 148.287 246.727C146.22 246.582 169.266 180.373 176.295 156.181C186.09 122.48 167.968 136.396 151.795 153.498Z" fill="#FFBD98"/>
<path d="M257.226 228.153C260.568 233.361 256.48 238.293 256.48 238.293C256.48 238.293 260.999 240.271 262.788 244.671C264.837 249.71 257.863 255.145 257.863 255.145C257.863 255.145 262.023 258.098 263.446 262.936C264.925 267.959 258.666 274.45 258.666 274.45C258.666 274.45 261.035 279.337 259.277 284.404C256.272 293.07 242.655 296.179 234.021 298.242C225.387 300.305 198.965 298.041 193.889 298.122L180.214 242.612C180.214 242.612 216.314 222.301 226.81 221.322C235.653 220.496 253.475 222.305 257.226 228.153Z" fill="#FFBD98"/>
<path d="M255.88 237.505C246.268 236.12 236.774 237.659 227.207 238.658C226.993 238.679 227.032 239.015 227.245 238.989C236.746 237.886 246.343 238.69 255.869 237.969C256.134 237.95 256.14 237.544 255.88 237.505Z" fill="#263238"/>
<path d="M257.508 254.475C255.325 254.227 253.067 254.704 250.913 255.037C248.595 255.397 246.284 255.799 243.979 256.235C239.362 257.109 234.767 258.086 230.204 259.202C230.002 259.251 230.028 259.574 230.243 259.534C234.844 258.672 239.458 257.879 244.092 257.21C246.409 256.876 248.731 256.562 251.056 256.262C253.218 255.985 255.521 255.873 257.581 255.117C257.883 255.005 257.838 254.514 257.508 254.475Z" fill="#263238"/>
<path d="M258.473 274.49C256.584 274.197 254.409 274.924 252.562 275.313C250.468 275.755 248.371 276.185 246.271 276.604C242.072 277.44 237.876 278.276 233.651 278.965C233.44 278.999 233.477 279.33 233.69 279.296C237.986 278.618 242.29 277.998 246.58 277.28C248.687 276.929 250.791 276.564 252.894 276.189C254.681 275.871 256.952 275.676 258.524 274.697C258.612 274.644 258.567 274.505 258.473 274.49Z" fill="#263238"/>
<path d="M150.5 244.92C147.546 242.393 171.797 180.076 178.218 153.06C184.636 126.041 177.065 127.025 154.75 149.183C132.436 171.342 95.518 227.128 87.5274 280.241C85.0307 296.83 81.6691 308.672 119.893 307.999C159.12 307.308 186.229 302.181 186.229 302.181L177.894 241.521C177.894 241.521 151.357 245.651 150.5 244.92Z" fill="#EBEBEB"/>
<path d="M172.738 301.676C167.847 277.68 166.335 251.716 165.751 247.209C165.723 246.995 166.068 246.976 166.085 247.192C166.428 251.643 171.366 281.127 173.107 301.658C173.126 301.896 172.785 301.906 172.738 301.676Z" fill="#263238"/>
<path d="M121.442 249.646C123.741 248.88 126.267 248.57 128.649 248.155C130.896 247.764 133.135 247.328 135.381 246.928C136.352 246.755 137.323 246.59 138.295 246.419C138.203 246.406 138.112 246.402 138.02 246.389C136.718 246.21 135.417 246.026 134.117 245.829C132.818 245.632 131.525 245.344 130.215 245.239C130 245.222 130.014 244.878 130.223 244.905C131.518 245.079 132.829 245.068 134.134 245.149C135.489 245.235 136.842 245.333 138.195 245.436C139.381 245.526 140.566 245.679 141.748 245.814C143.917 245.444 146.092 245.106 148.271 244.792C149.217 240.49 150.725 236.227 152.037 232.028C153.411 227.63 154.828 223.251 156.326 218.892C157.795 214.616 159.346 210.363 160.989 206.149C161.811 204.039 162.648 201.935 163.49 199.831C164.35 197.683 165.428 195.495 165.971 193.24C166.025 193.018 166.385 193.148 166.272 193.377C165.213 195.513 164.642 197.971 163.939 200.242C163.272 202.399 162.62 204.559 161.962 206.718C160.648 211.039 159.308 215.351 157.955 219.66C156.602 223.97 155.235 228.276 153.895 232.59C152.668 236.537 151.609 240.61 150.209 244.508C154.666 243.903 159.131 243.381 163.594 242.832C165.871 242.552 168.151 242.291 170.432 242.028C172.869 241.745 175.43 241.752 177.835 241.322C178.048 241.284 178.123 241.621 177.916 241.647C175.515 241.923 173.087 242.661 170.694 243.086C168.447 243.486 166.202 243.89 163.952 244.273C159.191 245.085 154.436 245.93 149.662 246.672C144.956 247.403 140.227 247.933 135.496 248.482C133.127 248.758 130.756 249 128.387 249.28C126.118 249.547 123.751 249.945 121.466 249.874C121.331 249.872 121.321 249.686 121.442 249.646Z" fill="#263238"/>
<path d="M110.899 308.016C131.515 307.291 168.589 304.478 185.761 302.166C185.995 302.134 186.042 302.455 185.797 302.496C181.977 303.116 151.114 310.727 110.879 308.818C110.355 308.794 110.392 308.035 110.899 308.016Z" fill="#263238"/>
<path d="M163.164 174.567L162.461 175.08L162.823 175.829C165.763 182.029 168.617 188.229 171.685 194.365C172.175 195.349 172.665 196.332 173.155 197.316L174.582 197.273C174.071 196.076 173.559 194.9 173.048 193.724C170.47 187.673 167.701 181.751 165.038 175.764C168.234 173.541 171.45 171.296 174.603 169.03L175.668 168.26L174.688 167.405L164.399 158.425C167.019 154.277 169.512 150.065 172.047 145.896C174.71 141.492 177.33 137.045 179.886 132.555C176.861 136.745 173.921 140.979 171.024 145.255C168.17 149.531 165.209 153.764 162.418 158.104L161.992 158.767L162.588 159.302L172.345 168.067C169.256 170.206 166.21 172.408 163.164 174.567Z" fill="#A6A6A6"/>
<path d="M168.709 90.8278C175.542 92.7979 179.857 77.2171 179.857 77.2171C179.857 77.2171 210.365 76.8838 216.712 53.2576C216.712 53.2576 219.363 69.3702 233.821 78.7449C233.821 78.7449 236.98 52.2458 216.768 43.8254C216.768 43.8254 192.177 30.2942 174.233 48.5495C156.289 66.8048 164.121 89.5044 168.709 90.8278Z" fill="#602817"/>
<path d="M160.471 74.9739C159.668 81.7037 157.774 87.9554 154.579 93.7995C151.958 98.6007 148.794 103.285 148.117 108.946C146.915 119.062 155.188 127.021 162.943 132.413C168.129 136.02 180.286 138.227 190.016 136.268C190.492 136.171 172.331 87.4208 213.762 46.8343C213.941 46.6588 191.923 38.0226 176.113 47.26C165.815 53.2776 161.829 63.572 160.471 74.9739Z" fill="#602817"/>
<path d="M163.116 71.5279C165.093 63.7612 168.824 57.3522 174.586 52.1071C174.638 52.0587 174.718 52.1535 174.666 52.204C169.019 57.7274 165.38 64.8647 163.499 72.7019C161.904 79.349 161.002 86.2341 157.384 92.0904C155.322 95.427 152.938 98.3582 151.853 102.256C150.828 105.931 150.764 109.837 151.506 113.573C153.117 121.688 158.38 127.634 164.756 132.033C164.954 132.171 164.809 132.522 164.59 132.394C152.743 125.532 145.976 109.147 153.815 96.3429C156.289 92.3022 158.774 88.78 160.161 84.1099C161.387 79.9824 162.053 75.7017 163.116 71.5279Z" fill="#602817"/>
<path d="M172.643 50.6673C172.7 50.6108 172.793 50.6935 172.736 50.754C166.581 57.0158 163.005 65.1033 161.962 74.0178C161.47 78.2199 161.248 82.4643 160.075 86.5393C159.009 90.2411 157.25 93.5696 155.185 96.7449C150.47 103.989 144.893 112.508 151.336 120.721C156.966 127.898 166.139 131.983 174.531 133.944C174.775 134.001 174.706 134.394 174.46 134.348C166.11 132.76 157.3 128.514 151.513 121.78C146.697 116.178 147.109 109.424 150.514 103.118C152.934 98.6392 156.257 94.7881 158.265 90.0474C160.386 85.0404 160.773 79.8256 161.378 74.4616C162.427 65.1456 166.051 57.0198 172.643 50.6673Z" fill="#602817"/>
<path d="M161.203 71.6949C163.001 63.5974 165.895 55.2074 172.876 50.6623C172.965 50.6038 173.055 50.7451 172.965 50.8076C164.617 56.7143 162.628 67.6865 160.592 77.3696C159.585 82.1628 158.46 87.0165 156.27 91.392C154.077 95.7757 150.426 99.2616 148.851 103.988C145.545 113.901 151.115 123.883 158.7 129.072C167.013 134.756 176.57 135.154 186.05 136.747C186.279 136.786 186.267 137.207 186.023 137.197C172.519 136.61 154.624 132.912 148.864 117.964C146.469 111.745 146.944 104.94 150.516 99.2495C153.266 94.8679 156.156 91.0511 157.81 85.9957C159.332 81.3357 160.14 76.478 161.203 71.6949Z" fill="#602817"/>
</svg>
