<svg width="500" height="500" viewBox="0 0 500 500" fill="none" xmlns="http://www.w3.org/2000/svg">
<path d="M170.189 141.104C170.891 145.349 173.154 149.119 176.651 151.401C180.334 153.805 185.268 154.304 189.381 152.936C189.455 152.911 189.503 153.026 189.428 153.054C185.156 154.641 180.621 154.556 176.626 152.107C172.931 149.842 170.239 145.69 169.901 141.149C169.887 140.951 170.157 140.907 170.189 141.104Z" fill="#602817"/>
<path d="M167.542 139.435C168.229 143.674 169.969 147.278 173.161 150.035C176.328 152.77 181.274 155.384 185.474 154.84C185.588 154.825 185.613 155.008 185.499 155.026C181.046 155.718 176.023 153.282 172.656 150.331C169.67 147.714 167.174 143.674 167.23 139.44C167.233 139.244 167.514 139.256 167.542 139.435Z" fill="#602817"/>
<path d="M184.283 120.659C184.301 125.759 184.398 130.684 185.524 135.679C186.649 140.667 188.495 145.611 190.988 150.018C191.038 150.106 190.921 150.206 190.867 150.117C188.212 145.798 186.232 141.2 185.045 136.188C183.872 131.239 183.199 125.701 183.982 120.621C184.014 120.412 184.282 120.457 184.283 120.659Z" fill="#602817"/>
<path d="M168.383 146.122C172.605 153.575 183.388 155.034 190.275 151.364C190.442 151.276 187.16 147.101 185.529 139.606C184.678 135.692 185.089 131.592 185.103 127.584C185.11 125.783 185.122 123.984 185.088 122.184C185.062 120.467 185.076 118.569 184.551 116.903C183.058 112.166 176.14 112.082 175.235 113.104C168.99 120.149 163.575 137.638 168.383 146.122Z" fill="#602817"/>
<path d="M376.94 219.386L367.447 236.656C363.363 244.085 354.716 246.598 347.276 242.509C340.377 238.717 337.334 229.778 341.418 222.349L356.605 194.719C356.748 194.46 357.018 194.608 357.167 194.338C357.039 193.93 357.039 193.93 357.188 193.66C360.986 186.749 370.455 183.998 377.354 187.791C394.094 196.992 414.943 191.161 423.996 174.691C433.192 157.962 426.798 137.493 410.058 128.292C399.168 122.306 386.393 122.902 376.528 128.886C369.312 133.227 360.177 130.966 355.841 123.739C351.77 116.671 353.889 107.796 361.11 103.471C379.722 92.2563 403.916 91.0233 424.365 102.263C455.185 119.204 466.689 158.041 449.754 188.85C435.299 215.148 404.849 227.123 376.94 219.386ZM344.967 277.554L342.34 282.334C338.25 289.774 329.603 292.287 322.163 288.197C315.264 284.405 312.221 275.466 316.31 268.026L318.937 263.246C322.878 256.077 332.197 253.595 339.097 257.387C346.538 261.478 348.908 270.385 344.967 277.554Z" fill="#DBDBDB"/>
<path d="M316.644 93.7118L318.637 80.5548C319.495 74.8948 324.39 71.2878 330.058 72.1468C335.314 72.9428 339.325 77.8998 338.468 83.5598L335.279 104.61C335.249 104.808 335.043 104.777 335.012 104.982C335.188 105.211 335.188 105.211 335.157 105.417C334.36 110.681 328.999 114.631 323.743 113.835C310.989 111.903 299.133 120.456 297.232 133.004C295.301 145.749 304.121 157.233 316.875 159.165C325.172 160.422 333.13 157.068 337.988 150.978C341.551 146.545 347.867 145.85 352.299 149.421C356.526 152.952 357.251 159.071 353.681 163.494C344.497 174.938 329.45 181.356 313.87 178.996C290.39 175.438 274.05 153.503 277.607 130.031C280.643 109.993 297.152 95.3098 316.644 93.7118ZM323.358 49.3958L323.91 45.7538C324.769 40.0858 329.664 36.4788 335.332 37.3368C340.589 38.1328 344.599 43.0898 343.741 48.7578L343.189 52.3998C342.361 57.8618 337.033 61.6058 331.776 60.8098C326.108 59.9508 322.53 54.8578 323.358 49.3958Z" fill="#DBDBDB"/>
<path d="M87.2872 122.996L81.6302 110.951C79.1962 105.769 81.2612 100.05 86.4502 97.6135C91.2622 95.3535 97.3512 97.2445 99.7852 102.425L108.835 121.696C108.92 121.877 108.731 121.966 108.82 122.154C109.093 122.246 109.093 122.247 109.182 122.436C111.445 127.255 109.185 133.517 104.373 135.777C92.6972 141.26 87.5962 154.962 92.9912 166.449C98.4712 178.117 112.186 182.76 123.862 177.277C131.457 173.71 136.209 166.497 136.862 158.734C137.359 153.069 142.224 148.981 147.892 149.486C153.369 150.072 157.372 154.754 156.864 160.415C155.591 175.033 146.651 188.734 132.388 195.432C110.892 205.527 85.1172 196.376 75.0252 174.887C66.4112 156.543 71.9732 135.159 87.2872 122.996ZM68.2342 82.4255L66.6682 79.0915C64.2312 73.9025 66.2952 68.1825 71.4842 65.7455C76.2962 63.4855 82.3852 65.3765 84.8222 70.5655L86.3882 73.8995C88.7362 78.9005 86.3882 84.9745 81.5762 87.2345C76.3872 89.6705 70.5822 87.4255 68.2342 82.4255Z" fill="#DBDBDB"/>
<path d="M375.419 353.291L366.139 370.173C362.147 377.435 353.694 379.892 346.421 375.894C339.677 372.187 336.702 363.449 340.694 356.187L355.54 329.178C355.679 328.924 355.944 329.07 356.089 328.805C355.964 328.406 355.964 328.406 356.11 328.142C359.823 321.387 369.079 318.697 375.823 322.405C392.187 331.4 412.568 325.699 421.418 309.599C430.407 293.245 424.158 273.237 407.793 264.242C397.148 258.391 384.66 258.973 375.016 264.822C367.962 269.066 359.032 266.855 354.794 259.791C350.814 252.882 352.886 244.206 359.944 239.979C378.138 229.016 401.789 227.81 421.778 238.798C451.906 255.358 463.152 293.323 446.597 323.44C432.467 349.148 402.701 360.854 375.419 353.291ZM344.164 410.153L341.596 414.826C337.598 422.099 329.145 424.555 321.872 420.558C315.128 416.851 312.153 408.113 316.151 400.84L318.719 396.167C322.571 389.158 331.682 386.733 338.426 390.44C345.7 394.438 348.016 403.144 344.164 410.153Z" fill="#FFE5A1"/>
<path d="M73.646 275.281L67.908 258.065C65.44 250.659 69.148 243.242 76.565 240.77C83.443 238.478 91.388 242.01 93.856 249.416L103.036 276.959C103.122 277.217 102.853 277.308 102.943 277.577C103.299 277.746 103.299 277.746 103.389 278.016C105.685 284.904 101.624 293.025 94.746 295.318C78.059 300.88 68.963 318.62 74.436 335.038C79.994 351.715 97.828 360.192 114.515 354.63C125.371 351.012 132.957 342.003 135.08 331.594C136.658 324.001 143.898 319.24 151.495 320.829C158.818 322.496 163.493 329.478 161.901 337.064C157.843 356.658 143.549 373.784 123.164 380.578C92.441 390.818 58.994 374.31 48.757 343.597C40.018 317.379 50.964 289.308 73.646 275.281ZM54.319 217.294L52.731 212.529C50.259 205.112 53.968 197.696 61.384 195.224C68.262 192.931 76.206 196.464 78.679 203.881L80.267 208.646C82.649 215.793 78.499 223.645 71.621 225.937C64.204 228.409 56.701 224.441 54.319 217.294Z" fill="#FFE5A1"/>
<path d="M157.003 162.278C153.135 185.767 151.858 210.018 154.461 214.693C158.495 221.938 187.924 239.475 198.041 243.144C201.353 244.345 211.271 222.498 209.294 219.292C207.317 216.086 174.97 199.672 173.435 197.95C172.617 197.032 169.64 177.126 166.815 163.542C164.19 150.918 158.178 155.147 157.003 162.278Z" fill="#FFBD98"/>
<path d="M186.647 238.955L199.556 211.497C199.556 211.497 177.038 198.592 174.403 196.779C173.289 196.012 169.484 171.389 167.305 160.668C165.872 153.617 159.722 149.585 155.953 162.964C153.746 170.797 148.769 209.261 153.278 216.166C156.866 221.659 186.647 238.955 186.647 238.955Z" fill="#EBEBEB"/>
<path d="M180.443 233.547C181.056 231.442 184.992 223.282 185.995 221.259C186.977 219.279 191.294 211.264 192.331 209.19C192.388 209.077 192.565 209.124 192.51 209.24C191.518 211.31 187.841 219.631 186.858 221.661C185.872 223.698 181.849 231.787 180.551 233.594C180.507 233.657 180.424 233.614 180.443 233.547Z" fill="#263238"/>
<path opacity="0.1" d="M156.65 160.773C156.537 161.095 156.416 161.436 156.309 161.793C156.185 162.165 156.07 162.563 155.956 162.961C155.578 164.305 155.11 166.552 154.634 169.399C154.542 169.917 154.455 170.449 154.369 171.003C154.315 171.341 154.257 171.688 154.208 172.039C154.093 172.777 153.98 173.538 153.867 174.321C153.85 174.456 153.833 174.591 153.811 174.735C153.687 175.59 153.561 176.477 153.448 177.381C153.361 178.033 153.271 178.695 153.194 179.374C153.108 180.049 153.022 180.723 152.951 181.415C152.906 181.757 152.87 182.103 152.83 182.458C152.396 186.279 152.027 190.294 151.78 194.189C151.709 195.244 151.651 196.293 151.61 197.328C151.574 198.014 151.547 198.704 151.528 199.376C151.5 200.044 151.481 200.716 151.471 201.37C151.342 208.227 151.807 213.893 153.283 216.163C155.705 219.882 170.142 229.018 179.208 234.526L164.28 154.929C164.16 154.831 164.026 154.738 163.898 154.658C163.068 154.14 162.162 153.982 161.231 154.318C160.851 154.454 160.453 154.679 160.067 154.999C159.803 155.22 159.544 155.476 159.291 155.768C159.025 156.065 158.774 156.401 158.525 156.782C157.872 157.781 157.243 159.098 156.65 160.773Z" fill="#020100"/>
<path d="M251.042 467.672C248.468 468.508 174.998 467.862 172.211 466.066C171.151 465.391 170.621 454.685 170.348 441.731C170.288 438.933 164.741 393.852 164.741 393.852L213.857 394.142L217.716 442.011C217.716 442.011 245.735 454.84 248.579 457.137C251.41 459.434 253.616 466.836 251.042 467.672Z" fill="#FFBD98"/>
<path d="M251.04 467.671C248.471 468.507 175.003 467.859 172.214 466.063C171.41 465.551 170.909 459.286 170.585 450.628C180.088 452.811 233.506 457.197 239.646 456.455C245.578 455.745 231.835 448.675 229.349 447.422C237.411 451.223 246.977 455.839 248.585 457.134C251.405 459.432 253.619 466.836 251.04 467.671Z" fill="#263238"/>
<path d="M113.578 195.117C113.578 195.117 100.735 213.77 107.796 234.028C119.859 268.634 150.497 307.579 151.438 312.032C153.656 322.528 165.47 430.141 165.47 430.141L220.355 429.803C220.355 429.803 211.324 338.531 202.006 308.384C196.919 291.926 167.858 246.805 155.315 224.785C154.194 222.816 156.839 214.314 156.839 214.314L113.578 195.117Z" fill="#37474F"/>
<path d="M214.868 420.171C206.346 420.004 180.548 419.292 169.19 420.211C169.103 420.218 169.104 420.361 169.19 420.375C173.088 420.984 206.346 420.574 214.868 420.406C215.028 420.403 215.029 420.175 214.868 420.171Z" fill="#263238"/>
<path d="M104.427 220.582C108.092 226.49 111.965 232.279 115.715 238.136C119.467 243.997 123.204 249.866 126.891 255.766C134.261 267.559 141.433 279.472 148.469 291.456C151.769 297.077 154.908 302.748 157.147 308.862C159.365 314.919 160.847 321.21 161.924 327.546C163.008 333.93 163.695 340.37 164.34 346.807C165.026 353.661 165.7 360.517 166.38 367.372C167.771 381.399 169.163 395.426 170.553 409.452C170.724 411.172 170.89 412.893 171.041 414.615C171.063 414.867 170.611 414.912 170.583 414.659C169.009 400.719 167.73 386.741 166.315 372.784C165.611 365.836 164.907 358.888 164.203 351.94C163.548 345.48 162.929 339.012 162.007 332.581C161.101 326.265 159.901 319.971 158.057 313.845C156.131 307.445 153.365 301.424 150.076 295.586C143.344 283.64 136.211 271.892 129.073 260.174C121.874 248.355 114.614 236.568 107.076 224.951C106.145 223.516 105.206 222.09 104.24 220.678C104.167 220.57 104.357 220.467 104.427 220.582Z" fill="#263238"/>
<path d="M117.248 468.026C114.544 467.827 45.0311 438.66 43.1161 435.954C43.0531 435.863 43.0161 435.686 43.0151 435.436C43.0581 433.034 76.2981 372.695 76.2981 372.695L121.739 391.401L95.9801 431.727C95.9801 431.727 117.139 454.139 118.91 457.331C120.669 460.522 119.942 468.212 117.248 468.026Z" fill="#FFBD98"/>
<path d="M118.912 457.327C120.666 460.522 119.946 468.209 117.251 468.021C114.546 467.823 45.025 438.655 43.114 435.95C43.051 435.856 43.02 435.679 43.02 435.428C43.03 434.645 46.592 427.679 51.374 418.656C61.233 400.057 76.302 372.695 76.302 372.695L121.74 391.399L95.978 431.72C95.978 431.72 101.816 437.913 107.612 444.241L107.633 444.262C112.876 449.985 118.066 455.813 118.912 457.327Z" fill="#FFBD98"/>
<path d="M117.251 468.021C114.546 467.823 45.025 438.655 43.114 435.95C43.051 435.856 43.02 435.679 43.02 435.428C43.03 434.645 46.592 427.679 51.374 418.656C63.373 431.282 110.728 454.294 112.284 453.647C113.892 452.968 108.029 444.837 107.632 444.263C112.875 449.986 118.065 455.813 118.911 457.328C120.666 460.523 119.946 468.209 117.251 468.021Z" fill="#263238"/>
<path d="M102.679 425.422L55.5513 403.076C55.5513 403.076 116.342 311.749 116.896 304.82C117.387 298.681 94.405 259.594 93.5 244C92.523 227.171 99.004 204.967 108 197L156.84 214.316C156.84 214.316 152.36 223.468 143.532 228.316C143.532 228.316 169.812 290.446 168.044 309.428C166.266 328.513 102.679 425.422 102.679 425.422Z" fill="#37474F"/>
<path d="M105.297 414.603C98.7623 411.264 100.689 412.121 94.1133 408.862C90.8953 407.267 69.7403 396.81 66.4543 395.901C66.3813 395.881 66.3223 396.004 66.3833 396.049C69.1403 398.056 90.4913 408.107 93.7423 409.633C100.385 412.752 98.5153 411.777 105.195 414.814C105.321 414.872 105.42 414.666 105.297 414.603Z" fill="#263238"/>
<path d="M151.168 228.821C145.557 229.128 139.931 230.203 134.491 231.454C134.277 231.503 134.325 231.816 134.549 231.787C140.119 231.075 145.764 230.48 151.282 229.471C151.715 229.392 151.598 228.797 151.168 228.821Z" fill="#263238"/>
<path d="M145.328 225.697C144.673 226.511 144.087 227.384 143.549 228.275C143.131 228.967 142.619 229.699 142.495 230.506C142.471 230.662 142.676 230.734 142.788 230.654C143.487 230.154 143.946 229.337 144.446 228.655C145.025 227.866 145.623 227.088 146.178 226.282C146.546 225.749 145.732 225.195 145.328 225.697Z" fill="#263238"/>
<path d="M156.379 210.85C156.403 210.761 156.228 210.678 156.194 210.771C155.113 213.74 153.913 216.265 152.58 218.926C151.961 220.162 148.069 226.825 145.588 225.369C145.173 225.125 145.081 224.678 145.221 224.091C145.389 223.386 146.004 222.664 146.389 222.039C147.241 220.657 148.036 219.25 148.75 217.803C150.082 215.101 151.143 212.304 151.778 209.368C151.799 209.271 151.637 209.223 151.603 209.316C150.158 213.196 148.59 217.025 146.459 220.622C145.435 222.351 143.28 224.739 145.492 225.836C147.746 226.954 151.013 222.834 151.776 221.661C153.908 218.389 155.373 214.564 156.379 210.85Z" fill="#263238"/>
<path d="M144.33 230.338C146.155 234.334 147.754 238.312 149.457 242.292C151.121 246.181 152.676 250.114 154.184 254.066C157.231 262.051 159.949 270.177 162.319 278.389C163.492 282.453 164.568 286.544 165.535 290.661C166.505 294.79 167.451 298.959 167.822 303.191C168.194 307.436 167.84 311.625 166.609 315.711C165.36 319.856 158.338 333.722 156.416 337.59C155.241 339.954 154.85 339.629 155.42 338.435C157.036 335.049 166.68 314.524 166.488 305.842C166.395 301.653 165.586 297.519 164.69 293.439C163.776 289.274 162.737 285.137 161.599 281.027C159.356 272.93 156.671 264.988 153.906 257.058C152.357 252.615 150.69 248.215 149.118 243.781C147.533 239.313 145.892 235.291 144.133 230.414C144.086 230.286 144.273 230.214 144.33 230.338Z" fill="#263238"/>
<path d="M105.682 216.733C106.602 216.405 107.865 216.982 108.797 217.15C109.992 217.366 111.201 217.503 112.415 217.559C113.611 217.615 114.817 217.581 116.01 217.48C117.202 217.379 118.419 217.247 119.461 216.614C121.219 215.547 122.702 213.647 123.904 212.01C125.225 210.211 126.599 208.14 127.398 206.047C127.447 205.918 127.631 206.009 127.589 206.136C127.189 207.357 126.888 208.589 126.384 209.782C125.91 210.903 125.301 211.973 124.657 213.004C123.454 214.929 122.077 216.983 120.041 218.111C117.905 219.295 115.173 219.189 112.81 219.023C111.443 218.927 110.083 218.73 108.746 218.431C107.781 218.215 106.154 218.04 105.548 217.181C105.439 217.029 105.501 216.798 105.682 216.733Z" fill="#263238"/>
<path d="M69.6402 394.589C78.1992 381.977 86.6022 369.261 94.8582 356.449C103.136 343.603 111.265 330.662 119.284 317.653C121.202 314.542 123.412 311.437 124.665 307.98C126.027 304.222 125.325 300.557 124.179 296.85C122.076 290.05 119.435 283.427 116.576 276.914C113.708 270.381 110.613 263.953 107.57 257.501C104.552 251.102 101.335 244.68 99.0682 237.965C96.9042 231.552 96.1312 224.92 97.9342 218.318C99.7232 211.768 103.492 205.913 107.419 200.454C108.455 199.014 109.509 197.587 110.55 196.15C110.629 196.04 110.795 196.176 110.712 196.285C106.388 201.973 102.166 207.998 99.5892 214.708C98.3162 218.023 97.4742 221.52 97.3522 225.078C97.2282 228.687 97.8612 232.277 98.8822 235.728C100.868 242.439 104.054 248.809 107.019 255.128C110.05 261.587 113.164 268.008 116.083 274.519C119.02 281.07 121.76 287.718 123.996 294.543C124.991 297.582 126.103 300.762 125.995 304.004C125.876 307.555 124.142 310.732 122.349 313.704C114.544 326.646 106.45 339.422 98.2592 352.122C90.0372 364.871 81.6562 377.517 73.1492 390.078C72.0762 391.662 71.0012 393.244 69.9242 394.825C69.7912 395.021 69.5082 394.784 69.6402 394.589Z" fill="#263238"/>
<path d="M156.84 214.314L161.163 192.513C161.163 192.513 168.804 189.812 168.706 179.904C168.661 175.344 166.507 157.517 161.364 150.474C156.54 143.868 148.786 145.48 144.125 147.774C135 152.266 123.452 165.836 107 192.513L156.84 214.314Z" fill="#610B0B"/>
<path d="M148.683 185.059C150.765 185.914 152.829 186.877 154.747 188.172C155.701 188.817 156.62 189.523 157.53 190.262C157.983 190.63 158.445 190.974 158.911 191.315C159.39 191.665 159.91 192.011 160.459 192.174C160.508 192.189 160.481 192.295 160.431 192.285C159.886 192.172 159.365 192.061 158.846 191.845C158.353 191.64 157.882 191.357 157.424 191.056C156.45 190.416 155.506 189.709 154.538 189.054C152.586 187.733 150.634 186.413 148.593 185.306C148.501 185.257 148.585 185.019 148.683 185.059Z" fill="#263238"/>
<path d="M142.666 186.469C144.504 186.653 146.35 186.963 148.128 187.438C149.023 187.677 149.891 187.989 150.755 188.335C151.167 188.5 151.576 188.677 151.983 188.86C152.43 189.062 152.848 189.351 153.298 189.544C153.345 189.564 153.319 189.673 153.27 189.655C152.839 189.492 152.375 189.433 151.934 189.307C151.491 189.181 151.049 189.049 150.606 188.922C149.719 188.668 148.828 188.428 147.944 188.162C146.174 187.629 144.405 187.124 142.612 186.68C142.515 186.655 142.57 186.459 142.666 186.469Z" fill="#263238"/>
<path d="M70.2923 312.771L138.091 322.164C138.091 322.164 154.396 189.228 153.931 175.379C153.594 165.367 147.936 144.652 147.936 144.652C147.936 144.652 139.73 144.045 121.149 169.408C84.1099 219.966 70.2923 312.771 70.2923 312.771Z" fill="#EBEBEB"/>
<path d="M100.37 249.025C100.399 249.025 110.012 250.992 118.055 251.622C126.369 252.273 134.679 252.215 137.061 252.373C137.28 252.388 137.342 253.009 137.195 253.013C134.063 253.118 124.463 253.197 118.125 252.701C111.787 252.206 103.394 250.664 100.921 249.917C100.838 251.455 100.752 252.652 100.633 254.186C106.423 255.631 117.609 258.227 136.038 257.611C136.142 256.967 136.292 253.55 136.523 252.622C136.558 252.481 137.235 252.509 137.252 252.729C137.326 253.659 137.147 261.906 137.035 263.576C136.761 267.692 135.585 279.282 134.243 281.439C131.202 286.327 119.816 285.447 116.661 285.222C113.483 284.995 103.327 284.477 99.7604 280.937C97.857 279.048 98.1174 269.598 99.0348 261.303C99.4742 257.326 100.092 249.077 100.37 249.025ZM115.829 284.106C125.898 284.905 130.414 283.411 132.103 281.701C134.071 279.709 134.501 276.005 134.942 271.907C135.289 268.699 135.917 258.591 135.949 258.387C130 258.964 114.411 259.154 100.553 255.203C100.179 259.988 99.8761 263.809 99.5173 268.597C99.2567 272.065 99.0729 277.897 100.939 280.074C102.501 281.895 108.549 283.528 115.829 284.106Z" fill="#DBDBDB"/>
<path d="M137.641 153.559C124.162 167.725 104.726 193.187 106.123 199.232C109.624 214.374 122.61 232.716 129.156 239.353C132.977 243.227 154.409 224.07 151.186 220.462C146.102 214.769 133.624 196.511 132.177 194.115C131.405 192.837 141.06 173.359 145.511 160.377C150.35 146.264 144.211 146.654 137.641 153.559Z" fill="#FFBD98"/>
<path d="M158.97 236.793C158.423 235.001 159.36 234.702 162.092 236.605C164.861 238.524 174.026 248.359 177.191 244.86C180.374 241.353 167.175 227.648 162.382 224.828C157.594 221.996 148.847 219.125 148.847 219.125C150.878 222.307 155.067 230.497 158.97 236.793Z" fill="#FFBD98"/>
<path d="M151.917 250.481L158.225 257.18L207.833 210.468L201.525 203.769L151.917 250.481Z" fill="#C7C7C7"/>
<path d="M132.761 265.273L142.301 275.405L169.605 249.693L160.065 239.562L132.761 265.273Z" fill="#263238"/>
<path d="M181.812 231.837C182.421 228.237 186.314 231.015 186.314 231.015C186.314 231.015 181.673 225.665 183.736 222.197C185.733 218.86 190.319 222.381 190.651 222.629C190.408 222.344 186.272 217.317 188.704 214.045C191.234 210.647 195.23 214.973 195.487 215.253C195.342 214.912 193.501 210.367 195.914 208.301C200.062 204.754 206.414 217.296 210.593 218.733L217.451 214.181C216.781 215.624 215.953 216.974 216.048 220.24C216.137 223.295 216.219 225.334 215.4 227.064C214.048 229.906 211.262 229.447 211.262 229.447C211.262 229.447 213.262 232.763 211.429 235.399C210.484 236.75 207.483 236.44 207.483 236.44C207.483 236.44 208.974 239.162 207.196 241.405C205.784 243.2 202.993 242.61 202.993 242.61C202.993 242.61 203.212 245.887 201.173 247.252C197.067 250.014 180.515 239.546 181.812 231.837Z" fill="#FFBD98"/>
<path d="M212.327 217.926L217.326 214.287C217.54 214.196 217.762 214.1 217.972 214.023C225.375 211.25 234.09 216.411 229.577 219.845C226.148 222.463 219.262 219.961 216.138 223.151L216.133 223.142L212.327 217.926Z" fill="#AD6359"/>
<path d="M202.537 242.581C202.595 242.611 202.564 242.698 202.5 242.677C196.216 240.563 189.96 236.315 186.088 230.884C185.961 230.706 186.195 230.422 186.373 230.591C191.433 235.426 196.311 239.312 202.537 242.581Z" fill="#263238"/>
<path d="M207.544 236.527C207.612 236.562 207.554 236.675 207.476 236.648C201.013 234.435 194.098 229.456 190.372 222.671C190.244 222.438 190.363 222.101 190.53 222.358C193.35 226.682 201.924 233.613 207.544 236.527Z" fill="#263238"/>
<path d="M195.39 214.688C199.214 221.056 204.695 225.556 210.988 229.371C211.07 229.421 210.991 229.531 210.912 229.509C207.325 228.482 203.566 225.633 200.83 223.169C198.209 220.809 196.318 218.152 195.168 214.823C195.123 214.693 195.308 214.552 195.39 214.688Z" fill="#263238"/>
<g opacity="0.4">
<path d="M194.863 160.35C199.607 133.06 225.679 114.729 252.959 119.474C266.156 121.776 277.681 129.089 285.416 140.076C293.142 151.064 296.137 164.383 293.835 177.581C291.543 190.778 284.22 202.302 273.233 210.038C262.246 217.764 248.926 220.749 235.729 218.457C222.532 216.155 211.007 208.842 203.281 197.855C195.556 186.867 192.561 173.547 194.863 160.35Z" fill="white"/>
</g>
<path d="M186.509 158.906C192.061 127.012 222.526 105.582 254.42 111.134C286.314 116.686 307.745 147.151 302.192 179.045C296.64 210.939 266.175 232.369 234.281 226.817C202.387 221.265 180.957 190.799 186.509 158.906ZM193.14 160.06C188.224 188.298 207.198 215.27 235.436 220.186C263.674 225.102 290.646 206.128 295.562 177.89C300.478 149.652 281.504 122.68 253.266 117.764C225.028 112.849 198.055 131.822 193.14 160.06Z" fill="#37474F"/>
<path d="M258.339 220.859C264.309 219.242 270.025 216.567 275.247 212.9C287.004 204.625 294.821 192.298 297.283 178.184C299.735 164.071 296.538 149.823 288.273 138.076C280.009 126.318 267.682 118.492 253.569 116.04C239.446 113.578 225.199 116.784 213.451 125.049C207.577 129.181 202.688 134.324 198.949 140.204C195.22 146.083 192.651 152.698 191.414 159.755C186.341 188.947 205.946 216.826 235.138 221.899C242.981 223.268 250.864 222.891 258.339 220.859ZM235.734 218.456C208.444 213.712 190.113 187.639 194.858 160.359C197.16 147.162 204.473 135.638 215.46 127.902C226.448 120.176 239.767 117.181 252.964 119.483C266.161 121.775 277.685 129.098 285.422 140.085C293.148 151.073 296.133 164.392 293.841 177.589C291.539 190.786 284.226 202.31 273.239 210.036C262.25 217.763 248.931 220.758 235.734 218.456ZM258.339 220.859C264.309 219.242 270.025 216.567 275.247 212.9C287.004 204.625 294.821 192.298 297.283 178.184C299.735 164.071 296.538 149.823 288.273 138.076C280.009 126.318 267.682 118.492 253.569 116.04C239.446 113.578 225.199 116.784 213.451 125.049C207.577 129.181 202.688 134.324 198.949 140.204C195.22 146.083 192.651 152.698 191.414 159.755C186.341 188.947 205.946 216.826 235.138 221.899C242.981 223.268 250.864 222.891 258.339 220.859ZM235.734 218.456C208.444 213.712 190.113 187.639 194.858 160.359C197.16 147.162 204.473 135.638 215.46 127.902C226.448 120.176 239.767 117.181 252.964 119.483C266.161 121.775 277.685 129.098 285.422 140.085C293.148 151.073 296.133 164.392 293.841 177.589C291.539 190.786 284.226 202.31 273.239 210.036C262.25 217.763 248.931 220.758 235.734 218.456ZM260.089 227.358C266.817 225.543 273.247 222.531 279.121 218.399C292.34 209.099 301.144 195.225 303.917 179.34C309.63 146.493 287.561 115.13 254.724 109.407C238.829 106.644 222.806 110.241 209.577 119.541C196.359 128.851 187.554 142.715 184.791 158.6C182.018 174.485 185.625 190.518 194.925 203.737C204.225 216.966 218.099 225.77 233.984 228.534C242.812 230.07 251.676 229.641 260.089 227.358ZM234.579 225.09C219.62 222.486 206.55 214.185 197.778 201.727C189.016 189.268 185.62 174.163 188.234 159.204C190.837 144.235 199.128 131.165 211.597 122.403C217.125 118.509 223.188 115.676 229.527 113.96C237.451 111.808 245.804 111.4 254.119 112.849C285.063 118.234 305.859 147.8 300.474 178.744C296.555 201.233 279.881 218.361 259.17 223.968C251.386 226.078 243.034 226.565 234.579 225.09ZM275.247 212.9C287.004 204.625 294.821 192.298 297.283 178.184C299.735 164.071 296.538 149.823 288.273 138.076C280.009 126.318 267.682 118.492 253.569 116.04C239.446 113.578 225.199 116.784 213.451 125.049C207.577 129.181 202.688 134.324 198.949 140.204C195.22 146.083 192.651 152.698 191.414 159.755C186.341 188.947 205.946 216.826 235.138 221.899C242.981 223.268 250.864 222.891 258.339 220.859C264.31 219.241 270.025 216.567 275.247 212.9ZM235.734 218.456C208.444 213.712 190.113 187.639 194.858 160.359C197.16 147.162 204.473 135.638 215.46 127.902C226.448 120.176 239.767 117.181 252.964 119.483C266.161 121.775 277.685 129.098 285.422 140.085C293.148 151.073 296.133 164.392 293.841 177.589C291.539 190.786 284.226 202.31 273.239 210.036C262.25 217.763 248.931 220.758 235.734 218.456Z" fill="#37474F"/>
<path opacity="0.3" d="M222.297 133.775C226.682 130.789 231.841 128.935 237.173 127.972C239.844 127.47 242.589 127.312 245.339 127.349C248.092 127.421 250.847 127.796 253.56 128.393C258.969 129.687 264.131 132.131 268.534 135.497C272.939 138.86 276.67 143 279.491 147.626C275.562 143.884 271.474 140.475 267.05 137.702C264.802 136.383 262.56 135.072 260.155 134.138C257.786 133.142 255.359 132.279 252.856 131.748C247.882 130.551 242.72 130.248 237.581 130.633C232.445 131.063 227.317 132.088 222.297 133.775Z" fill="#EBEBEB"/>
<path opacity="0.3" d="M253.729 207.701C248.695 209.376 243.226 209.75 237.834 209.219C235.127 208.972 232.444 208.374 229.808 207.587C227.18 206.766 224.632 205.652 222.185 204.336C217.335 201.613 213.038 197.852 209.721 193.411C206.403 188.972 203.944 183.97 202.494 178.75C205.252 183.423 208.252 187.819 211.751 191.696C213.553 193.578 215.352 195.453 217.41 197.008C219.417 198.614 221.516 200.107 223.779 201.301C228.237 203.811 233.12 205.513 238.168 206.547C243.226 207.537 248.439 207.952 253.729 207.701Z" fill="#EBEBEB"/>
<path d="M127.19 236.555C133.237 245.311 140.232 256.58 151.124 261.633C153.26 262.624 154.986 262.124 154.986 262.124C159.827 264.476 162.391 262.896 162.391 262.896C167.571 263.706 169.971 261.729 169.971 261.729C169.971 261.729 175.685 264.428 177.889 261.245C180.372 257.683 171.862 254.59 168.222 250.027C159.883 239.572 150.953 222.379 148.847 219.125L127.19 236.555Z" fill="#FFBD98"/>
<path d="M151.782 245.215C154.298 248.243 156.69 251.283 159.602 253.954C162.798 256.885 166.364 259.169 169.937 261.586C170.049 261.662 169.955 261.824 169.834 261.767C162.673 258.417 155.811 252.025 151.643 245.327C151.542 245.165 151.656 245.063 151.782 245.215Z" fill="#263238"/>
<path d="M144.741 249.335C147.352 252.145 151.973 257.055 162.453 262.79C162.487 262.809 162.466 262.873 162.426 262.857C155.127 260.039 149.394 255.566 144.608 249.459C144.458 249.27 144.567 249.149 144.741 249.335Z" fill="#263238"/>
<path d="M140.998 251.614C145.62 256.224 149.117 258.545 154.977 262.089C155.01 262.109 154.984 262.172 154.946 262.154C147.864 258.826 145.672 256.816 140.818 251.751C140.65 251.577 140.817 251.434 140.998 251.614Z" fill="#263238"/>
<path d="M122.333 238.937L150.277 217.081L133.938 194.225C138.394 183.854 145.937 163.358 147.941 155.724C150.292 146.768 145.973 145.181 138.915 151.44C122.772 165.756 104.893 192.097 104.224 197.449C103.265 205.117 122.333 238.937 122.333 238.937Z" fill="#EBEBEB"/>
<path d="M121.361 229.525C122.832 227.859 129.964 222.073 131.757 220.65C133.512 219.257 140.931 213.769 142.777 212.315C142.877 212.236 143.02 212.356 142.919 212.438C141.116 213.908 134.152 219.954 132.375 221.392C130.592 222.835 123.411 228.519 121.44 229.616C121.371 229.653 121.314 229.578 121.361 229.525Z" fill="#263238"/>
<path d="M144.142 169.32C141.527 177.307 137.857 185.503 134.776 193.332C134.642 193.676 134.516 193.994 134.416 194.309C134.423 194.293 134.432 194.208 134.415 194.165C134.416 194.156 134.415 194.165 134.424 194.184C137.949 199.846 142.561 205.818 146.398 211.368L150.347 216.999L150.375 217.039L150.338 217.066L149.567 217.631L150.277 216.99L150.269 217.057L146 211.662C141.872 206.162 137.151 200.393 133.537 194.565C133.476 194.441 133.424 194.201 133.483 194.072C133.768 193.124 134.131 192.275 134.492 191.374C137.39 184.313 141.085 176.293 144.142 169.32Z" fill="#263238"/>
<path d="M144.388 171C143.846 172.183 143.201 173.375 142.193 174.221C142.935 173.174 143.565 171.994 144.388 171Z" fill="#263238"/>
<path d="M145.82 147.04C145.82 147.04 153.183 164.97 160.309 165.806C165.641 166.432 164.858 155.54 164.858 155.54C164.858 155.54 159.906 141.154 145.82 147.04Z" fill="#FFBD98"/>
<path d="M153.053 148.212C152.899 149.365 155.254 158.332 160.486 159.558C163.207 160.195 165.117 151.656 165.117 151.656L165.502 151.073L170.884 142.91L162.958 132.207L161.782 130.742C161.782 130.742 160.457 133.073 158.835 135.991C158.759 136.126 158.683 136.261 158.604 136.406C158.508 136.569 158.415 136.721 158.333 136.877C158.085 137.31 157.834 137.753 157.593 138.2C157.408 138.539 157.227 138.868 157.046 139.231C156.855 139.591 156.677 139.944 156.486 140.303C154.68 143.89 153.126 147.725 153.053 148.212Z" fill="#FFBD98"/>
<path d="M158.837 135.991C158.697 144.061 163.269 149.109 165.503 151.073L170.885 142.91L162.959 132.207L161.783 130.742C161.783 130.742 160.458 133.073 158.837 135.991Z" fill="#263238"/>
<path d="M187.25 127.596C189.834 144.561 179.965 148.025 176.306 148.578C172.984 149.08 161.611 150.368 157.287 133.761C152.964 117.153 160.034 110.589 167.57 109.038C175.106 107.487 184.665 110.63 187.25 127.596Z" fill="#FFBD98"/>
<path d="M160.9 133.043C160.9 133.043 156.817 127.939 154.477 129.429C152.138 130.919 155.45 138.485 158.366 139.361C161.282 140.237 162.145 137.553 162.145 137.553L160.9 133.043Z" fill="#FFBD98"/>
<path d="M155.481 131.578C155.435 131.577 155.43 131.642 155.471 131.655C157.52 132.335 158.691 134.118 159.551 135.99C158.91 135.29 158.075 134.937 157.131 135.708C157.081 135.748 157.136 135.827 157.192 135.812C157.999 135.584 158.598 135.687 159.193 136.306C159.614 136.745 159.92 137.314 160.235 137.831C160.34 138.004 160.656 137.887 160.575 137.686C160.569 137.671 160.562 137.656 160.556 137.641C160.44 135.091 158.231 131.657 155.481 131.578Z" fill="#263238"/>
<path d="M184.941 128.219C184.535 128.201 184.163 128.117 183.764 128.057C183.313 127.99 182.947 127.982 182.595 127.662C182.406 127.49 182.393 127.115 182.543 126.917C182.891 126.453 183.464 126.398 184.01 126.457C184.603 126.521 185.044 126.722 185.462 127.144C185.868 127.555 185.477 128.243 184.941 128.219Z" fill="#41190D"/>
<path d="M173.687 126.832C174.083 126.738 174.432 126.585 174.813 126.451C175.244 126.3 175.602 126.224 175.888 125.844C176.041 125.64 175.983 125.269 175.799 125.102C175.37 124.712 174.797 124.765 174.271 124.926C173.7 125.1 173.305 125.38 172.974 125.874C172.652 126.354 173.165 126.957 173.687 126.832Z" fill="#41190D"/>
<path d="M176.115 130.284C176.102 130.24 176.029 130.348 176.035 130.396C176.184 131.559 176.159 132.916 175.14 133.404C175.109 133.419 175.118 133.477 175.156 133.468C176.426 133.163 176.442 131.361 176.115 130.284Z" fill="#263238"/>
<path d="M174.956 129.164C173.066 129.201 173.28 132.978 175.031 132.943C176.754 132.909 176.54 129.133 174.956 129.164Z" fill="#263238"/>
<path d="M174.226 129.408C173.908 129.64 173.606 130.036 173.211 130.097C172.753 130.169 172.384 129.793 172.062 129.43C172.028 129.392 171.998 129.427 172 129.477C172.03 130.201 172.35 130.928 173.132 130.992C173.845 131.051 174.317 130.381 174.456 129.643C174.482 129.506 174.354 129.314 174.226 129.408Z" fill="#263238"/>
<path d="M182.652 129.879C182.66 129.834 182.745 129.932 182.745 129.98C182.742 131.152 182.937 132.495 184.008 132.853C184.041 132.864 184.04 132.923 184 132.919C182.702 132.775 182.462 130.989 182.652 129.879Z" fill="#263238"/>
<path d="M183.662 128.625C185.541 128.426 185.8 132.2 184.059 132.384C182.345 132.566 182.086 128.792 183.662 128.625Z" fill="#263238"/>
<path d="M184.417 128.776C184.761 128.967 185.11 129.322 185.51 129.333C185.973 129.347 186.293 128.928 186.567 128.527C186.595 128.486 186.63 128.516 186.634 128.566C186.695 129.288 186.467 130.049 185.7 130.21C184.999 130.357 184.448 129.752 184.218 129.037C184.175 128.906 184.278 128.699 184.417 128.776Z" fill="#263238"/>
<path d="M175.372 140.208C175.641 140.494 175.905 140.883 176.328 140.937C176.734 140.988 177.219 140.824 177.599 140.695C177.637 140.682 177.672 140.723 177.647 140.757C177.324 141.194 176.673 141.448 176.135 141.33C175.609 141.215 175.366 140.746 175.258 140.256C175.242 140.188 175.333 140.167 175.372 140.208Z" fill="#263238"/>
<path d="M181.162 134.994C181.162 134.994 181.435 136.764 181.449 137.601C181.45 137.679 179.065 137.515 176.625 138.382C176.259 138.512 176.258 138.202 176.667 137.947C177.485 137.437 178.541 136.923 180.718 136.884C180.774 136.652 180.247 134.167 180.38 134.154C180.837 134.108 181.743 134.405 182.287 134.555C181.825 130.851 180.773 127.251 180.368 123.556C180.356 123.424 180.545 123.381 180.585 123.498C181.955 127.193 182.58 131.444 183.155 135.257C183.232 135.733 181.499 135.131 181.162 134.994Z" fill="#263238"/>
<path d="M179.419 137.744C179.419 137.744 178.646 139.77 177.389 139.974C175.944 140.209 175.453 138.458 177.045 137.705C177.88 137.31 179.419 137.744 179.419 137.744Z" fill="#263238"/>
<path d="M178.819 138.865C178.475 139.364 177.978 139.871 177.387 139.968C176.627 140.094 176.127 139.664 176.064 139.116L176.063 139.107C176.061 139.088 176.069 139.078 176.077 139.058C177.542 138.247 178.371 138.467 178.819 138.865Z" fill="#FF99BA"/>
<path d="M45.7539 468.258C176.607 467.646 323.394 467.641 454.246 468.258C323.393 468.875 176.606 468.87 45.7539 468.258Z" fill="#263238"/>
<path d="M155.405 132.041C158.839 133.031 161.007 125.202 161.007 125.202C161.007 125.202 176.335 125.035 179.525 113.164C179.525 113.164 180.857 121.26 188.121 125.97C188.121 125.97 189.708 112.655 179.553 108.425C179.553 108.425 167.197 101.626 158.181 110.798C149.165 119.971 153.101 131.376 155.405 132.041Z" fill="#602817"/>
<path d="M151.258 123.987C150.855 127.352 149.905 130.478 148.301 133.4C146.986 135.8 145.398 138.143 145.059 140.973C144.456 146.031 148.607 150.01 152.498 152.707C155.101 154.51 161.201 155.614 166.083 154.634C166.323 154.586 157.209 130.21 177.999 109.917C178.089 109.829 167.041 105.511 159.107 110.13C153.94 113.139 151.939 118.286 151.258 123.987Z" fill="#602817"/>
</svg>
